<?xml version="1.0" encoding="UTF-8" standalone="no"?>
<!-- Created with Inkscape (http://www.inkscape.org/) -->

<svg
   width="83.188347mm"
   height="83.280525mm"
   viewBox="0 0 83.188347 83.280525"
   version="1.1"
   id="svg1"
   xml:space="preserve"
   xmlns="http://www.w3.org/2000/svg"
   xmlns:svg="http://www.w3.org/2000/svg"><defs
     id="defs1" /><g
     id="layer1"
     transform="translate(-19.208653,-177.12293)"><rect
       style="display:inline;fill:#333333;fill-opacity:1;stroke-width:0.977911;stroke-linecap:round;stroke-linejoin:round"
       id="rect1-5"
       width="185.39592"
       height="93.804558"
       x="16.241453"
       y="172.31248" /></g><g
     id="layer2"
     style="display:inline"
     transform="translate(-19.208653,-177.12293)"><path
       style="display:inline;fill:#999999;fill-opacity:1;fill-rule:evenodd;stroke:none;stroke-width:0.151347"
       d="m 70.677732,238.26833 c 0,1.07617 -0.36595,2.05502 -1.2465,2.71331 -0.69187,0.52091 -1.50381,0.8014 -2.37293,0.8014 -0.892,0 -1.70966,-0.26332 -2.41296,-0.81284 -0.8634,-0.6583 -1.20648,-1.64287 -1.20648,-2.70187 v -27.52236 c 0,-1.04755 0.36023,-1.99778 1.20648,-2.64462 0.7033,-0.54381 1.52096,-0.80713 2.41296,-0.80713 0.86912,0 1.68106,0.27477 2.37293,0.79568 0.8634,0.64684 1.2465,1.59135 1.2465,2.65607 z m 0.0572,-38.00926 c 0,1.08189 -0.36595,2.06647 -1.23506,2.70187 -0.69187,0.53236 -1.50381,0.81285 -2.38437,0.81285 -0.892,0 -1.72681,-0.26905 -2.41296,-0.81285 -0.85768,-0.6583 -1.20076,-1.63715 -1.20076,-2.70187 v -0.84147 c 0,-1.04754 0.36023,-1.99777 1.18361,-2.62744 0.7033,-0.56098 1.53811,-0.83002 2.43011,-0.83002 0.88056,0 1.6925,0.28049 2.36721,0.8014 0.87484,0.64112 1.25222,1.59135 1.25222,2.65606 z"
       id="path2-8-1" /><path
       style="display:inline;fill:#999999;fill-opacity:1;fill-rule:evenodd;stroke:none;stroke-width:0.151347"
       d="m 58.109592,238.26833 c 0,1.07617 -0.36595,2.05502 -1.24651,2.71331 -0.69186,0.52091 -1.50381,0.8014 -2.37293,0.8014 -0.89199,0 -1.70965,-0.26332 -2.41295,-0.81284 -0.86341,-0.6583 -1.20648,-1.64287 -1.20648,-2.70187 v -27.52236 c 0,-1.04755 0.36023,-1.99778 1.20648,-2.64462 0.7033,-0.54381 1.52096,-0.80713 2.41295,-0.80713 0.86912,0 1.68107,0.27477 2.37293,0.79568 0.86341,0.64684 1.24651,1.59135 1.24651,2.65607 z m 0.0572,-38.00926 c 0,1.08189 -0.36595,2.06647 -1.23507,2.70187 -0.69187,0.53236 -1.50381,0.81285 -2.38437,0.81285 -0.89199,0 -1.72681,-0.26905 -2.41296,-0.81285 -0.85768,-0.6583 -1.20076,-1.63715 -1.20076,-2.70187 v -0.84147 c 0,-1.04754 0.36023,-1.99777 1.18361,-2.62744 0.7033,-0.56098 1.53812,-0.83002 2.43011,-0.83002 0.88056,0 1.6925,0.28049 2.36722,0.8014 0.87483,0.64112 1.25222,1.59135 1.25222,2.65606 z"
       id="path2-5-5-2" /><path
       style="display:inline;fill:#9fdb58;fill-opacity:1;fill-rule:evenodd;stroke:none;stroke-width:0.151347"
       d="m 66.068312,179.29959 14.36337,14.37941 -4.36276,4.36763 -11.02984,-11.0536 c -2.3329,-2.33551 -6.14103,-2.33551 -8.46821,0 l -27.468816,27.52809 c -2.327191,2.33551 -2.327191,6.15361 0,8.48912 l 11.00696,11.03069 -4.368477,4.37336 -14.357654,-14.3794 c -2.898977,-2.89649 -2.898977,-7.64193 0,-10.54414 l 34.153037,-34.19116 c 2.89898,-2.90221 7.63912,-2.90221 10.53239,0 z m 19.79538,19.81748 14.363368,14.37368 c 2.89326,2.90221 2.89326,7.64765 0,10.54414 l -34.153028,34.19115 c -2.89899,2.90221 -7.63913,2.90221 -10.53811,0.006 L 41.178265,243.85263 45.54103,239.485 56.570872,250.53859 c 2.32718,2.32979 6.13531,2.33551 8.46821,0 l 27.4631,-27.52808 c 2.3329,-2.3355 2.3329,-6.15361 0,-8.48911 l -11.00697,-11.03098 z"
       id="path1-4-0" /></g></svg>
