<svg xmlns="http://www.w3.org/2000/svg" width="80" height="80" viewBox="0 0 80 80" data-app="Xyris">
    <defs>
    </defs>
    <g transform-origin="bottom" style="transform-box: fill-box;" transform="">
        <g id="g-x8oMJGPo959EM7mVgACJcW" opacity="1" transform="translate(-1732.5028,-2047.5034)" transform-origin="">
            <g id="g-b3pBjMu5e9Y18C57WiNHBc" opacity="1" transform="">
                <g id="g-8dHzcy6GrvSYBWmXhFZN36" transform="">
                    <path d="M 1798.58 2064.97 C 1797.82 2064.21 1796.8 2063.76 1795.72 2063.72 C 1794.58 2063.74 1793.49 2064.22 1792.69 2065.04 C 1791.89 2065.86 1791.44 2066.96 1791.45 2068.11 L 1791.45 2084.68 C 1791.46 2085.3 1791 2085.83 1790.39 2085.92 C 1790.06 2085.95 1789.73 2085.84 1789.48 2085.62 C 1789.23 2085.39 1789.09 2085.07 1789.09 2084.74 L 1789.09 2058.63 C 1789.08 2057.5 1788.63 2056.43 1787.84 2055.63 C 1787.08 2054.86 1786.06 2054.42 1784.98 2054.39 C 1783.84 2054.42 1782.75 2054.89 1781.95 2055.71 C 1781.15 2056.53 1780.7 2057.64 1780.71 2058.78 L 1780.71 2081.6 L 1780.71 2081.6 C 1780.72 2082.22 1780.26 2082.75 1779.65 2082.84 C 1779.32 2082.87 1778.99 2082.77 1778.74 2082.54 C 1778.5 2082.32 1778.36 2082.01 1778.35 2081.67 L 1778.35 2056.16 C 1778.35 2054.99 1777.88 2053.87 1777.03 2053.06 C 1776.19 2052.26 1775.05 2051.83 1773.88 2051.88 C 1772.73 2051.91 1771.64 2052.38 1770.84 2053.2 C 1770.03 2054.02 1769.59 2055.13 1769.6 2056.27 L 1769.6 2081.65 C 1769.61 2082.26 1769.15 2082.79 1768.54 2082.89 C 1768.21 2082.92 1767.88 2082.81 1767.64 2082.59 C 1767.39 2082.36 1767.25 2082.05 1767.24 2081.72 L 1767.24 2061.41 C 1767.24 2060.29 1766.81 2059.22 1766.03 2058.42 C 1765.25 2057.62 1764.18 2057.16 1763.07 2057.13 C 1761.92 2057.15 1760.83 2057.63 1760.03 2058.45 C 1759.22 2059.27 1758.78 2060.38 1758.79 2061.52 L 1758.79 2093.42 L 1754.51 2087.65 C 1753.68 2086.55 1752.45 2085.83 1751.08 2085.64 C 1749.72 2085.45 1748.34 2085.81 1747.24 2086.64 C 1746.19 2087.43 1745.49 2088.6 1745.26 2089.89 C 1745.04 2091.19 1745.32 2092.52 1746.04 2093.62 L 1753.82 2106.07 C 1754.52 2107.16 1755.12 2108.3 1755.64 2109.48 L 1755.78 2109.81 C 1764.08 2128.61 1791.22 2127.18 1797.49 2107.61 C 1799.03 2102.82 1799.82 2097.81 1799.82 2092.77 L 1799.82 2067.97 C 1799.82 2066.85 1799.37 2065.77 1798.58 2064.97 Z" id="path-6w9FZmKwvwjX388VbRuAgS" opacity="1" fill-opacity="1" stroke-width="0.750001" fill="currentColor" style="display: inline; " transform="">
                    </path>
                </g>
            </g>
        </g>
        <animateTransform attributeName="transform" type="rotate" begin="-0.00001" dur="1.6032512404287902" keyTimes="0; 0.24834990591359346; 0.49852422844370575; 0.7497397101947635; 1" values="0; 10; 0; -10; 0" fill="freeze" additive="sum" calcMode="spline" keySplines="0 0 1 1; 0 0 1 1; 0 0 1 1; 0 0 1 1" repeatCount="indefinite">
        </animateTransform>
    </g>
</svg>
