<svg xmlns="http://www.w3.org/2000/svg" width="80" height="80" viewBox="0 0 80 80" data-app="Xyris">
    <defs>
    </defs>
    <g transform="" transform-origin="">
        <g id="g-bRW4MwTBBobXQBeymP5qh8" opacity="1" transform="translate(-393.75063,-1653.7527)" transform-origin="">
            <g id="g-dfTH8j3PLo3D7CuyXbebrw" transform-origin="center" transform="" style="transform-box: fill-box;">
                <g id="g-mN27TxyZ6BpgEeLh4AYqwr" transform="translate(0,-0.01415)" transform-origin="">
                    <g id="g-6HoCndXaNdnckax2S8CMt6" transform="">
                        <g id="g-ecEmb2hVuT2ckksMV2RxS6" transform="translate(0.463835)" transform-origin="">
                            <g fill="currentColor" id="g-vzJ1V9HnqsyDbQWo2i7J9k" transform="matrix(1.554594,0,0,1.554594,373.04117,1650.6314)" fill-opacity="1" stroke-width="1.44733" stroke-linecap="round" stroke-linejoin="round" stroke-dasharray="none" stroke-opacity="1" stroke="currentColor" transform-origin="">
                                <path id="path-5Uwnsk2REFwz918bP9vbzw" fill-opacity="1" stroke-width="1.44733" stroke-linecap="round" stroke-linejoin="round" stroke-dasharray="none" stroke-opacity="1" d="M 56.9362 16.3913 C 57.8604 17.5214 58.8371 18.6812 59.3914 20.0633 C 60.5845 22.6027 60.8431 25.5617 60.1648 28.2789 C 59.6474 30.4266 58.5279 32.4018 57.0124 34.0026 C 56.7971 34.449 57.5999 33.3894 57.7142 33.2972 C 60.2155 30.3159 61.1766 26.1339 60.2574 22.3541 C 59.7309 20.1192 58.5684 17.991 56.9362 16.3913 Z" stroke="currentColor" fill="currentColor" transform="">
                                    <animate attributeName="visibility" keyTimes="0; 0.31987298324186403; 0.4929057836677006; 0.8246361116719592; 1" values="hidden; visible; hidden; visible; visible" begin="-0.00001" dur="1.9956610256410252" fill="freeze" calcMode="spline" keySplines="0 0 1 1; 0 0 1 1; 0 0 1 1; 0 0 1 1" repeatCount="indefinite">
                                    </animate>
                                </path>
                                <path id="path-jw4TyidJe2Tq3GYZfSho5t" fill-opacity="1" stroke-width="1.44733" stroke-linecap="round" stroke-linejoin="round" stroke-dasharray="none" stroke-opacity="1" d="M 52.8972 20.3972 C 53.9114 21.5477 54.7194 22.9631 54.833 24.5237 C 55.1073 26.5455 54.3122 28.6045 52.9327 30.0755 C 52.8743 30.2769 53.3913 29.7871 53.4496 29.6705 C 54.7661 27.8072 55.4802 25.3095 54.589 23.1146 C 54.2078 22.1478 53.8099 20.9671 52.8972 20.3972 Z" stroke="currentColor" fill="none" transform="">
                                    <animate attributeName="visibility" keyTimes="0; 0.17119729814063608; 0.4929057836677006; 0.6727850076173346; 1" values="hidden; visible; hidden; visible; visible" begin="-0.00001" dur="1.9956610256410252" fill="freeze" calcMode="spline" keySplines="0 0 1 1; 0 0 1 1; 0 0 1 1; 0 0 1 1" repeatCount="indefinite">
                                    </animate>
                                </path>
                            </g>
                            <g fill="currentColor" id="g-rf17qHoWatviBHjB3GTiDD" transform="matrix(-1.554594,0,0,1.554594,488.53255,1650.6314)" fill-opacity="1" stroke-width="1.44733" stroke-linecap="round" stroke-linejoin="round" stroke-dasharray="none" stroke-opacity="1" stroke="currentColor" transform-origin="">
                                <path id="path-p17JP8foWPSDCs7icZ9RWc" fill-opacity="1" stroke-width="1.44733" stroke-linecap="round" stroke-linejoin="round" stroke-dasharray="none" stroke-opacity="1" d="M 53.72 16.3913 C 54.6442 17.5214 55.6209 18.6812 56.1752 20.0633 C 57.3683 22.6027 57.6269 25.5617 56.9486 28.2789 C 56.4312 30.4266 55.3117 32.4018 53.7962 34.0026 C 53.5809 34.449 54.3837 33.3894 54.498 33.2972 C 56.9993 30.3159 57.9604 26.1339 57.0412 22.3541 C 56.5147 20.1192 55.3522 17.991 53.72 16.3913 Z" stroke="currentColor" fill="currentColor" transform="">
                                    <animate attributeName="visibility" keyTimes="0; 0.31987298324186403; 0.4929057836677006; 0.8246361116719592; 1" values="hidden; visible; hidden; visible; visible" begin="-0.00001" dur="1.9956610256410252" fill="freeze" calcMode="spline" keySplines="0 0 1 1; 0 0 1 1; 0 0 1 1; 0 0 1 1" repeatCount="indefinite">
                                    </animate>
                                </path>
                                <path id="path-5K2mYqPKiXnptgPbw518xY" fill-opacity="1" stroke-width="1.44733" stroke-linecap="round" stroke-linejoin="round" stroke-dasharray="none" stroke-opacity="1" d="M 49.681 20.3972 C 50.6952 21.5477 51.5032 22.9631 51.6168 24.5237 C 51.8911 26.5455 51.096 28.6045 49.7165 30.0755 C 49.6581 30.2769 50.1751 29.7871 50.2334 29.6705 C 51.5499 27.8072 52.264 25.3095 51.3728 23.1146 C 50.9916 22.1478 50.5937 20.9671 49.681 20.3972 Z" stroke="currentColor" fill="none" transform="">
                                    <animate attributeName="visibility" keyTimes="0; 0.17119729814063608; 0.4929057836677006; 0.6686184174299298; 1" values="hidden; visible; hidden; visible; visible" begin="-0.00001" dur="1.9956610256410252" fill="freeze" calcMode="spline" keySplines="0 0 1 1; 0 0 1 1; 0 0 1 1; 0 0 1 1" repeatCount="indefinite">
                                    </animate>
                                </path>
                            </g>
                        </g>
                    </g>
                    <path d="M 430.724 1673.39 L 430.724 1671.88 C 430.726 1670.21 432.081 1668.86 433.75 1668.86 L 433.751 1668.86 C 435.42 1668.86 436.799 1670.21 436.774 1671.88 L 436.774 1673.4 M 440.923 1712.52 C 440.376 1716.06 437.332 1718.67 433.751 1718.68 C 430.169 1718.68 427.125 1716.06 426.579 1712.52 M 455.442 1712.51 L 412.062 1712.51 L 412.062 1709.96 C 412.062 1708.36 412.801 1706.84 414.065 1705.86 C 417.746 1702.99 419.892 1698.58 419.879 1693.91 L 419.879 1686.89 C 419.873 1679.22 426.084 1673.06 433.751 1673.06 C 441.418 1673.06 447.634 1679.22 447.628 1686.89 L 447.628 1693.91 C 447.625 1698.58 449.77 1702.98 453.443 1705.86 C 454.709 1706.84 455.448 1708.36 455.442 1709.96 Z" id="path-tzFAFjTR3HHRpfJ3ZsUAqr" opacity="1" fill-opacity="1" stroke-width="2.25" stroke-dasharray="none" stroke-opacity="1" stroke="currentColor" fill="none" transform-origin="top" transform="" style="transform-box: fill-box;">
                        <animateTransform attributeName="transform" type="rotate" begin="-0.00001" dur="1.9956610256410252" keyTimes="0; 0.24645289183385025; 0.4929057836677006; 0.7512160202639452; 1" values="0;-5;0;5;0" fill="freeze" additive="sum" calcMode="spline" keySplines="0 0 1 1;0 0 1 1;0 0 1 1;0 0 1 1" repeatCount="indefinite">
                        </animateTransform>
                    </path>
                </g>
            </g>
        </g>
    </g>
</svg>
