<svg xmlns="http://www.w3.org/2000/svg" width="75" height="75" viewBox="0 0 75 75" data-app="Xyris">
    <defs>
    </defs>
    <g transform-origin="center" style="transform-box: fill-box;">
        <g id="g-p198unD3GArCVyRsPVty9z" opacity="1" transform="translate(-315.00051,-2205.0036)">
            <g id="g-gQkxGWhk8hk97LdsNj9DKd">
                <g id="g-irHuTWMXaTs8B6JEDQSp1w" transform="matrix(1.5760409,0,0,1.5760409,45.172098,-1294.1786)" stroke-width="1.42763" stroke-dasharray="none">
                    <g id="g-fEPxqAADi43Tr9WYjpQpkB" transform="translate(-1.066394,5.9377108)" opacity="1" stroke-width="1.42763" stroke-dasharray="none" stroke-opacity="1" stroke="currentColor" fill="none" style="display: inline;">
                        <g>
                            <g id="g-uZyLT36ZhQJnt43TdU2CAj" transform="matrix(0.10812366,0,0,-0.10812366,199.62861,2238.0398)" stroke-width="13.2037" stroke-dasharray="none" stroke-opacity="1" clip-path="url(#clipPath-1YhdMwFpwDwftCtM4oR91Q)" stroke="currentColor" fill="none">
                                <path d="m 0,0 c 0,-18.189 -14.744,-32.934 -32.934,-32.934 -18.188,0 -32.933,14.745 -32.933,32.934 0,18.189 14.745,32.934 32.933,32.934 C -14.744,32.934 0,18.189 0,0 Z" stroke-width="13.2037" stroke-linecap="round" stroke-linejoin="round" stroke-miterlimit="10" stroke-dasharray="none" stroke-opacity="1" id="path-3gngzuqWLUAooxudGqE8rG" stroke="currentColor" fill="none">
                                </path>
                            </g>
                            <clipPath clipPathUnits="userSpaceOnUse" id="clipPath-1YhdMwFpwDwftCtM4oR91Q">
                                <path d="M -288.93335,206.85112 H 223.06663 V -305.14886 H -288.93335 Z" id="path-5CpQWR8d53AU46ox66tXu9" stroke-width="1">
                                </path>
                            </clipPath>
                        </g>
                        <g>
                            <g id="g-v6FEWmXdbkuVDJ125rvMG5" transform="matrix(0.10812366,0,0,-0.10812366,197.64585,2234.8476)" stroke-width="13.2037" stroke-dasharray="none" stroke-opacity="1" clip-path="url(#clipPath-nr6LP9VEstTWVG18Dfp981)" stroke="currentColor" fill="none">
                                <path d="m 0,0 c 5.045,14.4 14.56,25.083 35.574,35.501 7.872,3.904 14.671,7.275 14.671,16.475 0,32.604 -33.528,52.785 -64.594,52.785 -35.617,0 -64.592,-23.679 -64.592,-52.785 0,-15.008 7.506,-35.234 19.125,-51.529 5.09,-7.138 10.185,-12.568 15.085,-16.687" stroke-width="13.2037" stroke-linecap="round" stroke-linejoin="round" stroke-miterlimit="10" stroke-dasharray="none" stroke-opacity="1" id="path-jcGshLbMkrtmdtzbh5YRNQ" stroke="currentColor" fill="none">
                                </path>
                            </g>
                            <clipPath clipPathUnits="userSpaceOnUse" id="clipPath-nr6LP9VEstTWVG18Dfp981">
                                <path d="M -270.59545,177.32752 H 241.40453 V -334.67246 H -270.59545 Z" id="path-dcjqRvMYpCDpxEKTQu6jMR" stroke-width="1">
                                </path>
                            </clipPath>
                        </g>
                        <g>
                            <g id="g-hwB5aPTyzpJQovYAXYeCPZ" transform="matrix(0.10812366,0,0,-0.10812366,192.54535,2238.5629)" stroke-width="13.2037" stroke-dasharray="none" stroke-opacity="1" clip-path="url(#clipPath-fb8kNwDj1H1MJP8x8d3XG4)" stroke="currentColor" fill="none">
                                <path d="m 0,0 c -14.256,-1.042 -27.769,3.088 -45.765,17.623 -6.813,5.504 -12.665,10.324 -21.096,6.446 -28.882,-13.28 -34.41,-51.511 -20.971,-80.738 14.109,-30.687 47.272,-49.359 74.942,-36.634 20.527,9.439 43.95,38.285 48.897,65.385" stroke-width="13.2037" stroke-linecap="round" stroke-linejoin="round" stroke-miterlimit="10" stroke-dasharray="none" stroke-opacity="1" id="path-huvJYEQw3hbZUMRhaBo58W" stroke="currentColor" fill="none">
                                </path>
                            </g>
                            <clipPath clipPathUnits="userSpaceOnUse" id="clipPath-fb8kNwDj1H1MJP8x8d3XG4">
                                <path d="M -223.42261,211.6891 H 288.57736 V -300.31088 H -223.42261 Z" id="path-xgUaNrmSNTviPjZugxG9jc" stroke-width="1">
                                </path>
                            </clipPath>
                        </g>
                        <g>
                            <g id="g-akroaq39XWDBayxABggKkh" transform="matrix(0.10812366,0,0,-0.10812366,197.92313,2241.0795)" stroke-width="13.2037" stroke-dasharray="none" stroke-opacity="1" clip-path="url(#clipPath-q7MmLcNRVeGUax24hKU8Gb)" stroke="currentColor" fill="none">
                                <path d="m 0,0 c 10.751,-13.325 14.941,-27.606 11.016,-52.851 -1.35,-8.684 -2.515,-16.182 5.002,-21.487 7.709,-5.44 16.563,-8.199 26.315,-8.199 h 0.002 c 19.743,0 40.96,11.988 54.054,30.541 19.097,27.063 19.558,65.254 -5.886,83.209 -18.406,12.99 -52.407,18.136 -77.685,10.531" stroke-width="13.2037" stroke-linecap="round" stroke-linejoin="round" stroke-miterlimit="10" stroke-dasharray="none" stroke-opacity="1" id="path-c5h53WtAHCENDU6jBw6uZK" stroke="currentColor" fill="none">
                                </path>
                            </g>
                            <clipPath clipPathUnits="userSpaceOnUse" id="clipPath-q7MmLcNRVeGUax24hKU8Gb">
                                <path d="M -273.15992,234.9643 H 238.84005 V -277.03568 H -273.15992 Z" id="path-kLJxQ3eaq9EQdUWHwNEjk9" stroke-width="1">
                                </path>
                            </clipPath>
                        </g>
                    </g>
                    <ellipse opacity="1" fill-opacity="0.7" fill-rule="evenodd" stroke-width="1.42763" stroke-linejoin="round" stroke-dasharray="none" stroke-dashoffset="0" stroke-opacity="1" id="ellipse-9QKv6QHTGRLCQyCszpRbPU" cx="195.00031" cy="2244.0295" rx="21.715351" ry="21.717083" stroke="currentColor" fill="none" style="display: inline; ">
                    </ellipse>
                </g>
            </g>
        </g>
        <animateTransform attributeName="transform" type="rotate" begin="-0.00001" dur="3.00002" keyTimes="0; 1.0" values="0;360" fill="freeze" additive="sum" calcMode="spline" keySplines="0 0 1 1" repeatCount="indefinite">
        </animateTransform>
    </g>
</svg>
