<svg xmlns="http://www.w3.org/2000/svg" width="80" height="80" viewBox="0 0 80 80" data-app="Xyris">
    <defs>
    </defs>
    <g transform="" transform-origin="center" style="transform-box: fill-box;">
        <g id="g-4Dnz7fJFXCNcjmZP7wCYMp" opacity="1" transform="translate(-78.750127,-393.75065)" transform-origin="">
            <g id="g-nemBMPSx9NfHQkm3fwSqpR" transform="">
                <g id="g-fYrmvzUe8h7BBSQ8ppFRBy" opacity="1" fill-opacity="0.225" transform="matrix(0.8645493,0,0,0.8645493,-16.29802,241.24759)" fill="#80000000" style="display: inline;" transform-origin="">
                    <path fill-opacity="1" fill-rule="evenodd" stroke-width="0.151347" d="M 159.798 242.168 C 159.798 243.245 159.432 244.223 158.551 244.882 C 157.859 245.403 157.047 245.683 156.178 245.683 C 155.286 245.683 154.469 245.42 153.765 244.87 C 152.902 244.212 152.559 243.227 152.559 242.168 L 152.559 214.646 C 152.559 213.599 152.919 212.648 153.765 212.001 C 154.469 211.458 155.286 211.194 156.178 211.194 C 157.047 211.194 157.859 211.469 158.551 211.99 C 159.415 212.637 159.798 213.581 159.798 214.646 Z M 159.855 204.159 C 159.855 205.241 159.489 206.226 158.62 206.861 C 157.928 207.393 157.116 207.674 156.235 207.674 C 155.343 207.674 154.509 207.405 153.822 206.861 C 152.965 206.203 152.622 205.224 152.622 204.159 L 152.622 203.318 C 152.622 202.27 152.982 201.32 153.805 200.69 C 154.509 200.129 155.343 199.86 156.235 199.86 C 157.116 199.86 157.928 200.141 158.603 200.662 C 159.477 201.303 159.855 202.253 159.855 203.318 Z" id="path-3s3yPKuZrxm57Dr7NtieuG" stroke="none" fill="rgb(153, 153, 153)" style="display: inline; " transform="">
                    </path>
                    <path fill-opacity="1" fill-rule="evenodd" stroke-width="0.151347" d="M 161.472 183.2 L 175.836 197.579 L 171.473 201.947 L 160.443 190.893 C 158.11 188.558 154.302 188.558 151.975 190.893 L 124.506 218.421 C 122.179 220.757 122.179 224.575 124.506 226.91 L 135.513 237.941 L 131.144 242.314 L 116.787 227.935 C 113.888 225.039 113.888 220.293 116.787 217.391 L 150.94 183.2 C 153.839 180.297 158.579 180.297 161.472 183.2 Z M 181.268 203.017 L 195.631 217.391 C 198.524 220.293 198.524 225.038 195.631 227.935 L 161.478 262.126 C 158.579 265.028 153.839 265.028 150.94 262.132 L 136.582 247.753 L 140.945 243.385 L 151.975 254.439 C 154.302 256.769 158.11 256.774 160.443 254.439 L 187.906 226.911 C 190.239 224.575 190.239 220.757 187.906 218.422 L 176.899 207.391 Z" id="path-6Zjwe9P69jct5qszsGvN3S" stroke="none" fill="rgb(159, 219, 88)" style="display: inline; " transform="">
                    </path>
                </g>
            </g>
        </g>
        <animateTransform attributeName="transform" type="scale" begin="-0.00001" dur="1.9700199999999997" keyTimes="0; 0.5076142131979696; 1" values="1, 1; 0, 1; 1" fill="freeze" additive="sum" calcMode="spline" keySplines="0 0 1 1; 0 0 1 1" repeatCount="indefinite">
        </animateTransform>
    </g>
</svg>
