<?xml version="1.0" encoding="UTF-8" standalone="no"?>
<svg version="1.1" width="26.458326mm" height="26.458326mm" viewBox="0 0 75.000128 75.000071" id="svg165" xml:space="preserve" xmlns="http://www.w3.org/2000/svg" xmlns:svg="http://www.w3.org/2000/svg"><defs id="defs165" /><g id="layer1" style="opacity:1" transform="translate(-0.39105715,-1417.5023)"><g id="g157"><path d="m 0.39105715,1417.5023 v 75.0001 H 75.391157 v -75.0001 z" style="display:inline;opacity:1;fill:#80000000;fill-opacity:0.225;stroke:none;stroke-width:0.753376;stroke-linecap:round;stroke-linejoin:round;stroke-dasharray:none;stroke-opacity:1" id="path154-9-7-3-86-2" /><g id="g72" style="display:inline;opacity:1;fill:none;fill-opacity:1;stroke:currentColor;stroke-opacity:1" transform="translate(-0.25993892,1181.2519)"><path style="fill:none;fill-opacity:1;stroke:currentColor;stroke-width:2.25;stroke-linecap:round;stroke-linejoin:round;stroke-dasharray:none;stroke-opacity:1" d="m 13.8202,289.96404 h 57.88481 v -5.42273 L 51.54407,269.28438 H 34.02798 L 13.8202,284.54131 Z" id="path25-7-6-3-2-9-4" /><path d="m 33.98076,260.50897 v 8.77541 h 17.56368 v -8.77541 q 0,-1.05879 -1.08779,-1.05879 H 35.06856 q -1.0878,0 -1.0878,1.05879 z" style="fill:none;fill-opacity:1;stroke:currentColor;stroke-width:2.25;stroke-linecap:round;stroke-linejoin:round;stroke-dasharray:none;stroke-opacity:1" id="path155-9-6-1-1-3-2-1" /><path d="m 48.56298,289.96404 c 0.24883,0.57234 0.38465,1.19171 0.38465,1.83816 0,2.91887 -2.7692,5.28481 -6.18503,5.28481 -3.41583,0 -6.18502,-2.36594 -6.18502,-5.28481 0,-0.64645 0.13582,-1.26582 0.3845,-1.83816 z" style="fill:none;fill-opacity:1;stroke:currentColor;stroke-width:2.25;stroke-linecap:round;stroke-linejoin:round;stroke-dasharray:none;stroke-opacity:1" id="path161-2-1-4-2-2-7-1" /><path id="path71-9-3" style="fill:currentColor;fill-opacity:1;stroke:none;stroke-width:0.895131;stroke-opacity:1" d="m 32.29003,239.56594 c -0.86047,-0.0392 -1.74674,0.0152 -2.65524,0.16259 -3.97071,0.64436 -6.80745,2.93918 -9.65197,7.80969 -1.88202,3.22246 -3.33588,4.87672 -4.96562,5.65009 -1.27449,0.60478 -2.17857,1.02905 -2.8257,1.09094 v 2.53198 l 1.39646,-0.3737 c 3.69621,-0.98858 6.57892,-3.50893 8.93341,-7.80837 2.25892,-4.1249 4.52212,-5.82354 8.27648,-6.2113 3.79929,-0.39239 7.12342,1.38647 9.12878,4.88433 1.16906,2.03916 1.50159,3.68846 1.51054,7.48319 0.01,4.41604 -0.0862,5.03319 1.13204,5.03319 1.22059,0 1.56415,-0.60855 1.55073,-5.03319 -0.0177,-5.82736 -1.39831,-9.31801 -4.90137,-12.39374 -2.00007,-1.75608 -4.34711,-2.70804 -6.92854,-2.8257 z" /><rect style="fill:none;fill-opacity:1;stroke:currentColor;stroke-width:2.25;stroke-linecap:round;stroke-linejoin:round;stroke-dasharray:none;stroke-opacity:1" id="rect71-5-8" width="7.5943966" height="32.126022" x="4.5970821" y="239.48221" ry="1.0579114" /></g></g></g><style type="text/css" id="style1">.st0{fill:none;stroke:#000000;stroke-width:2;stroke-miterlimit:10;}.st1{fill:none;stroke:#000000;stroke-width:2;stroke-linecap:round;stroke-miterlimit:10;}.st2{fill:none;stroke:#000000;stroke-width:2;stroke-linecap:round;stroke-linejoin:round;stroke-miterlimit:10;}.st3{fill:none;stroke:#000000;stroke-linecap:round;stroke-miterlimit:10;}.st4{fill:none;stroke:#000000;stroke-width:3;stroke-linecap:round;stroke-miterlimit:10;}.st5{fill:#FFFFFF;}.st6{stroke:#000000;stroke-width:2;stroke-miterlimit:10;}.st7{fill:none;stroke:#000000;stroke-width:2;stroke-linejoin:round;stroke-miterlimit:10;}.st8{fill:none;}.st9{fill:none;stroke:#000000;stroke-width:0;stroke-linecap:round;stroke-linejoin:round;}</style><style type="text/css" id="style1-5">.st0{fill:none;stroke:#000000;stroke-width:2;stroke-miterlimit:10;}.st1{fill:none;stroke:#000000;stroke-width:2;stroke-linecap:round;stroke-miterlimit:10;}.st2{fill:none;stroke:#000000;stroke-width:2;stroke-linecap:round;stroke-linejoin:round;stroke-miterlimit:10;}.st3{fill:none;stroke:#000000;stroke-linecap:round;stroke-miterlimit:10;}.st4{fill:none;stroke:#000000;stroke-width:3;stroke-linecap:round;stroke-miterlimit:10;}.st5{fill:#FFFFFF;}.st6{stroke:#000000;stroke-width:2;stroke-miterlimit:10;}.st7{fill:none;stroke:#000000;stroke-width:2;stroke-linejoin:round;stroke-miterlimit:10;}.st8{fill:none;}.st9{fill:none;stroke:#000000;stroke-width:0;stroke-linecap:round;stroke-linejoin:round;}</style></svg>
