<?xml version="1.0" encoding="UTF-8" standalone="no"?>
<svg version="1.1" width="1.0416667in" height="1.0416667in" viewBox="0 0 75.000155 75.000097" id="svg165" xml:space="preserve" xmlns="http://www.w3.org/2000/svg" xmlns:svg="http://www.w3.org/2000/svg"><defs id="defs165" /><g id="g70" style="display:inline;fill:none;stroke:none;stroke-width:0;stroke-dasharray:none"><path d="M 0,0 V 75.00012 H 75.00012 V 0 Z" style="fill:none;fill-opacity:0;stroke:none;stroke-width:0;stroke-linecap:round;stroke-linejoin:round;stroke-dasharray:none;stroke-opacity:1" id="path2" /></g><g id="layer1"><g id="g4" transform="translate(-260.15105,-132.50561)"><path style="fill:none;fill-opacity:0.15;stroke:currentColor;stroke-width:2.25;stroke-linecap:round;stroke-linejoin:round;stroke-dasharray:none;stroke-opacity:1" d="m 266.21026,183.36363 h 62.8817 v -5.89085 L 307.19063,160.8988 h -19.02816 l -21.95221,16.57398 z" id="path25-7-6-8" /><path d="m 288.11118,151.36586 v 9.53294 h 19.07986 v -9.53294 q 0,-1.15019 -1.1817,-1.15019 h -16.71646 q -1.1817,0 -1.1817,1.15019 z" style="fill:none;fill-opacity:0.15;stroke:currentColor;stroke-width:2.25;stroke-linecap:round;stroke-linejoin:round;stroke-dasharray:none" id="path155-9-6-1-5" /><path d="m 303.9522,183.36363 c 0.27031,0.62174 0.41786,1.29458 0.41786,1.99683 0,3.17085 -3.00825,5.74103 -6.71895,5.74103 -3.7107,0 -6.71895,-2.57018 -6.71895,-5.74103 0,-0.70225 0.14755,-1.37509 0.4177,-1.99683 z" style="fill:none;fill-opacity:0.15;stroke:currentColor;stroke-width:2.25;stroke-linecap:round;stroke-linejoin:round;stroke-dasharray:none" id="path161-2-1-4-7" /><path d="m 297.62485,138.13061 0.0525,11.48186" style="fill:none;stroke:currentColor;stroke-width:2.25;stroke-linecap:round;stroke-linejoin:round;stroke-dasharray:none" id="path160-5-8-2-6" /></g></g></svg>
