<?xml version="1.0" encoding="UTF-8" standalone="no"?>
<svg version="1.1" width="1.0416667in" height="1.0416667in" viewBox="0 0 75.000155 75.000097" id="svg165" xml:space="preserve" xmlns="http://www.w3.org/2000/svg" xmlns:svg="http://www.w3.org/2000/svg"><defs id="defs165" /><g id="g70" style="display:inline;fill:none;stroke:none;stroke-width:0;stroke-dasharray:none" transform="translate(-78.750132,-157.50027)"><path d="m 78.750129,157.50026 v 75.00012 h 75.000121 v -75.00012 z" style="fill:none;fill-opacity:0;stroke:none;stroke-width:0;stroke-linecap:round;stroke-linejoin:round;stroke-dasharray:none;stroke-opacity:1" id="path13" /></g><g id="layer1" transform="translate(-78.750132,-157.50027)"><g id="g2" transform="translate(-0.87221396)" style="stroke-width:1.125;stroke-dasharray:none"><g id="g7-0-9-48" style="stroke-width:1.50539;stroke-dasharray:none" transform="matrix(0.7473144,0,0,0.7473144,-182.24335,152.27575)"><g id="g6-6-4-8" style="stroke-width:1.50539;stroke-dasharray:none"><path d="m 359.9088,33.5848 -3.8512,2.8875" style="fill:none;stroke:black;stroke-width:1.50539;stroke-linecap:round;stroke-linejoin:round;stroke-dasharray:none" id="path148-1-8-24" /><path d="m 356.0577,18.4873 3.8512,2.8875" style="fill:none;stroke:black;stroke-width:1.50539;stroke-linecap:round;stroke-linejoin:round;stroke-dasharray:none" id="path149-3-8-5" /><path d="m 353.8953,27.4795 h 4.8135" style="fill:none;stroke:black;stroke-width:1.50539;stroke-linecap:round;stroke-linejoin:round;stroke-dasharray:none" id="path151-8-2-5" /></g><g id="g5-9-4-17" style="stroke-width:1.50539;stroke-dasharray:none"><path d="m 389.4367,33.5848 3.8512,2.8875" style="fill:none;stroke:black;stroke-width:1.50539;stroke-linecap:round;stroke-linejoin:round;stroke-dasharray:none" id="path147-3-5-11" /><path d="m 393.2878,18.4873 -3.8512,2.8875" style="fill:none;stroke:black;stroke-width:1.50539;stroke-linecap:round;stroke-linejoin:round;stroke-dasharray:none" id="path150-4-5-5" /><path d="m 390.637,27.4795 h 4.8135" style="fill:none;stroke:black;stroke-width:1.50539;stroke-linecap:round;stroke-linejoin:round;stroke-dasharray:none" id="path152-4-1-2" /></g></g><path fill="none" stroke="black" stroke-width="2" stroke-linecap="round" stroke-miterlimit="10" d="m 93.353045,186.32952 v 2.51546 c 0,0.69175 0.56597,1.25773 1.25772,1.25773 h 6.288655 c 0.69175,0 1.25773,-0.56598 1.25773,-1.25773 v -2.51546 z" id="path1-3-2-1-76" style="fill:none;fill-opacity:0.3;stroke-width:1.125;stroke-dasharray:none" /><path fill="none" stroke="black" stroke-width="2" stroke-linejoin="round" stroke-miterlimit="10" d="m 102.15714,186.32952 c 0,-0.62887 0,-2.52867 0,-3.77319 0,-3.38644 4.40206,-3.50152 4.40206,-9.43298 0,-4.86301 -3.94173,-8.80411 -8.804105,-8.80411 -4.86238,0 -8.80411,3.9411 -8.80411,8.80411 0,6.05786 4.40206,6.72383 4.40206,9.43298 0,0.82067 0,3.77319 0,3.77319" id="path2-2-7-1-14" style="fill:none;fill-opacity:0.2;stroke-width:1.125;stroke-dasharray:none" /><path fill="none" stroke="black" stroke-width="2" stroke-linecap="round" stroke-miterlimit="10" d="m 99.641695,190.10271 c 0,1.0414 -0.8452,1.88659 -1.8866,1.88659 -1.0414,0 -1.8866,-0.84519 -1.8866,-1.88659" id="path3-2-9-5-23" style="fill:none;fill-opacity:0.3;stroke-width:1.125;stroke-dasharray:none" /><line fill="none" stroke="black" stroke-width="2" stroke-miterlimit="10" x1="97.755096" y1="176.26767" x2="97.755096" y2="184.44292" id="line3-5-2-2" style="fill:none;fill-opacity:0.3;stroke-width:1.125;stroke-dasharray:none" /><polyline fill="none" stroke="black" stroke-width="2" stroke-linecap="round" stroke-miterlimit="10" points="21,19 25,23 29,19 " id="polyline3-4-7-21" style="fill:none;fill-opacity:0.3;stroke-width:1.78894;stroke-dasharray:none" transform="matrix(0.62886495,0,0,0.62886495,82.033475,161.80378)" /><g id="g7-0-9-4-6" style="stroke-width:1.50539;stroke-dasharray:none" transform="matrix(0.7473144,0,0,0.7473144,-143.50875,152.27575)"><g id="g6-6-4-2-8" style="stroke-width:1.50539;stroke-dasharray:none"><path d="m 359.9088,33.5848 -3.8512,2.8875" style="fill:none;stroke:black;stroke-width:1.50539;stroke-linecap:round;stroke-linejoin:round;stroke-dasharray:none" id="path148-1-8-3-5" /><path d="m 356.0577,18.4873 3.8512,2.8875" style="fill:none;stroke:black;stroke-width:1.50539;stroke-linecap:round;stroke-linejoin:round;stroke-dasharray:none" id="path149-3-8-2-7" /><path d="m 353.8953,27.4795 h 4.8135" style="fill:none;stroke:black;stroke-width:1.50539;stroke-linecap:round;stroke-linejoin:round;stroke-dasharray:none" id="path151-8-2-2-61" /></g><g id="g5-9-4-1-8" style="stroke-width:1.50539;stroke-dasharray:none"><path d="m 389.4367,33.5848 3.8512,2.8875" style="fill:none;stroke:black;stroke-width:1.50539;stroke-linecap:round;stroke-linejoin:round;stroke-dasharray:none" id="path147-3-5-6-9" /><path d="m 393.2878,18.4873 -3.8512,2.8875" style="fill:none;stroke:black;stroke-width:1.50539;stroke-linecap:round;stroke-linejoin:round;stroke-dasharray:none" id="path150-4-5-8-27" /><path d="m 390.637,27.4795 h 4.8135" style="fill:none;stroke:black;stroke-width:1.50539;stroke-linecap:round;stroke-linejoin:round;stroke-dasharray:none" id="path152-4-1-5-9" /></g></g><path fill="none" stroke="black" stroke-width="2" stroke-linecap="round" stroke-miterlimit="10" d="m 132.08764,186.32952 v 2.51546 c 0,0.69175 0.56598,1.25773 1.25774,1.25773 h 6.28864 c 0.69176,0 1.25774,-0.56598 1.25774,-1.25773 v -2.51546 z" id="path1-3-2-1-6-5" style="fill:none;fill-opacity:1;stroke-width:1.125;stroke-dasharray:none" /><path fill="none" stroke="black" stroke-width="2" stroke-linejoin="round" stroke-miterlimit="10" d="m 140.89175,186.32952 c 0,-0.62887 0,-2.52867 0,-3.77319 0,-3.38644 4.40205,-3.50152 4.40205,-9.43298 0,-4.86301 -3.94172,-8.80411 -8.8041,-8.80411 -4.86238,0 -8.80411,3.9411 -8.80411,8.80411 0,6.05786 4.40205,6.72383 4.40205,9.43298 0,0.82067 0,3.77319 0,3.77319" id="path2-2-7-1-1-4" style="fill:none;fill-opacity:0.2;stroke-width:1.125;stroke-dasharray:none" /><path fill="none" stroke="black" stroke-width="2" stroke-linecap="round" stroke-miterlimit="10" d="m 138.37629,190.10271 c 0,1.0414 -0.84519,1.88659 -1.88659,1.88659 -1.0414,0 -1.8866,-0.84519 -1.8866,-1.88659" id="path3-2-9-5-8-3" style="fill:none;fill-opacity:1;stroke-width:1.125;stroke-dasharray:none" /><line fill="none" stroke="black" stroke-width="2" stroke-miterlimit="10" x1="136.4897" y1="176.26767" x2="136.4897" y2="184.44292" id="line3-5-2-9-1" style="fill:none;fill-opacity:1;stroke-width:1.125;stroke-dasharray:none" /><polyline fill="none" stroke="black" stroke-width="2" stroke-linecap="round" stroke-miterlimit="10" points="21,19 25,23 29,19 " id="polyline3-4-7-2-2" style="fill:none;fill-opacity:1;stroke-width:1.78894;stroke-dasharray:none" transform="matrix(0.62886495,0,0,0.62886495,120.76808,161.80378)" /><g id="g7-0-9-3-3" style="stroke-width:1.50539;stroke-dasharray:none" transform="matrix(0.7473144,0,0,0.7473144,-182.24335,185.96784)"><g id="g6-6-4-1-3" style="stroke-width:1.50539;stroke-dasharray:none"><path d="m 359.9088,33.5848 -3.8512,2.8875" style="fill:none;stroke:black;stroke-width:1.50539;stroke-linecap:round;stroke-linejoin:round;stroke-dasharray:none" id="path148-1-8-2-4" /><path d="m 356.0577,18.4873 3.8512,2.8875" style="fill:none;stroke:black;stroke-width:1.50539;stroke-linecap:round;stroke-linejoin:round;stroke-dasharray:none" id="path149-3-8-3-1" /><path d="m 353.8953,27.4795 h 4.8135" style="fill:none;stroke:black;stroke-width:1.50539;stroke-linecap:round;stroke-linejoin:round;stroke-dasharray:none" id="path151-8-2-3-1" /></g><g id="g5-9-4-4-3" style="stroke-width:1.50539;stroke-dasharray:none"><path d="m 389.4367,33.5848 3.8512,2.8875" style="fill:none;stroke:black;stroke-width:1.50539;stroke-linecap:round;stroke-linejoin:round;stroke-dasharray:none" id="path147-3-5-1-8" /><path d="m 393.2878,18.4873 -3.8512,2.8875" style="fill:none;stroke:black;stroke-width:1.50539;stroke-linecap:round;stroke-linejoin:round;stroke-dasharray:none" id="path150-4-5-1-7" /><path d="m 390.637,27.4795 h 4.8135" style="fill:none;stroke:black;stroke-width:1.50539;stroke-linecap:round;stroke-linejoin:round;stroke-dasharray:none" id="path152-4-1-3-4" /></g></g><path fill="none" stroke="black" stroke-width="2" stroke-linecap="round" stroke-miterlimit="10" d="m 93.353035,220.02162 v 2.51546 c 0,0.69175 0.56598,1.25773 1.25773,1.25773 h 6.288655 c 0.69175,0 1.25773,-0.56598 1.25773,-1.25773 v -2.51546 z" id="path1-3-2-1-7-2" style="fill:none;fill-opacity:0.3;stroke-width:1.125;stroke-dasharray:none" /><path fill="none" stroke="black" stroke-width="2" stroke-linejoin="round" stroke-miterlimit="10" d="m 102.15714,220.02162 c 0,-0.62887 0,-2.52867 0,-3.77319 0,-3.38644 4.40206,-3.50152 4.40206,-9.43298 0,-4.86301 -3.94173,-8.80411 -8.804105,-8.80411 -4.86238,0 -8.80411,3.9411 -8.80411,8.80411 0,6.05786 4.40205,6.72383 4.40205,9.43298 0,0.82067 0,3.77319 0,3.77319" id="path2-2-7-1-4-7" style="fill:none;fill-opacity:0.2;stroke-width:1.125;stroke-dasharray:none" /><path fill="none" stroke="black" stroke-width="2" stroke-linecap="round" stroke-miterlimit="10" d="m 99.641685,223.79481 c 0,1.0414 -0.84519,1.88659 -1.88659,1.88659 -1.0414,0 -1.8866,-0.84519 -1.8866,-1.88659" id="path3-2-9-5-2-7" style="fill:none;fill-opacity:0.3;stroke-width:1.125;stroke-dasharray:none" /><line fill="none" stroke="black" stroke-width="2" stroke-miterlimit="10" x1="97.755096" y1="209.95978" x2="97.755096" y2="218.13503" id="line3-5-2-7-9" style="fill:none;fill-opacity:0.3;stroke-width:1.125;stroke-dasharray:none" /><polyline fill="none" stroke="black" stroke-width="2" stroke-linecap="round" stroke-miterlimit="10" points="21,19 25,23 29,19 " id="polyline3-4-7-7-3" style="fill:none;fill-opacity:0.3;stroke-width:1.78894;stroke-dasharray:none" transform="matrix(0.62886495,0,0,0.62886495,82.033465,195.49588)" /><g id="g7-0-9-4-3-1" style="stroke-width:1.50539;stroke-dasharray:none" transform="matrix(0.7473144,0,0,0.7473144,-143.50875,185.96784)"><g id="g6-6-4-2-1-9" style="stroke-width:1.50539;stroke-dasharray:none"><path d="m 359.9088,33.5848 -3.8512,2.8875" style="fill:none;stroke:black;stroke-width:1.50539;stroke-linecap:round;stroke-linejoin:round;stroke-dasharray:none" id="path148-1-8-3-9-8" /><path d="m 356.0577,18.4873 3.8512,2.8875" style="fill:none;stroke:black;stroke-width:1.50539;stroke-linecap:round;stroke-linejoin:round;stroke-dasharray:none" id="path149-3-8-2-8-6" /><path d="m 353.8953,27.4795 h 4.8135" style="fill:none;stroke:black;stroke-width:1.50539;stroke-linecap:round;stroke-linejoin:round;stroke-dasharray:none" id="path151-8-2-2-6-5" /></g><g id="g5-9-4-1-5-0" style="stroke-width:1.50539;stroke-dasharray:none"><path d="m 389.4367,33.5848 3.8512,2.8875" style="fill:none;stroke:black;stroke-width:1.50539;stroke-linecap:round;stroke-linejoin:round;stroke-dasharray:none" id="path147-3-5-6-0-2" /><path d="m 393.2878,18.4873 -3.8512,2.8875" style="fill:none;stroke:black;stroke-width:1.50539;stroke-linecap:round;stroke-linejoin:round;stroke-dasharray:none" id="path150-4-5-8-2-8" /><path d="m 390.637,27.4795 h 4.8135" style="fill:none;stroke:black;stroke-width:1.50539;stroke-linecap:round;stroke-linejoin:round;stroke-dasharray:none" id="path152-4-1-5-8-6" /></g></g><path fill="none" stroke="black" stroke-width="2" stroke-linecap="round" stroke-miterlimit="10" d="m 132.08764,220.02162 v 2.51546 c 0,0.69175 0.56598,1.25773 1.25774,1.25773 h 6.28864 c 0.69176,0 1.25774,-0.56598 1.25774,-1.25773 v -2.51546 z" id="path1-3-2-1-6-0-0" style="fill:none;fill-opacity:0.3;stroke-width:1.125;stroke-dasharray:none" /><path fill="none" stroke="black" stroke-width="2" stroke-linejoin="round" stroke-miterlimit="10" d="m 140.89175,220.02162 c 0,-0.62887 0,-2.52867 0,-3.77319 0,-3.38644 4.40205,-3.50152 4.40205,-9.43298 0,-4.86301 -3.94172,-8.80411 -8.8041,-8.80411 -4.86238,0 -8.80411,3.9411 -8.80411,8.80411 0,6.05786 4.40205,6.72383 4.40205,9.43298 0,0.82067 0,3.77319 0,3.77319" id="path2-2-7-1-1-2-2" style="fill:none;fill-opacity:0.2;stroke-width:1.125;stroke-dasharray:none" /><path fill="none" stroke="black" stroke-width="2" stroke-linecap="round" stroke-miterlimit="10" d="m 138.37629,223.79481 c 0,1.0414 -0.84519,1.88659 -1.88659,1.88659 -1.0414,0 -1.8866,-0.84519 -1.8866,-1.88659" id="path3-2-9-5-8-4-4" style="fill:none;fill-opacity:0.3;stroke-width:1.125;stroke-dasharray:none" /><line fill="none" stroke="black" stroke-width="2" stroke-miterlimit="10" x1="136.4897" y1="209.95978" x2="136.4897" y2="218.13503" id="line3-5-2-9-8-8" style="fill:none;fill-opacity:0.3;stroke-width:1.125;stroke-dasharray:none" /><polyline fill="none" stroke="black" stroke-width="2" stroke-linecap="round" stroke-miterlimit="10" points="21,19 25,23 29,19 " id="polyline3-4-7-2-6-6" style="fill:none;fill-opacity:0.3;stroke-width:1.78894;stroke-dasharray:none" transform="matrix(0.62886495,0,0,0.62886495,120.76808,195.49588)" /></g></g></svg>
