<?xml version="1.0" encoding="UTF-8" standalone="no"?>
<svg version="1.1" width="26.458326mm" height="26.458332mm" viewBox="0 0 75.000128 75.000088" id="svg165" xml:space="preserve" xmlns="http://www.w3.org/2000/svg" xmlns:svg="http://www.w3.org/2000/svg"><defs id="defs165" /><g id="layer3" style="display:inline;opacity:0;fill:maroon;fill-opacity:0.225" transform="translate(0,-1338.7521)"><path d="m 0,1338.7522 v 75.0001 h 75.0001 v -75.0001 z" style="display:inline;fill:maroon;fill-opacity:0.225;stroke:none;stroke-width:0.753376;stroke-linecap:round;stroke-linejoin:round;stroke-dasharray:none;stroke-opacity:1" id="path154-9-76-5-19" /></g><g id="layer1" transform="translate(0,-1338.7521)"><g id="g17" transform="translate(3.687093,-7.18875)"><path fill="none" stroke="currentColor" stroke-width="2" stroke-linecap="round" stroke-miterlimit="10" d="m 25.047732,1399.7193 v 5.0087 c 0,1.3774 1.12696,2.5043 2.50435,2.5043 h 12.52176 c 1.37739,0 2.50435,-1.1269 2.50435,-2.5043 v -5.0087 z" id="path1-3-3" style="stroke-width:2.25;stroke-dasharray:none" /><path fill="none" stroke="currentColor" stroke-width="2" stroke-linejoin="round" stroke-miterlimit="10" d="m 42.578192,1399.7193 c 0,-1.2522 0,-5.035 0,-7.5131 0,-6.743 8.76523,-6.9721 8.76523,-18.7826 0,-9.6831 -7.84864,-17.5305 -17.53046,-17.5305 -9.68183,0 -17.53047,7.8474 -17.53047,17.5305 0,12.0622 8.76524,13.3882 8.76524,18.7826 0,1.6341 0,7.5131 0,7.5131" id="path2-2-51" style="stroke-width:2.25;stroke-dasharray:none" /><path fill="none" stroke="currentColor" stroke-width="2" stroke-linecap="round" stroke-miterlimit="10" d="m 37.569492,1407.2323 c 0,2.0736 -1.68293,3.7566 -3.75653,3.7566 -2.07361,0 -3.75653,-1.683 -3.75653,-3.7566" id="path3-2" style="stroke-width:2.25;stroke-dasharray:none" /><line fill="none" stroke="currentColor" stroke-width="2" stroke-miterlimit="10" x1="33.81295" y1="1379.6844" x2="33.81295" y2="1395.9628" id="line3" style="stroke-width:2.25;stroke-dasharray:none" /><polyline fill="none" stroke="currentColor" stroke-width="2" stroke-linecap="round" stroke-miterlimit="10" points="21,19 25,23 29,19 " id="polyline3" style="stroke-width:1.79687;stroke-dasharray:none" transform="matrix(1.252176,0,0,1.252176,2.5085615,1350.8844)" /></g></g><style type="text/css" id="style1">.st0{fill:none;stroke:currentColor;stroke-width:2;stroke-miterlimit:10;}.st1{fill:none;stroke:currentColor;stroke-width:2;stroke-linecap:round;stroke-miterlimit:10;}.st2{fill:none;stroke:currentColor;stroke-width:2;stroke-linecap:round;stroke-linejoin:round;stroke-miterlimit:10;}.st3{fill:none;stroke:currentColor;stroke-linecap:round;stroke-miterlimit:10;}.st4{fill:none;stroke:currentColor;stroke-width:3;stroke-linecap:round;stroke-miterlimit:10;}.st5{fill:#FFFFFF;}.st6{stroke:currentColor;stroke-width:2;stroke-miterlimit:10;}.st7{fill:none;stroke:currentColor;stroke-width:2;stroke-linejoin:round;stroke-miterlimit:10;}.st8{fill:none;}.st9{fill:none;stroke:currentColor;stroke-width:0;stroke-linecap:round;stroke-linejoin:round;}</style><style type="text/css" id="style1-5">.st0{fill:none;stroke:currentColor;stroke-width:2;stroke-miterlimit:10;}.st1{fill:none;stroke:currentColor;stroke-width:2;stroke-linecap:round;stroke-miterlimit:10;}.st2{fill:none;stroke:currentColor;stroke-width:2;stroke-linecap:round;stroke-linejoin:round;stroke-miterlimit:10;}.st3{fill:none;stroke:currentColor;stroke-linecap:round;stroke-miterlimit:10;}.st4{fill:none;stroke:currentColor;stroke-width:3;stroke-linecap:round;stroke-miterlimit:10;}.st5{fill:#FFFFFF;}.st6{stroke:currentColor;stroke-width:2;stroke-miterlimit:10;}.st7{fill:none;stroke:currentColor;stroke-width:2;stroke-linejoin:round;stroke-miterlimit:10;}.st8{fill:none;}.st9{fill:none;stroke:currentColor;stroke-width:0;stroke-linecap:round;stroke-linejoin:round;}</style></svg>
