<?xml version="1.0" encoding="UTF-8" standalone="no"?>
<svg version="1.1" width="1.0416666in" height="1.0416667in" viewBox="0 0 75.000147 75.000097" id="svg165" xml:space="preserve" xmlns="http://www.w3.org/2000/svg" xmlns:svg="http://www.w3.org/2000/svg"><defs id="defs165" /><g id="g70" style="display:inline;fill:none;stroke:none;stroke-width:0;stroke-dasharray:none" transform="translate(2.158595e-6,-78.750135)"><path d="M -2.1585949e-6,78.750129 V 153.75025 H 75.000119 V 78.750129 Z" style="fill:none;fill-opacity:0;stroke:none;stroke-width:0;stroke-linecap:round;stroke-linejoin:round;stroke-dasharray:none;stroke-opacity:1" id="path5" /></g><g id="layer1" transform="translate(2.158595e-6,-78.750135)"><path fill="none" stroke="black" stroke-width="2" stroke-linecap="round" stroke-miterlimit="10" d="m 28.734826,132.52848 v 5.0087 c 0,1.37739 1.126959,2.50435 2.504352,2.50435 h 12.52176 c 1.377394,0 2.504352,-1.12696 2.504352,-2.50435 v -5.0087 z" id="path1-3" style="stroke-width:2.25;stroke-dasharray:none" /><path fill="none" stroke="black" stroke-width="2" stroke-linejoin="round" stroke-miterlimit="10" d="m 46.26529,132.52848 c 0,-1.25218 0,-5.035 0,-7.51306 0,-6.74297 8.765232,-6.97211 8.765232,-18.78264 0,-9.683076 -7.848639,-17.530463 -17.530464,-17.530463 -9.681824,0 -17.530464,7.847387 -17.530464,17.530463 0,12.06221 8.765232,13.38827 8.765232,18.78264 0,1.63409 0,7.51306 0,7.51306" id="path2-2" style="stroke-width:2.25;stroke-dasharray:none" /><path fill="none" stroke="black" stroke-width="2" stroke-linecap="round" stroke-miterlimit="10" d="m 41.256586,140.04153 c 0,2.07361 -1.682924,3.75653 -3.756528,3.75653 -2.073603,0 -3.756528,-1.68292 -3.756528,-3.75653" id="path3-2" style="stroke-width:2.25;stroke-dasharray:none" /><line fill="none" stroke="black" stroke-width="2" stroke-miterlimit="10" x1="37.500057" y1="112.49366" x2="37.500057" y2="128.77194" id="line3" style="stroke-width:2.25;stroke-dasharray:none" /><polyline fill="none" stroke="black" stroke-width="2" stroke-linecap="round" stroke-miterlimit="10" points="21,19 25,23 29,19 " id="polyline3" style="stroke-width:1.79687;stroke-dasharray:none" transform="matrix(1.252176,0,0,1.252176,6.1956584,83.693613)" /></g></svg>
