<?xml version="1.0" encoding="UTF-8" standalone="no"?>
<svg version="1.1" width="1.0416665in" height="1.0416667in" viewBox="0 0 75.000138 75.000097" id="svg165" xml:space="preserve" xmlns="http://www.w3.org/2000/svg" xmlns:svg="http://www.w3.org/2000/svg"><defs id="defs165" /><g id="g70" style="display:inline;fill:none;stroke:none;stroke-width:0;stroke-dasharray:none" transform="translate(-2.9165822e-6,-157.50027)"><path d="m 2.9165822e-6,157.50026 v 75.00012 H 75.000119 v -75.00012 z" style="fill:none;fill-opacity:0;stroke:none;stroke-width:0;stroke-linecap:round;stroke-linejoin:round;stroke-dasharray:none;stroke-opacity:1" id="path14" /></g><g id="layer1" transform="translate(-2.9165822e-6,-157.50027)"><path fill="none" stroke="black" stroke-width="2" stroke-linecap="round" stroke-miterlimit="10" d="m 13.730703,186.32952 v 2.51546 c 0,0.69175 0.56597,1.25773 1.25772,1.25773 h 6.28865 c 0.69175,0 1.25773,-0.56598 1.25773,-1.25773 v -2.51546 z" id="path1-3-2-1-4" style="fill:none;fill-opacity:0.3;stroke-width:1.125;stroke-dasharray:none" /><path fill="none" stroke="black" stroke-width="2" stroke-linejoin="round" stroke-miterlimit="10" d="m 22.534803,186.32952 c 0,-0.62887 0,-2.52867 0,-3.77319 0,-3.38644 4.40206,-3.50152 4.40206,-9.43298 0,-4.86301 -3.94173,-8.80411 -8.80411,-8.80411 -4.86238,0 -8.8041104,3.9411 -8.8041104,8.80411 0,6.05786 4.4020604,6.72383 4.4020604,9.43298 0,0.82067 0,3.77319 0,3.77319" id="path2-2-7-1-6" style="fill:none;fill-opacity:0.2;stroke-width:1.125;stroke-dasharray:none" /><path fill="none" stroke="black" stroke-width="2" stroke-linecap="round" stroke-miterlimit="10" d="m 20.019353,190.10271 c 0,1.0414 -0.8452,1.88659 -1.8866,1.88659 -1.0414,0 -1.8866,-0.84519 -1.8866,-1.88659" id="path3-2-9-5-0" style="fill:none;fill-opacity:0.3;stroke-width:1.125;stroke-dasharray:none" /><line fill="none" stroke="black" stroke-width="2" stroke-miterlimit="10" x1="18.132753" y1="176.26767" x2="18.132753" y2="184.44292" id="line3-5-2-6" style="fill:none;fill-opacity:0.3;stroke-width:1.125;stroke-dasharray:none" /><polyline fill="none" stroke="black" stroke-width="2" stroke-linecap="round" stroke-miterlimit="10" points="21,19 25,23 29,19 " id="polyline3-4-7-6" style="fill:none;fill-opacity:0.3;stroke-width:1.78894;stroke-dasharray:none" transform="matrix(0.62886495,0,0,0.62886495,2.4111326,161.80378)" /><path fill="none" stroke="black" stroke-width="2" stroke-linecap="round" stroke-miterlimit="10" d="m 52.465303,186.32952 v 2.51546 c 0,0.69175 0.56598,1.25773 1.25773,1.25773 h 6.28865 c 0.69175,0 1.25773,-0.56598 1.25773,-1.25773 v -2.51546 z" id="path1-3-2-1-6-3" style="fill:none;fill-opacity:1;stroke-width:1.125;stroke-dasharray:none" /><path fill="none" stroke="black" stroke-width="2" stroke-linejoin="round" stroke-miterlimit="10" d="m 61.269413,186.32952 c 0,-0.62887 0,-2.52867 0,-3.77319 0,-3.38644 4.40205,-3.50152 4.40205,-9.43298 0,-4.86301 -3.94172,-8.80411 -8.8041,-8.80411 -4.86238,0 -8.80411,3.9411 -8.80411,8.80411 0,6.05786 4.40205,6.72383 4.40205,9.43298 0,0.82067 0,3.77319 0,3.77319" id="path2-2-7-1-1-5" style="fill:none;fill-opacity:0.2;stroke-width:1.125;stroke-dasharray:none" /><path fill="none" stroke="black" stroke-width="2" stroke-linecap="round" stroke-miterlimit="10" d="m 58.753953,190.10271 c 0,1.0414 -0.84519,1.88659 -1.88659,1.88659 -1.0414,0 -1.8866,-0.84519 -1.8866,-1.88659" id="path3-2-9-5-8-9" style="fill:none;fill-opacity:1;stroke-width:1.125;stroke-dasharray:none" /><line fill="none" stroke="black" stroke-width="2" stroke-miterlimit="10" x1="56.867359" y1="176.26767" x2="56.867359" y2="184.44292" id="line3-5-2-9-84" style="fill:none;fill-opacity:1;stroke-width:1.125;stroke-dasharray:none" /><polyline fill="none" stroke="black" stroke-width="2" stroke-linecap="round" stroke-miterlimit="10" points="21,19 25,23 29,19 " id="polyline3-4-7-2-0" style="fill:none;fill-opacity:1;stroke-width:1.78894;stroke-dasharray:none" transform="matrix(0.62886495,0,0,0.62886495,41.145733,161.80378)" /><path fill="none" stroke="black" stroke-width="2" stroke-linecap="round" stroke-miterlimit="10" d="m 13.730693,220.02162 v 2.51546 c 0,0.69175 0.56598,1.25773 1.25773,1.25773 h 6.28865 c 0.69175,0 1.25773,-0.56598 1.25773,-1.25773 v -2.51546 z" id="path1-3-2-1-7-7" style="fill:none;fill-opacity:0.3;stroke-width:1.125;stroke-dasharray:none" /><path fill="none" stroke="black" stroke-width="2" stroke-linejoin="round" stroke-miterlimit="10" d="m 22.534803,220.02162 c 0,-0.62887 0,-2.52867 0,-3.77319 0,-3.38644 4.40206,-3.50152 4.40206,-9.43298 0,-4.86301 -3.94173,-8.80411 -8.80411,-8.80411 -4.86238,0 -8.8041104,3.9411 -8.8041104,8.80411 0,6.05786 4.4020504,6.72383 4.4020504,9.43298 0,0.82067 0,3.77319 0,3.77319" id="path2-2-7-1-4-3" style="fill:none;fill-opacity:0.2;stroke-width:1.125;stroke-dasharray:none" /><path fill="none" stroke="black" stroke-width="2" stroke-linecap="round" stroke-miterlimit="10" d="m 20.019343,223.79481 c 0,1.0414 -0.84519,1.88659 -1.88659,1.88659 -1.0414,0 -1.8866,-0.84519 -1.8866,-1.88659" id="path3-2-9-5-2-72" style="fill:none;fill-opacity:0.3;stroke-width:1.125;stroke-dasharray:none" /><line fill="none" stroke="black" stroke-width="2" stroke-miterlimit="10" x1="18.132753" y1="209.95978" x2="18.132753" y2="218.13503" id="line3-5-2-7-6" style="fill:none;fill-opacity:0.3;stroke-width:1.125;stroke-dasharray:none" /><polyline fill="none" stroke="black" stroke-width="2" stroke-linecap="round" stroke-miterlimit="10" points="21,19 25,23 29,19 " id="polyline3-4-7-7-0" style="fill:none;fill-opacity:0.3;stroke-width:1.78894;stroke-dasharray:none" transform="matrix(0.62886495,0,0,0.62886495,2.4111226,195.49588)" /><path fill="none" stroke="black" stroke-width="2" stroke-linecap="round" stroke-miterlimit="10" d="m 52.465303,220.02162 v 2.51546 c 0,0.69175 0.56598,1.25773 1.25773,1.25773 h 6.28865 c 0.69175,0 1.25773,-0.56598 1.25773,-1.25773 v -2.51546 z" id="path1-3-2-1-6-0-4" style="fill:none;fill-opacity:0.3;stroke-width:1.125;stroke-dasharray:none" /><path fill="none" stroke="black" stroke-width="2" stroke-linejoin="round" stroke-miterlimit="10" d="m 61.269413,220.02162 c 0,-0.62887 0,-2.52867 0,-3.77319 0,-3.38644 4.40205,-3.50152 4.40205,-9.43298 0,-4.86301 -3.94172,-8.80411 -8.8041,-8.80411 -4.86238,0 -8.80411,3.9411 -8.80411,8.80411 0,6.05786 4.40205,6.72383 4.40205,9.43298 0,0.82067 0,3.77319 0,3.77319" id="path2-2-7-1-1-2-6" style="fill:none;fill-opacity:0.2;stroke-width:1.125;stroke-dasharray:none" /><path fill="none" stroke="black" stroke-width="2" stroke-linecap="round" stroke-miterlimit="10" d="m 58.753953,223.79481 c 0,1.0414 -0.84519,1.88659 -1.88659,1.88659 -1.0414,0 -1.8866,-0.84519 -1.8866,-1.88659" id="path3-2-9-5-8-4-0" style="fill:none;fill-opacity:0.3;stroke-width:1.125;stroke-dasharray:none" /><line fill="none" stroke="black" stroke-width="2" stroke-miterlimit="10" x1="56.867359" y1="209.95978" x2="56.867359" y2="218.13503" id="line3-5-2-9-8-7" style="fill:none;fill-opacity:0.3;stroke-width:1.125;stroke-dasharray:none" /><polyline fill="none" stroke="black" stroke-width="2" stroke-linecap="round" stroke-miterlimit="10" points="21,19 25,23 29,19 " id="polyline3-4-7-2-6-1" style="fill:none;fill-opacity:0.3;stroke-width:1.78894;stroke-dasharray:none" transform="matrix(0.62886495,0,0,0.62886495,41.145733,195.49588)" /></g></svg>
