<?xml version="1.0" encoding="UTF-8" standalone="no"?>
<svg version="1.1" width="1.0416667in" height="1.0416667in" viewBox="0 0 75.000155 75.000097" id="svg165" xml:space="preserve" xmlns="http://www.w3.org/2000/svg" xmlns:svg="http://www.w3.org/2000/svg"><defs id="defs165" /><g id="layer3" style="display:none"><path d="M 0,0 V 75.00012 H 75.00012 V 0 Z" style="fill:red;fill-opacity:0.2;stroke:none;stroke-width:0.753376;stroke-linecap:round;stroke-linejoin:round;stroke-dasharray:none;stroke-opacity:1" id="path154-9" /></g><g id="g83" style="display:inline;fill:none;stroke:none"><path d="M 0,0 V 75.00012 H 75.00012 V 0 Z" style="fill:none;fill-opacity:0;stroke:none;stroke-width:0.753376;stroke-linecap:round;stroke-linejoin:round;stroke-dasharray:none;stroke-opacity:1" id="path15" /></g><g id="layer1"><g id="g16" transform="matrix(1.326318,0,0,1.326318,4.34211,3.967908)" style="display:inline;stroke-width:1.69643;stroke-dasharray:none"><path fill="none" stroke="currentColor" stroke-width="2" stroke-linecap="round" stroke-miterlimit="10" d="M 9,49 C 7.9,49 7,48.1 7,47 V 23 c 0,-1.1 0.9,-2 2,-2 h 32 c 1.1,0 2,0.9 2,2 v 24 c 0,1.1 -0.9,2 -2,2 z" id="path1-9" style="stroke-width:1.69643;stroke-dasharray:none" /><path fill="none" stroke="currentColor" stroke-width="2" stroke-linecap="round" stroke-miterlimit="10" d="m 36,21 c 0,0 0,-4.9 0,-6 C 36,8.9 31.1,4 25,4 18.9,4 14,8.9 14,15 c 0,1.1 0,6 0,6" id="path2-9" style="stroke-width:1.69643;stroke-dasharray:none" /><path d="m 28,33 c 0,-1.7 -1.3,-3 -3,-3 -1.7,0 -3,1.3 -3,3 0,0.9 0.4,1.7 1,2.2 V 38 c 0,1.1 0.9,2 2,2 1.1,0 2,-0.9 2,-2 v -2.8 c 0.6,-0.5 1,-1.3 1,-2.2 z" id="path3" style="stroke-width:1.69643;stroke-dasharray:none" /></g></g></svg>
