<?xml version="1.0" encoding="UTF-8" standalone="no"?>
<svg version="1.1" width="1.0416667in" height="1.0416667in" viewBox="0 0 75.000155 75.000097" id="svg165" xml:space="preserve" xmlns="http://www.w3.org/2000/svg" xmlns:svg="http://www.w3.org/2000/svg"><defs id="defs165" /><g id="layer3" style="display:none" transform="translate(-78.750132)"><path d="M 78.750128,-0.36810968 V 74.63201 H 153.75025 V -0.36810968 Z" style="fill:red;fill-opacity:0.2;stroke:none;stroke-width:0.753376;stroke-linecap:round;stroke-linejoin:round;stroke-dasharray:none;stroke-opacity:1" id="path154-5-7" /></g><g id="g83" style="display:inline;fill:none;stroke:none" transform="translate(-78.750132)"><path d="M 78.750128,0 V 75.00012 H 153.75025 V 0 Z" style="fill:none;fill-opacity:0;stroke:none;stroke-width:0.753376;stroke-linecap:round;stroke-linejoin:round;stroke-dasharray:none;stroke-opacity:1" id="path14" /></g><g id="layer1" transform="translate(-78.750132)"><g id="g17" transform="matrix(1.326318,0,0,1.326318,83.092238,3.967908)" style="display:inline;stroke-width:1.69643;stroke-dasharray:none"><path fill="none" stroke="black" stroke-width="2" stroke-linecap="round" stroke-miterlimit="10" d="M 9,49 C 7.9,49 7,48.1 7,47 V 23 c 0,-1.1 0.9,-2 2,-2 h 32 c 1.1,0 2,0.9 2,2 v 24 c 0,1.1 -0.9,2 -2,2 z" id="path1-7" style="stroke-width:1.69643;stroke-dasharray:none" /><path fill="none" stroke="black" stroke-width="2" stroke-linecap="round" stroke-miterlimit="10" d="m 34.6,13.1 c 0,0 -1.1,-3.6 -1.3,-4.3 C 31.5,3 25.3,-0.3 19.5,1.5 13.7,3.3 10.4,9.5 12.2,15.3 12.6,16.4 14,21 14,21" id="path2-6" style="stroke-width:1.69643;stroke-dasharray:none" /><path d="m 28,33 c 0,-1.7 -1.3,-3 -3,-3 -1.7,0 -3,1.3 -3,3 0,0.9 0.4,1.7 1,2.2 V 38 c 0,1.1 0.9,2 2,2 1.1,0 2,-0.9 2,-2 v -2.8 c 0.6,-0.5 1,-1.3 1,-2.2 z" id="path3-9" style="stroke-width:1.69643;stroke-dasharray:none" /></g></g></svg>
