<?xml version="1.0" encoding="UTF-8" standalone="no"?>
<svg version="1.1" width="1.0416667in" height="1.0416667in" viewBox="0 0 75.000155 75.000097" id="svg165" xml:space="preserve" xmlns="http://www.w3.org/2000/svg" xmlns:svg="http://www.w3.org/2000/svg"><defs id="defs165" /><g id="layer3" style="display:none" transform="translate(-78.750132)"><path d="M 78.750128,-0.36810968 V 74.63201 H 153.75025 V -0.36810968 Z" style="fill:red;fill-opacity:0.2;stroke:none;stroke-width:0.753376;stroke-linecap:round;stroke-linejoin:round;stroke-dasharray:none;stroke-opacity:1" id="path154-5-7" /></g><g id="g83" style="display:inline;fill:none;stroke:none" transform="translate(-78.750132)"><path d="M 78.750128,0 V 75.00012 H 153.75025 V 0 Z" style="fill:none;fill-opacity:0;stroke:none;stroke-width:0.753376;stroke-linecap:round;stroke-linejoin:round;stroke-dasharray:none;stroke-opacity:1" id="path14" /></g><g id="layer1" transform="translate(-78.750132)"><path fill="none" stroke="currentColor" stroke-width="2" stroke-linecap="round" stroke-miterlimit="10" d="m 95.0291,68.95749 c -1.45895,0 -2.652636,-1.193686 -2.652636,-2.652636 V 34.473222 c 0,-1.45895 1.193686,-2.652636 2.652636,-2.652636 h 42.44218 c 1.45895,0 2.65263,1.193686 2.65263,2.652636 v 31.831632 c 0,1.45895 -1.19368,2.652636 -2.65263,2.652636 z" id="path1-7" style="stroke-width:2.25001;stroke-dasharray:none" /><path fill="none" stroke="currentColor" stroke-width="2" stroke-linecap="round" stroke-miterlimit="10" d="m 128.98284,21.342674 c 0,0 -1.45895,-4.774745 -1.72421,-5.703168 -2.38738,-7.692644 -10.61055,-12.0694934 -18.30319,-9.682121 -7.69265,2.3873724 -12.069495,10.610544 -9.682122,18.303188 0.530527,1.45895 2.387372,7.560013 2.387372,7.560013" id="path2-6" style="stroke-width:2.25001;stroke-dasharray:none" /><path d="m 120.22914,47.736402 c 0,-2.254741 -1.72421,-3.978954 -3.97895,-3.978954 -2.25474,0 -3.97896,1.724213 -3.97896,3.978954 0,1.193686 0.53053,2.254741 1.32632,2.9179 v 3.71369 c 0,1.45895 1.19369,2.652636 2.65264,2.652636 1.45895,0 2.65263,-1.193686 2.65263,-2.652636 v -3.71369 c 0.79579,-0.663159 1.32632,-1.724214 1.32632,-2.9179 z" id="path3-9" style="fill:currentColor;fill-opacity:1;stroke-width:2.25001;stroke-dasharray:none" /></g></svg>
