<?xml version="1.0" encoding="UTF-8" standalone="no"?>
<svg version="1.1" width="26.458334mm" height="26.458332mm" viewBox="0 0 75.00015 75.000088" id="svg165" xml:space="preserve" xmlns="http://www.w3.org/2000/svg" xmlns:svg="http://www.w3.org/2000/svg"><defs id="defs165" /><g id="layer3" style="display:inline;opacity:0;fill:maroon;fill-opacity:0.225" transform="translate(-78.750127)"><path d="M 78.750127,3.9570808e-6 V 75.000124 H 153.75025 V 3.9570808e-6 Z" style="fill:maroon;fill-opacity:0.225;stroke:none;stroke-width:0.753376;stroke-linecap:round;stroke-linejoin:round;stroke-dasharray:none;stroke-opacity:1" id="path154-5-7" /></g><g id="layer1" transform="translate(-78.750127)"><g id="g60"><path fill="none" stroke="currentColor" stroke-width="2" stroke-linecap="round" stroke-miterlimit="10" d="m 95.0291,68.95749 c -1.45895,0 -2.652636,-1.193686 -2.652636,-2.652636 V 34.473222 c 0,-1.45895 1.193686,-2.652636 2.652636,-2.652636 h 42.44218 c 1.45895,0 2.65263,1.193686 2.65263,2.652636 v 31.831632 c 0,1.45895 -1.19368,2.652636 -2.65263,2.652636 z" id="path1-7" style="stroke-width:2.25001;stroke-dasharray:none" /><path fill="none" stroke="currentColor" stroke-width="2" stroke-linecap="round" stroke-miterlimit="10" d="m 128.98284,21.342674 c 0,0 -1.45895,-4.774745 -1.72421,-5.703168 -2.38738,-7.692644 -10.61055,-12.0694934 -18.30319,-9.682121 -7.69265,2.3873724 -12.069495,10.610544 -9.682122,18.303188 0.530527,1.45895 2.387372,7.560013 2.387372,7.560013" id="path2-6" style="stroke-width:2.25001;stroke-dasharray:none" /><path d="m 120.22914,47.736402 c 0,-2.254741 -1.72421,-3.978954 -3.97895,-3.978954 -2.25474,0 -3.97896,1.724213 -3.97896,3.978954 0,1.193686 0.53053,2.254741 1.32632,2.9179 v 3.71369 c 0,1.45895 1.19369,2.652636 2.65264,2.652636 1.45895,0 2.65263,-1.193686 2.65263,-2.652636 v -3.71369 c 0.79579,-0.663159 1.32632,-1.724214 1.32632,-2.9179 z" id="path3-9" style="fill:currentColor;fill-opacity:1;stroke-width:2.25001;stroke-dasharray:none" /></g></g><style type="text/css" id="style1">.st0{fill:none;stroke:currentColor;stroke-width:2;stroke-miterlimit:10;}.st1{fill:none;stroke:currentColor;stroke-width:2;stroke-linecap:round;stroke-miterlimit:10;}.st2{fill:none;stroke:currentColor;stroke-width:2;stroke-linecap:round;stroke-linejoin:round;stroke-miterlimit:10;}.st3{fill:none;stroke:currentColor;stroke-linecap:round;stroke-miterlimit:10;}.st4{fill:none;stroke:currentColor;stroke-width:3;stroke-linecap:round;stroke-miterlimit:10;}.st5{fill:#FFFFFF;}.st6{stroke:currentColor;stroke-width:2;stroke-miterlimit:10;}.st7{fill:none;stroke:currentColor;stroke-width:2;stroke-linejoin:round;stroke-miterlimit:10;}.st8{fill:none;}.st9{fill:none;stroke:currentColor;stroke-width:0;stroke-linecap:round;stroke-linejoin:round;}</style><style type="text/css" id="style1-5">.st0{fill:none;stroke:currentColor;stroke-width:2;stroke-miterlimit:10;}.st1{fill:none;stroke:currentColor;stroke-width:2;stroke-linecap:round;stroke-miterlimit:10;}.st2{fill:none;stroke:currentColor;stroke-width:2;stroke-linecap:round;stroke-linejoin:round;stroke-miterlimit:10;}.st3{fill:none;stroke:currentColor;stroke-linecap:round;stroke-miterlimit:10;}.st4{fill:none;stroke:currentColor;stroke-width:3;stroke-linecap:round;stroke-miterlimit:10;}.st5{fill:#FFFFFF;}.st6{stroke:currentColor;stroke-width:2;stroke-miterlimit:10;}.st7{fill:none;stroke:currentColor;stroke-width:2;stroke-linejoin:round;stroke-miterlimit:10;}.st8{fill:none;}.st9{fill:none;stroke:currentColor;stroke-width:0;stroke-linecap:round;stroke-linejoin:round;}</style></svg>
