<?xml version="1.0" encoding="UTF-8" standalone="no"?>
<svg version="1.1" width="26.458334mm" height="26.458334mm" viewBox="0 0 75.000149 75.000093" id="svg165" xml:space="preserve" xmlns="http://www.w3.org/2000/svg" xmlns:svg="http://www.w3.org/2000/svg"><defs id="defs165" /><g id="layer1" style="opacity:1"><g id="g39"><path d="M 0,0 V 75.00012 H 75.00012 V 0 Z" style="display:inline;opacity:1;fill:#80000000;fill-opacity:0.225;stroke:none;stroke-width:0.753376;stroke-linecap:round;stroke-linejoin:round;stroke-dasharray:none;stroke-opacity:1" id="path154-9" /><g id="g61" style="display:inline;opacity:1"><path fill="none" stroke="black" stroke-width="2" stroke-linecap="round" stroke-miterlimit="10" d="m 16.278972,68.95749 c -1.45895,0 -2.652636,-1.193686 -2.652636,-2.652636 V 34.473222 c 0,-1.45895 1.193686,-2.652636 2.652636,-2.652636 h 42.442176 c 1.45895,0 2.652636,1.193686 2.652636,2.652636 v 31.831632 c 0,1.45895 -1.193686,2.652636 -2.652636,2.652636 z" id="path1-9" style="stroke:currentColor;stroke-width:2.25001;stroke-dasharray:none;stroke-opacity:1" /><path fill="none" stroke="black" stroke-width="2" stroke-linecap="round" stroke-miterlimit="10" d="m 52.089558,31.820586 c 0,0 0,-6.498958 0,-7.957908 0,-8.09054 -6.498958,-14.589498 -14.589498,-14.589498 -8.09054,0 -14.589498,6.498958 -14.589498,14.589498 0,1.45895 0,7.957908 0,7.957908" id="path2-9" style="stroke:currentColor;stroke-width:2.25001;stroke-dasharray:none;stroke-opacity:1" /><path d="m 41.479014,47.736402 c 0,-2.254741 -1.724213,-3.978954 -3.978954,-3.978954 -2.254741,0 -3.978954,1.724213 -3.978954,3.978954 0,1.193686 0.530527,2.254741 1.326318,2.9179 v 3.71369 c 0,1.45895 1.193686,2.652636 2.652636,2.652636 1.45895,0 2.652636,-1.193686 2.652636,-2.652636 v -3.71369 c 0.795791,-0.663159 1.326318,-1.724214 1.326318,-2.9179 z" id="path3" style="fill:currentColor;fill-opacity:1;stroke-width:2.25001;stroke-dasharray:none" /></g></g></g><style type="text/css" id="style1">.st0{fill:none;stroke:#000000;stroke-width:2;stroke-miterlimit:10;}.st1{fill:none;stroke:#000000;stroke-width:2;stroke-linecap:round;stroke-miterlimit:10;}.st2{fill:none;stroke:#000000;stroke-width:2;stroke-linecap:round;stroke-linejoin:round;stroke-miterlimit:10;}.st3{fill:none;stroke:#000000;stroke-linecap:round;stroke-miterlimit:10;}.st4{fill:none;stroke:#000000;stroke-width:3;stroke-linecap:round;stroke-miterlimit:10;}.st5{fill:#FFFFFF;}.st6{stroke:#000000;stroke-width:2;stroke-miterlimit:10;}.st7{fill:none;stroke:#000000;stroke-width:2;stroke-linejoin:round;stroke-miterlimit:10;}.st8{fill:none;}.st9{fill:none;stroke:#000000;stroke-width:0;stroke-linecap:round;stroke-linejoin:round;}</style><style type="text/css" id="style1-5">.st0{fill:none;stroke:#000000;stroke-width:2;stroke-miterlimit:10;}.st1{fill:none;stroke:#000000;stroke-width:2;stroke-linecap:round;stroke-miterlimit:10;}.st2{fill:none;stroke:#000000;stroke-width:2;stroke-linecap:round;stroke-linejoin:round;stroke-miterlimit:10;}.st3{fill:none;stroke:#000000;stroke-linecap:round;stroke-miterlimit:10;}.st4{fill:none;stroke:#000000;stroke-width:3;stroke-linecap:round;stroke-miterlimit:10;}.st5{fill:#FFFFFF;}.st6{stroke:#000000;stroke-width:2;stroke-miterlimit:10;}.st7{fill:none;stroke:#000000;stroke-width:2;stroke-linejoin:round;stroke-miterlimit:10;}.st8{fill:none;}.st9{fill:none;stroke:#000000;stroke-width:0;stroke-linecap:round;stroke-linejoin:round;}</style></svg>
