<?xml version="1.0" encoding="UTF-8" standalone="no"?>
<svg version="1.1" width="1.0416667in" height="1.0416667in" viewBox="0 0 75.000155 75.000097" id="svg165" xml:space="preserve" xmlns="http://www.w3.org/2000/svg" xmlns:svg="http://www.w3.org/2000/svg"><defs id="defs165" /><g id="layer3" style="display:none" transform="translate(-236.25039)"><path d="M 236.25039,0 V 75.00012 H 311.2505 V 0 Z" style="fill:red;fill-opacity:0.2;stroke:none;stroke-width:0.753376;stroke-linecap:round;stroke-linejoin:round;stroke-dasharray:none;stroke-opacity:1" id="path154-9-5" /></g><g id="g83" style="display:inline;fill:none;stroke:none" transform="translate(-236.25039)"><path d="M 236.25039,0 V 75.00012 H 311.2505 V 0 Z" style="fill:none;fill-opacity:0;stroke:none;stroke-width:0.753376;stroke-linecap:round;stroke-linejoin:round;stroke-dasharray:none;stroke-opacity:1" id="path21" /></g><g id="layer1" transform="translate(-236.25039)"><g id="g19" transform="matrix(1.3953628,0,0,1.3953628,238.77473,2.711898)" style="display:inline;stroke-width:1.61249;stroke-dasharray:none"><path fill="none" stroke="black" stroke-width="1.9017" stroke-miterlimit="10" d="M 41.6,17.502 C 41.025,18.074 33.994,17.436 33.256,16.701 32.522,15.965 31.874,9.14 32.608,8.403 33.343,7.669 39.264,1.75 39.264,1.75 c 0,0 0.705,-0.79 -0.312,-0.793 C 35.677,0.945 29.019,1.019 25.795,4.246 L 25.13,4.908 c -4.202,4.229 -4.088,10.825 0.042,14.977 l 5.003,5.002 c 4.135,4.149 10.712,4.268 14.93,0.043 l 0.661,-0.662 c 3.125,-3.123 3.221,-9.725 3.234,-13.059 0.009,-1.063 -0.769,-0.377 -0.769,-0.377 0,0 -6.059,6.095 -6.631,6.67 z" id="path1-5" style="stroke-width:1.61249;stroke-dasharray:none" /><path fill="none" stroke="black" stroke-width="1.7989" stroke-miterlimit="10" d="M 24.293,18.508 3.008,37.98 c -1.498,1.5 -3.472,5.578 0,9.051 3.473,3.473 7.551,1.498 9.047,0 0,0 18.81,-21.347 19.315,-21.105" id="path2-76" style="stroke-width:1.61249;stroke-dasharray:none" /></g></g></svg>
