<?xml version="1.0" encoding="UTF-8" standalone="no"?>
<svg version="1.1" width="26.458338mm" height="26.458336mm" viewBox="0 0 75.00016 75.000098" id="svg165" xml:space="preserve" xmlns="http://www.w3.org/2000/svg" xmlns:svg="http://www.w3.org/2000/svg"><defs id="defs165" /><g id="layer1" style="opacity:1" transform="translate(-157.50025)"><g id="g83"><path d="m 157.50025,0 v 75.000125 h 75.00013 V 0 Z" style="display:inline;opacity:1;fill:#80000000;fill-opacity:0.225;stroke:none;stroke-width:0.753376;stroke-linecap:round;stroke-linejoin:round;stroke-dasharray:none;stroke-opacity:1" id="path154-5-7-9" /><g id="g18" transform="matrix(1.5000024,0,0,1.5000024,157.50025,2.5e-6)" style="display:inline;opacity:1;stroke:currentColor;stroke-width:1.5;stroke-dasharray:none;stroke-opacity:1"><path style="fill:none;stroke:currentColor;stroke-width:1.5;stroke-linecap:round;stroke-linejoin:round;stroke-miterlimit:10;stroke-dasharray:none;stroke-opacity:1" d="m 46.999,27.708 v -5.5 l -6.546,-1.07 c -0.388,-1.55 -0.996,-3.007 -1.798,-4.342 L 42.47,11.359 38.58,7.472 33.212,11.331 C 31.874,10.521 30.407,9.903 28.846,9.514 L 27.706,3 h -5.5 l -1.06,6.492 c -1.562,0.383 -3.037,0.993 -4.379,1.799 l -5.352,-3.824 -3.889,3.887 3.765,5.384 c -0.814,1.347 -1.433,2.82 -1.826,4.392 l -6.464,1.076 v 5.5 l 6.457,1.145 c 0.39,1.568 1.009,3.041 1.826,4.391 l -3.816,5.337 3.887,3.891 5.391,-3.776 c 1.346,0.808 2.817,1.423 4.379,1.808 L 22.206,47 h 5.5 l 1.156,-6.513 c 1.554,-0.394 3.022,-1.013 4.355,-1.824 l 5.428,3.809 3.888,-3.891 -3.875,-5.38 c 0.802,-1.335 1.411,-2.794 1.795,-4.344 z" id="path1-3" /><circle style="fill:none;stroke:currentColor;stroke-width:1.5;stroke-linecap:round;stroke-linejoin:round;stroke-miterlimit:10;stroke-dasharray:none;stroke-opacity:1" cx="25" cy="25" r="7" id="circle1" /></g></g></g><style type="text/css" id="style1">.st0{fill:none;stroke:#000000;stroke-width:2;stroke-miterlimit:10;}.st1{fill:none;stroke:#000000;stroke-width:2;stroke-linecap:round;stroke-miterlimit:10;}.st2{fill:none;stroke:#000000;stroke-width:2;stroke-linecap:round;stroke-linejoin:round;stroke-miterlimit:10;}.st3{fill:none;stroke:#000000;stroke-linecap:round;stroke-miterlimit:10;}.st4{fill:none;stroke:#000000;stroke-width:3;stroke-linecap:round;stroke-miterlimit:10;}.st5{fill:#FFFFFF;}.st6{stroke:#000000;stroke-width:2;stroke-miterlimit:10;}.st7{fill:none;stroke:#000000;stroke-width:2;stroke-linejoin:round;stroke-miterlimit:10;}.st8{fill:none;}.st9{fill:none;stroke:#000000;stroke-width:0;stroke-linecap:round;stroke-linejoin:round;}</style><style type="text/css" id="style1-5">.st0{fill:none;stroke:#000000;stroke-width:2;stroke-miterlimit:10;}.st1{fill:none;stroke:#000000;stroke-width:2;stroke-linecap:round;stroke-miterlimit:10;}.st2{fill:none;stroke:#000000;stroke-width:2;stroke-linecap:round;stroke-linejoin:round;stroke-miterlimit:10;}.st3{fill:none;stroke:#000000;stroke-linecap:round;stroke-miterlimit:10;}.st4{fill:none;stroke:#000000;stroke-width:3;stroke-linecap:round;stroke-miterlimit:10;}.st5{fill:#FFFFFF;}.st6{stroke:#000000;stroke-width:2;stroke-miterlimit:10;}.st7{fill:none;stroke:#000000;stroke-width:2;stroke-linejoin:round;stroke-miterlimit:10;}.st8{fill:none;}.st9{fill:none;stroke:#000000;stroke-width:0;stroke-linecap:round;stroke-linejoin:round;}</style></svg>
