<?xml version="1.0" encoding="UTF-8" standalone="no"?>
<svg version="1.1" width="26.458334mm" height="26.458332mm" viewBox="0 0 75.00015 75.000088" id="svg165" xml:space="preserve" xmlns="http://www.w3.org/2000/svg" xmlns:svg="http://www.w3.org/2000/svg"><defs id="defs165" /><g id="layer3" style="display:inline;opacity:0;fill:maroon;fill-opacity:0.225" transform="translate(0,-1023.7517)"><path d="m 0,1023.7518 v 75.0001 h 75.000122 v -75.0001 z" style="display:inline;fill:maroon;fill-opacity:0.225;stroke:none;stroke-width:0.753376;stroke-linecap:round;stroke-linejoin:round;stroke-dasharray:none;stroke-opacity:1" id="path154-9-76-3-0" /></g><g id="layer1" transform="translate(0,-1023.7517)"><g id="g70"><path d="m 54.819991,1064.7148 a 14.3081,14.307056 0 0 1 14.3082,14.307 14.3081,14.307056 0 1 1 -14.3082,-14.307 z" style="display:inline;fill:none;stroke:currentColor;stroke-width:2.25;stroke-linecap:butt;stroke-linejoin:miter;stroke-dasharray:none;stroke-opacity:1" id="path23-99-3-2-65-1" /><g id="g15" style="display:inline;stroke:currentColor;stroke-width:2.25;stroke-dasharray:none;stroke-opacity:1" transform="translate(-0.40165994,550.87613)"><path d="m 65.432953,498.98171 0.0015,19.14488" style="fill:none;stroke:currentColor;stroke-width:2.25;stroke-linecap:round;stroke-linejoin:round;stroke-dasharray:none;stroke-opacity:1" id="path21-5-4-9-9-9" /><path d="m 9.4223077,499.19035 0.071832,37.80571 34.4616133,-0.0291" style="fill:none;stroke:currentColor;stroke-width:2.25;stroke-linecap:round;stroke-linejoin:round;stroke-dasharray:none;stroke-opacity:1" id="path22-5-3-0-2-7" /><path d="M 5.4703228,502.2337 37.548942,477.53149 69.516384,502.12223" style="fill:none;stroke:currentColor;stroke-width:2.25;stroke-linecap:round;stroke-linejoin:round;stroke-dasharray:none;stroke-opacity:1" id="path24-3-8-7-4-6" /></g><path style="display:inline;fill:currentColor;fill-opacity:1;fill-rule:nonzero;stroke:none;stroke-width:0.0577216" d="m 47.901491,1083.3163 1.9583,-2.6089 c 0.1308,-0.1746 0.1526,-0.4104 0.054,-0.6069 -0.098,-0.1943 -0.2966,-0.3188 -0.5169,-0.3188 h -0.7131 l 2.1546,-2.8708 c 0.133,-0.1746 0.1527,-0.4083 0.054,-0.6047 -0.098,-0.1965 -0.2966,-0.3188 -0.5146,-0.3188 h -0.519 l 2.2243,-2.9625 2.2222,2.9625 h -0.5169 c -0.2202,0 -0.4187,0.1223 -0.5168,0.3188 -0.098,0.1964 -0.076,0.4301 0.055,0.6047 l 2.1524,2.8708 h -0.7131 c -0.2181,0 -0.4187,0.1245 -0.5147,0.3188 -0.098,0.1965 -0.076,0.4323 0.055,0.6069 l 1.9583,2.6089 z m 8.0207,-2.3775 h 0.7131 c 0.2181,0 0.4187,-0.1244 0.5168,-0.3209 0.098,-0.1943 0.076,-0.4301 -0.054,-0.6047 l -2.1546,-2.8709 h 0.5169 c 0.2202,0 0.4187,-0.1244 0.5168,-0.3187 0.098,-0.1965 0.076,-0.4323 -0.055,-0.607 l -3.378,-4.5016 c -0.109,-0.1441 -0.2791,-0.2293 -0.4601,-0.2293 -0.1832,0 -0.3533,0.085 -0.4623,0.2293 l -3.378,4.5016 c -0.1308,0.1747 -0.1504,0.4105 -0.055,0.607 0.098,0.1943 0.2966,0.3187 0.5168,0.3187 h 0.5169 l -2.1524,2.8709 c -0.1309,0.1746 -0.1548,0.4104 -0.057,0.6047 0.098,0.1965 0.2988,0.3209 0.5168,0.3209 h 0.7131 l -1.9583,2.6089 c -0.1308,0.1747 -0.1526,0.4083 -0.055,0.6048 0.098,0.1964 0.2966,0.3187 0.5169,0.3187 h 4.7583 v 4.1873 c 0,0.3187 0.2573,0.5785 0.5779,0.5785 0.3184,0 0.5757,-0.2598 0.5757,-0.5785 v -4.1873 h 4.7606 c 0.218,0 0.4187,-0.1223 0.5146,-0.3187 0.098,-0.1965 0.076,-0.4301 -0.055,-0.6048 z m 5.7004,1.5654 c 1.1165,-1.3667 1.8275,-3.5717 1.8275,-6.1064 0,-4.2462 -1.9954,-7.5712 -4.5425,-7.5712 -1.738,0 -3.2929,1.5828 -4.0583,4.1306 -0.094,0.3056 0.078,0.6287 0.386,0.7204 0.3031,0.092 0.6258,-0.081 0.7174,-0.3864 0.6041,-2.0107 1.7642,-3.3097 2.9549,-3.3097 1.8362,0 3.3889,2.9386 3.3889,6.4163 0,2.3753 -0.724,4.4974 -1.7686,5.6042 -0.01,0.01 -0.018,0.017 -0.024,0.028 -0.3162,0.3275 -0.6586,0.5611 -1.0206,0.6834 v -2.4037 l 1.0686,-0.4257 c 0.1984,-0.079 0.2944,-0.3035 0.2159,-0.5 -0.079,-0.1986 -0.301,-0.2947 -0.4994,-0.2161 l -0.7851,0.3122 v -1.2291 l 1.1275,-0.679 c 0.181,-0.1092 0.2398,-0.3471 0.1286,-0.5283 -0.109,-0.1834 -0.3445,-0.2402 -0.5277,-0.131 l -0.7284,0.4388 v -1.8426 c 0,-0.3187 -0.2595,-0.5763 -0.5757,-0.5763 -0.3206,0 -0.5779,0.2576 -0.5779,0.5763 v 1.1986 l -0.5343,-0.2314 c -0.1962,-0.085 -0.4209,0.01 -0.5037,0.2008 -0.085,0.1965 0,0.4214 0.1984,0.5065 l 0.8396,0.3624 v 1.3339 l -0.3664,-0.1572 c -0.1962,-0.085 -0.423,0.01 -0.5059,0.2031 -0.083,0.1943 0.01,0.4213 0.2028,0.5043 l 0.6695,0.2882 v 8.94 c 0,0.3188 0.2573,0.5786 0.5779,0.5786 0.3162,0 0.5757,-0.2598 0.5757,-0.5786 v -4.7505 c 0.4471,-0.089 0.8723,-0.2839 1.2648,-0.5677 0.349,-0.275 0.6019,-0.537 0.8745,-0.8361 z" id="path1-1" /></g></g><style type="text/css" id="style1">.st0{fill:none;stroke:currentColor;stroke-width:2;stroke-miterlimit:10;}.st1{fill:none;stroke:currentColor;stroke-width:2;stroke-linecap:round;stroke-miterlimit:10;}.st2{fill:none;stroke:currentColor;stroke-width:2;stroke-linecap:round;stroke-linejoin:round;stroke-miterlimit:10;}.st3{fill:none;stroke:currentColor;stroke-linecap:round;stroke-miterlimit:10;}.st4{fill:none;stroke:currentColor;stroke-width:3;stroke-linecap:round;stroke-miterlimit:10;}.st5{fill:#FFFFFF;}.st6{stroke:currentColor;stroke-width:2;stroke-miterlimit:10;}.st7{fill:none;stroke:currentColor;stroke-width:2;stroke-linejoin:round;stroke-miterlimit:10;}.st8{fill:none;}.st9{fill:none;stroke:currentColor;stroke-width:0;stroke-linecap:round;stroke-linejoin:round;}</style><style type="text/css" id="style1-5">.st0{fill:none;stroke:currentColor;stroke-width:2;stroke-miterlimit:10;}.st1{fill:none;stroke:currentColor;stroke-width:2;stroke-linecap:round;stroke-miterlimit:10;}.st2{fill:none;stroke:currentColor;stroke-width:2;stroke-linecap:round;stroke-linejoin:round;stroke-miterlimit:10;}.st3{fill:none;stroke:currentColor;stroke-linecap:round;stroke-miterlimit:10;}.st4{fill:none;stroke:currentColor;stroke-width:3;stroke-linecap:round;stroke-miterlimit:10;}.st5{fill:#FFFFFF;}.st6{stroke:currentColor;stroke-width:2;stroke-miterlimit:10;}.st7{fill:none;stroke:currentColor;stroke-width:2;stroke-linejoin:round;stroke-miterlimit:10;}.st8{fill:none;}.st9{fill:none;stroke:currentColor;stroke-width:0;stroke-linecap:round;stroke-linejoin:round;}</style></svg>
