<?xml version="1.0" encoding="UTF-8" standalone="no"?>
<svg version="1.1" width="26.458334mm" height="26.458334mm" viewBox="0 0 75.000149 75.000093" id="svg165" xml:space="preserve" xmlns="http://www.w3.org/2000/svg" xmlns:svg="http://www.w3.org/2000/svg"><defs id="defs165" /><g id="layer1" style="opacity:1" transform="translate(-2.1281831e-7,-551.2509)"><g id="g177"><g id="g64" transform="translate(-0.14288625,0.37343901)" style="display:inline;opacity:1;stroke:currentColor;stroke-opacity:1"><path d="m 54.820091,592.21405 a 14.3081,14.307056 0 0 1 14.3081,14.30706 14.3081,14.307056 0 1 1 -14.3081,-14.30706 z" style="display:inline;fill:none;stroke:currentColor;stroke-width:2.25;stroke-linecap:butt;stroke-linejoin:miter;stroke-dasharray:none;stroke-opacity:1" id="path23" /><g id="g12" style="display:inline;stroke:currentColor;stroke-width:2.25;stroke-dasharray:none;stroke-opacity:1" transform="translate(-0.40165994,550.87613)"><path d="m 65.432958,26.480942 0.0015,19.144877" style="fill:none;stroke:currentColor;stroke-width:2.25;stroke-linecap:round;stroke-linejoin:round;stroke-dasharray:none;stroke-opacity:1" id="path21" /><path d="m 9.4223127,26.689584 0.071832,37.805703 34.4616133,-0.02906" style="fill:none;stroke:currentColor;stroke-width:2.25;stroke-linecap:round;stroke-linejoin:round;stroke-dasharray:none;stroke-opacity:1" id="path22" /><path d="M 5.4703278,29.732932 37.548947,5.0307166 69.516389,29.621458" style="fill:none;stroke:currentColor;stroke-width:2.25;stroke-linecap:round;stroke-linejoin:round;stroke-dasharray:none;stroke-opacity:1" id="path24" /></g><path style="font-size:23.0223px;line-height:1.25;font-family:'Arial Rounded MT Bold';-inkscape-font-specification:'Arial Rounded MT Bold, ';display:inline;fill:currentColor;fill-opacity:1;stroke:none;stroke-width:0.540134;stroke-opacity:1" d="m 56.250091,604.38957 v 8.32352 q 0,0.86506 -0.4115,1.30814 -0.4114,0.44308 -1.0444,0.44308 -0.6329,0 -1.0338,-0.45363 -0.3903,-0.45363 -0.3903,-1.29759 v -8.23913 q 0,-0.85451 0.3903,-1.28703 0.4009,-0.43253 1.0338,-0.43253 0.633,0 1.0444,0.43253 0.4115,0.43252 0.4115,1.20264 z m -1.4242,-2.97495 q -0.6013,0 -1.0339,-0.36924 -0.4219,-0.36923 -0.4219,-1.04439 0,-0.61187 0.4325,-1.0022 0.4431,-0.40088 1.0233,-0.40088 0.5591,0 0.9916,0.35868 0.4326,0.35868 0.4326,1.0444 0,0.66461 -0.422,1.04439 -0.422,0.36924 -1.0022,0.36924 z" id="text3-2" aria-label="i" /></g><g id="g176" transform="translate(0.54451719)" style="display:inline;opacity:1"><g id="g175" transform="translate(-0.54451666)" style="opacity:1"><path d="m -3.1718169e-7,551.2509 v 75.00012 H 75.00012 V 551.2509 Z" style="display:inline;opacity:1;fill:#80000000;fill-opacity:0.225;stroke:none;stroke-width:0.753376;stroke-linecap:round;stroke-linejoin:round;stroke-dasharray:none;stroke-opacity:1" id="path154-9-7-3-86" /></g></g></g></g><style type="text/css" id="style1">.st0{fill:none;stroke:#000000;stroke-width:2;stroke-miterlimit:10;}.st1{fill:none;stroke:#000000;stroke-width:2;stroke-linecap:round;stroke-miterlimit:10;}.st2{fill:none;stroke:#000000;stroke-width:2;stroke-linecap:round;stroke-linejoin:round;stroke-miterlimit:10;}.st3{fill:none;stroke:#000000;stroke-linecap:round;stroke-miterlimit:10;}.st4{fill:none;stroke:#000000;stroke-width:3;stroke-linecap:round;stroke-miterlimit:10;}.st5{fill:#FFFFFF;}.st6{stroke:#000000;stroke-width:2;stroke-miterlimit:10;}.st7{fill:none;stroke:#000000;stroke-width:2;stroke-linejoin:round;stroke-miterlimit:10;}.st8{fill:none;}.st9{fill:none;stroke:#000000;stroke-width:0;stroke-linecap:round;stroke-linejoin:round;}</style><style type="text/css" id="style1-5">.st0{fill:none;stroke:#000000;stroke-width:2;stroke-miterlimit:10;}.st1{fill:none;stroke:#000000;stroke-width:2;stroke-linecap:round;stroke-miterlimit:10;}.st2{fill:none;stroke:#000000;stroke-width:2;stroke-linecap:round;stroke-linejoin:round;stroke-miterlimit:10;}.st3{fill:none;stroke:#000000;stroke-linecap:round;stroke-miterlimit:10;}.st4{fill:none;stroke:#000000;stroke-width:3;stroke-linecap:round;stroke-miterlimit:10;}.st5{fill:#FFFFFF;}.st6{stroke:#000000;stroke-width:2;stroke-miterlimit:10;}.st7{fill:none;stroke:#000000;stroke-width:2;stroke-linejoin:round;stroke-miterlimit:10;}.st8{fill:none;}.st9{fill:none;stroke:#000000;stroke-width:0;stroke-linecap:round;stroke-linejoin:round;}</style></svg>
