<?xml version="1.0" encoding="UTF-8" standalone="no"?>
<svg version="1.1" width="1.0416667in" height="1.0416667in" viewBox="0 0 75.000155 75.000097" id="svg165" xmlns="http://www.w3.org/2000/svg" xmlns:svg="http://www.w3.org/2000/svg">
  <defs id="defs165" />
  <g id="g74" style="fill:none;stroke:none;stroke-opacity:1" transform="translate(0,-472.50082)">
    <path d="m 0,472.50077 v 75.00012 h 75.00012 v -75.00012 z" style="display:inline;fill:none;fill-opacity:0;stroke:none;stroke-width:0.753376;stroke-linecap:round;stroke-linejoin:round;stroke-dasharray:none;stroke-opacity:1" id="path48" />
  </g>
  <g id="layer1" style="display:inline" transform="translate(0,-472.50082)">
    <path d="M 55.2217,513.83869 A 14.3081,14.307056 0 0 1 69.5298,528.14575 14.3081,14.307056 0 1 1 55.2217,513.83869 Z" style="fill:none;stroke:currentColor;stroke-width:2.25;stroke-linecap:butt;stroke-linejoin:miter;stroke-dasharray:none;stroke-opacity:1" id="path23-99-3-2-65-1" />
    <g id="g15" style="stroke:currentColor;stroke-width:2.25;stroke-dasharray:none;stroke-opacity:1">
      <path d="m 65.432953,498.98171 0.0015,19.14488" style="fill:none;stroke:currentColor;stroke-width:2.25;stroke-linecap:round;stroke-linejoin:round;stroke-dasharray:none;stroke-opacity:1" id="path21-5-4-9-9-9" />
      <path d="m 9.4223077,499.19035 0.071832,37.80571 34.4616133,-0.0291" style="fill:none;stroke:currentColor;stroke-width:2.25;stroke-linecap:round;stroke-linejoin:round;stroke-dasharray:none;stroke-opacity:1" id="path22-5-3-0-2-7" />
      <path d="M 5.4703228,502.2337 37.548942,477.53149 69.516384,502.12223" style="fill:none;stroke:currentColor;stroke-width:2.25;stroke-linecap:round;stroke-linejoin:round;stroke-dasharray:none;stroke-opacity:1" id="path24-3-8-7-4-6" />
    </g>
  </g>
  <g id="layer2" style="display:inline" transform="translate(0,-472.50082)">
    <path style="fill:currentColor;fill-opacity:1;fill-rule:nonzero;stroke:none;stroke-width:0.0602127" d="m 48.006291,532.62377 2.04281,-2.72147 c 0.136491,-0.1822 0.15924,-0.42815 0.05687,-0.63311 -0.10237,-0.20269 -0.309379,-0.33251 -0.539138,-0.33251 h -0.743874 l 2.247546,-2.99475 c 0.138766,-0.18218 0.15924,-0.42587 0.05687,-0.63083 -0.10237,-0.20497 -0.309379,-0.3325 -0.536862,-0.3325 h -0.541414 l 2.320341,-3.09041 2.318067,3.09041 h -0.539139 c -0.229758,0 -0.436769,0.12753 -0.539137,0.3325 -0.10237,0.20496 -0.07962,0.44865 0.05687,0.63083 l 2.245271,2.99475 h -0.743874 c -0.227483,0 -0.436769,0.12982 -0.536863,0.33251 -0.10237,0.20496 -0.07962,0.45091 0.05687,0.63311 l 2.042811,2.72147 z m 8.366879,-2.48006 h 0.743872 c 0.227485,0 0.436772,-0.12982 0.53914,-0.33478 0.10237,-0.20269 0.07962,-0.44864 -0.05687,-0.63084 l -2.247546,-2.99475 h 0.539138 c 0.229759,0 0.43677,-0.12982 0.539139,-0.3325 0.10237,-0.20496 0.07962,-0.45092 -0.05687,-0.63312 l -3.523736,-4.69597 c -0.113742,-0.1503 -0.291179,-0.23912 -0.479991,-0.23912 -0.191087,0 -0.368525,0.0889 -0.482268,0.23912 l -3.523734,4.69597 c -0.13649,0.1822 -0.156963,0.42816 -0.05687,0.63312 0.10237,0.20268 0.309379,0.3325 0.539138,0.3325 h 0.539138 l -2.245271,2.99475 c -0.136491,0.1822 -0.161515,0.42815 -0.05914,0.63084 0.10237,0.20496 0.311654,0.33478 0.539138,0.33478 h 0.743874 l -2.04281,2.72147 c -0.136491,0.18219 -0.15924,0.42586 -0.05687,0.63084 0.10237,0.20496 0.30938,0.33248 0.539139,0.33248 h 4.963711 v 4.36803 c 0,0.33249 0.268432,0.6035 0.602834,0.6035 0.332127,0 0.600559,-0.27101 0.600559,-0.6035 v -4.36803 h 4.965985 c 0.227485,0 0.436771,-0.12752 0.536864,-0.33248 0.10237,-0.20498 0.07962,-0.44865 -0.05687,-0.63084 z m 5.946442,1.63288 c 1.164721,-1.42565 1.906321,-3.7258 1.906321,-6.36985 0,-4.42951 -2.081484,-7.89796 -4.738501,-7.89796 -1.813052,0 -3.435016,1.65111 -4.233486,4.30881 -0.09783,0.31883 0.0819,0.65588 0.402648,0.75154 0.316203,0.0957 0.652879,-0.0843 0.748423,-0.40311 0.630132,-2.09746 1.84035,-3.4525 3.082415,-3.4525 1.915419,0 3.535107,3.06535 3.535107,6.69322 0,2.4778 -0.755248,4.69141 -1.844897,5.84605 -0.0091,0.01 -0.0182,0.0183 -0.02503,0.0296 -0.329852,0.34161 -0.687003,0.58529 -1.064627,0.71282 v -2.5074 l 1.114673,-0.44409 c 0.207011,-0.082 0.307104,-0.31655 0.22521,-0.52153 -0.0819,-0.20723 -0.313929,-0.30743 -0.52094,-0.22545 l -0.818943,0.32567 v -1.28217 l 1.176094,-0.70827 c 0.188813,-0.11387 0.250232,-0.3621 0.134217,-0.55112 -0.113743,-0.19131 -0.359426,-0.25051 -0.550513,-0.13664 l -0.759798,0.45775 v -1.92212 c 0,-0.3325 -0.270707,-0.60122 -0.600559,-0.60122 -0.334403,0 -0.602834,0.26872 -0.602834,0.60122 v 1.25028 l -0.557338,-0.24139 c -0.204735,-0.0889 -0.439045,0.006 -0.525488,0.20952 -0.08872,0.20496 0.0046,0.43953 0.207011,0.52835 l 0.875815,0.37805 v 1.39148 l -0.382174,-0.16398 c -0.204736,-0.0888 -0.44132,0.006 -0.527765,0.2118 -0.08644,0.20269 0.0068,0.43953 0.211561,0.52608 l 0.698378,0.30061 v 9.32589 c 0,0.3325 0.268431,0.6035 0.602834,0.6035 0.329852,0 0.600559,-0.271 0.600559,-0.6035 v -4.95558 c 0.466343,-0.0933 0.909938,-0.29607 1.31941,-0.59213 0.363974,-0.28695 0.627856,-0.56023 0.912212,-0.87224 z" id="path1-1" />
  </g>
</svg>
