<?xml version="1.0" encoding="UTF-8" standalone="no"?>
<svg version="1.1" width="26.458332mm" height="26.458332mm" viewBox="0 0 75.000144 75.000088" id="svg165" xml:space="preserve" xmlns="http://www.w3.org/2000/svg" xmlns:svg="http://www.w3.org/2000/svg"><defs id="defs165" /><g id="layer3" style="display:inline;opacity:0;fill:maroon;fill-opacity:0.225" transform="translate(1.075173e-6,-630.001)"><path d="m -1.075173e-6,630.00103 v 75.00012 H 75.000118 v -75.00012 z" style="fill:maroon;fill-opacity:0.225;stroke:none;stroke-width:0.753376;stroke-linecap:round;stroke-linejoin:round;stroke-dasharray:none;stroke-opacity:1" id="path154-9-76-3" /></g><g id="layer1" transform="translate(1.075173e-6,-630.001)"><g id="g65"><path d="m 54.819991,670.96418 a 14.3081,14.307056 0 0 1 14.3081,14.30706 14.3081,14.307056 0 1 1 -14.3081,-14.30706 z" style="display:inline;fill:none;stroke:currentColor;stroke-width:2.25;stroke-linecap:butt;stroke-linejoin:miter;stroke-dasharray:none;stroke-opacity:1" id="path23-99" /><g id="g16" style="display:inline;stroke:currentColor;stroke-width:2.25;stroke-dasharray:none;stroke-opacity:1" transform="translate(-0.40165994,550.87613)"><path d="m 65.432954,105.23107 0.0015,19.14488" style="fill:none;stroke:currentColor;stroke-width:2.25;stroke-linecap:round;stroke-linejoin:round;stroke-dasharray:none;stroke-opacity:1" id="path21-5" /><path d="m 9.422309,105.43972 0.071832,37.8057 34.461613,-0.0291" style="fill:none;stroke:currentColor;stroke-width:2.25;stroke-linecap:round;stroke-linejoin:round;stroke-dasharray:none;stroke-opacity:1" id="path22-5" /><path d="M 5.4703241,108.48306 37.548943,83.780848 69.516385,108.37159" style="fill:none;stroke:currentColor;stroke-width:2.25;stroke-linecap:round;stroke-linejoin:round;stroke-dasharray:none;stroke-opacity:1" id="path24-3" /></g><path style="font-size:13.4002px;line-height:1.25;font-family:'Arial Rounded MT Bold';-inkscape-font-specification:'Arial Rounded MT Bold, ';display:inline;stroke-width:0.335006" d="m 47.753391,681.49934 v 3.36314 l 3.8146,-3.97819 q 0.2748,-0.28789 0.4645,-0.4253 0.1963,-0.1374 0.5169,-0.1374 0.4188,0 0.674,0.24864 0.2617,0.24209 0.2617,0.59542 0,0.42529 -0.4384,0.84405 l -2.3621,2.23773 2.722,3.89967 q 0.2879,0.40567 0.4318,0.71319 0.1439,0.30098 0.1439,0.58888 0,0.32061 -0.2551,0.55616 -0.2487,0.23555 -0.6805,0.23555 -0.4057,0 -0.6609,-0.17012 -0.2551,-0.17666 -0.4318,-0.46456 -0.1767,-0.28789 -0.3141,-0.52344 l -2.2966,-3.53326 -1.5899,1.52453 v 1.98255 q 0,0.60197 -0.2749,0.8964 -0.2748,0.2879 -0.7066,0.2879 -0.2486,0 -0.4777,-0.13086 -0.229,-0.13086 -0.3533,-0.35333 -0.092,-0.1832 -0.1112,-0.4253 -0.02,-0.24209 -0.02,-0.70011 v -7.13194 q 0,-0.58887 0.2551,-0.88331 0.2618,-0.29444 0.7067,-0.29444 0.4384,0 0.7066,0.29444 0.2748,0.28789 0.2749,0.88331 z m 16.0566,4.67829 v 1.83861 q 0,0.36641 -0.072,0.58887 -0.072,0.21592 -0.2683,0.39259 -0.1897,0.17666 -0.4907,0.34024 -0.8703,0.4711 -1.6751,0.68702 -0.8048,0.21592 -1.7535,0.21592 -1.1058,0 -2.0153,-0.34024 -0.9094,-0.34024 -1.5507,-0.988 -0.6412,-0.64777 -0.988,-1.57034 -0.3402,-0.92257 -0.3402,-2.06107 0,-1.11886 0.3337,-2.04798 0.3337,-0.92911 0.9814,-1.57687 0.6478,-0.64777 1.5769,-0.98801 0.9291,-0.34678 2.1069,-0.34678 0.9684,0 1.7143,0.26172 0.7459,0.25518 1.2104,0.64777 0.4646,0.39258 0.7002,0.83097 0.2355,0.43838 0.2355,0.77862 0,0.36641 -0.2748,0.62813 -0.2683,0.25518 -0.6478,0.25518 -0.2093,0 -0.4056,-0.0981 -0.1898,-0.0982 -0.3207,-0.27481 -0.3598,-0.5627 -0.6085,-0.8506 -0.2486,-0.28789 -0.6739,-0.48419 -0.4187,-0.19629 -1.0731,-0.19629 -0.6739,0 -1.2039,0.23555 -0.53,0.22901 -0.9095,0.67394 -0.3729,0.43838 -0.5758,1.0796 -0.1962,0.64122 -0.1962,1.41985 0,1.68811 0.772,2.5976 0.7787,0.90948 2.1658,0.90948 0.6739,0 1.2628,-0.17666 0.5954,-0.17666 1.2039,-0.50382 v -1.55725 h -1.5049 q -0.5431,0 -0.8244,-0.16357 -0.2748,-0.16358 -0.2748,-0.55616 0,-0.32061 0.229,-0.52999 0.2355,-0.20938 0.6347,-0.20938 h 2.205 q 0.4057,0 0.687,0.072 0.2814,0.072 0.4515,0.32061 0.1766,0.24864 0.1766,0.74591 z" id="text3" aria-label="KG" /></g></g><style type="text/css" id="style1">.st0{fill:none;stroke:currentColor;stroke-width:2;stroke-miterlimit:10;}.st1{fill:none;stroke:currentColor;stroke-width:2;stroke-linecap:round;stroke-miterlimit:10;}.st2{fill:none;stroke:currentColor;stroke-width:2;stroke-linecap:round;stroke-linejoin:round;stroke-miterlimit:10;}.st3{fill:none;stroke:currentColor;stroke-linecap:round;stroke-miterlimit:10;}.st4{fill:none;stroke:currentColor;stroke-width:3;stroke-linecap:round;stroke-miterlimit:10;}.st5{fill:#FFFFFF;}.st6{stroke:currentColor;stroke-width:2;stroke-miterlimit:10;}.st7{fill:none;stroke:currentColor;stroke-width:2;stroke-linejoin:round;stroke-miterlimit:10;}.st8{fill:none;}.st9{fill:none;stroke:currentColor;stroke-width:0;stroke-linecap:round;stroke-linejoin:round;}</style><style type="text/css" id="style1-5">.st0{fill:none;stroke:currentColor;stroke-width:2;stroke-miterlimit:10;}.st1{fill:none;stroke:currentColor;stroke-width:2;stroke-linecap:round;stroke-miterlimit:10;}.st2{fill:none;stroke:currentColor;stroke-width:2;stroke-linecap:round;stroke-linejoin:round;stroke-miterlimit:10;}.st3{fill:none;stroke:currentColor;stroke-linecap:round;stroke-miterlimit:10;}.st4{fill:none;stroke:currentColor;stroke-width:3;stroke-linecap:round;stroke-miterlimit:10;}.st5{fill:#FFFFFF;}.st6{stroke:currentColor;stroke-width:2;stroke-miterlimit:10;}.st7{fill:none;stroke:currentColor;stroke-width:2;stroke-linejoin:round;stroke-miterlimit:10;}.st8{fill:none;}.st9{fill:none;stroke:currentColor;stroke-width:0;stroke-linecap:round;stroke-linejoin:round;}</style></svg>
