<?xml version="1.0" encoding="UTF-8" standalone="no"?>
<svg version="1.1" width="26.458336mm" height="26.458334mm" viewBox="0 0 75.000155 75.000093" id="svg165" xml:space="preserve" xmlns="http://www.w3.org/2000/svg" xmlns:svg="http://www.w3.org/2000/svg"><defs id="defs165" /><g id="layer1" style="opacity:1" transform="translate(1.1585909e-6,-787.5013)"><g id="g169"><path d="m -1.1585909e-6,787.5013 v 75.00012 H 75.000121 V 787.5013 Z" style="display:inline;opacity:1;fill:#80000000;fill-opacity:0.225;stroke:none;stroke-width:0.753376;stroke-linecap:round;stroke-linejoin:round;stroke-dasharray:none;stroke-opacity:1" id="path154-9-7-3-8-8" /><g id="g67" transform="translate(0.40168856)" style="display:inline;opacity:1;stroke:currentColor;stroke-opacity:1"><path d="m 54.819991,828.46444 a 14.3081,14.307056 0 0 1 14.3081,14.30706 14.3081,14.307056 0 1 1 -14.3081,-14.30706 z" style="display:inline;fill:none;stroke:currentColor;stroke-width:2.25;stroke-linecap:butt;stroke-linejoin:miter;stroke-dasharray:none;stroke-opacity:1" id="path23-99-3-2" /><g id="g20" style="display:inline;stroke:currentColor;stroke-width:2.25;stroke-dasharray:none;stroke-opacity:1" transform="translate(-0.40165994,550.87613)"><path d="m 65.432942,262.73133 0.0015,19.14488" style="fill:none;stroke:currentColor;stroke-width:2.25;stroke-linecap:round;stroke-linejoin:round;stroke-dasharray:none;stroke-opacity:1" id="path21-5-4-9" /><path d="m 9.4222964,262.93997 0.071832,37.80571 34.4616136,-0.0291" style="fill:none;stroke:currentColor;stroke-width:2.25;stroke-linecap:round;stroke-linejoin:round;stroke-dasharray:none;stroke-opacity:1" id="path22-5-3-0" /><path d="M 5.4703115,265.98332 37.548931,241.28111 69.516373,265.87185" style="fill:none;stroke:currentColor;stroke-width:2.25;stroke-linecap:round;stroke-linejoin:round;stroke-dasharray:none;stroke-opacity:1" id="path24-3-8-7" /></g><path style="font-size:12.1704px;line-height:1.25;font-family:'Arial Rounded MT Bold';-inkscape-font-specification:'Arial Rounded MT Bold, ';display:inline;fill:currentColor;fill-opacity:1;stroke:none;stroke-width:0.30426;stroke-opacity:1" d="m 50.047091,838.27703 q 1.3549,0 2.3235,0.55265 0.9746,0.54672 1.4738,1.5629 0.4991,1.01024 0.4991,2.37703 0,1.01024 -0.2733,1.83626 -0.2734,0.82602 -0.8201,1.43216 -0.5467,0.60614 -1.343,0.92704 -0.7963,0.3209 -1.8244,0.3209 -1.0221,0 -1.8303,-0.32684 -0.8082,-0.33278 -1.349,-0.93298 -0.5407,-0.6002 -0.82,-1.44405 -0.2734,-0.84385 -0.2734,-1.82437 0,-1.0043 0.2852,-1.8422 0.2912,-0.8379 0.838,-1.42622 0.5467,-0.58831 1.3311,-0.89733 0.7844,-0.31495 1.7828,-0.31495 z m 2.5077,4.4807 q 0,-0.95676 -0.309,-1.65798 -0.309,-0.70122 -0.8854,-1.05778 -0.5705,-0.3625 -1.3133,-0.3625 -0.5289,0 -0.9806,0.20205 -0.4457,0.19611 -0.7725,0.57643 -0.3209,0.38033 -0.5111,0.97458 -0.1842,0.58832 -0.1842,1.3252 0,0.74282 0.1842,1.34302 0.1902,0.6002 0.5289,0.99835 0.3447,0.39221 0.7845,0.58832 0.4456,0.1961 0.9745,0.1961 0.6775,0 1.242,-0.33872 0.5705,-0.33873 0.9033,-1.0459 0.3387,-0.70716 0.3387,-1.74117 z m 11.2553,0.8379 v 1.66987 q 0,0.33278 -0.065,0.53483 -0.065,0.1961 -0.2436,0.35655 -0.1724,0.16045 -0.4457,0.30902 -0.7904,0.42786 -1.5213,0.62397 -0.731,0.1961 -1.5926,0.1961 -1.0043,0 -1.8304,-0.30901 -0.826,-0.30901 -1.4084,-0.89733 -0.5823,-0.58832 -0.8973,-1.42622 -0.309,-0.8379 -0.309,-1.87191 0,-1.01618 0.3031,-1.86003 0.303,-0.84384 0.8914,-1.43216 0.5883,-0.58831 1.4321,-0.89733 0.8439,-0.31495 1.9135,-0.31495 0.8795,0 1.557,0.2377 0.6774,0.23176 1.0994,0.58831 0.4219,0.35656 0.6358,0.75471 0.214,0.39815 0.214,0.70717 0,0.33278 -0.2496,0.57049 -0.2437,0.23176 -0.5883,0.23176 -0.1902,0 -0.3685,-0.0891 -0.1723,-0.0891 -0.2912,-0.24959 -0.3268,-0.51106 -0.5526,-0.77254 -0.2259,-0.26147 -0.6121,-0.43975 -0.3803,-0.17827 -0.9746,-0.17827 -0.6121,0 -1.0934,0.21393 -0.4814,0.20799 -0.8261,0.61208 -0.3387,0.39816 -0.5229,0.98053 -0.1783,0.58237 -0.1783,1.28954 0,1.53318 0.7012,2.3592 0.7072,0.82602 1.967,0.82602 0.6121,0 1.147,-0.16045 0.5407,-0.16045 1.0934,-0.45758 v -1.41433 h -1.3668 q -0.4932,0 -0.7488,-0.14857 -0.2496,-0.14856 -0.2496,-0.50511 0,-0.29119 0.208,-0.48135 0.214,-0.19017 0.5765,-0.19017 h 2.0026 q 0.3685,0 0.624,0.0654 0.2555,0.0654 0.41,0.29119 0.1605,0.22582 0.1605,0.67745 z" id="text3-8-8" aria-label="OG" /></g></g></g><style type="text/css" id="style1">.st0{fill:none;stroke:#000000;stroke-width:2;stroke-miterlimit:10;}.st1{fill:none;stroke:#000000;stroke-width:2;stroke-linecap:round;stroke-miterlimit:10;}.st2{fill:none;stroke:#000000;stroke-width:2;stroke-linecap:round;stroke-linejoin:round;stroke-miterlimit:10;}.st3{fill:none;stroke:#000000;stroke-linecap:round;stroke-miterlimit:10;}.st4{fill:none;stroke:#000000;stroke-width:3;stroke-linecap:round;stroke-miterlimit:10;}.st5{fill:#FFFFFF;}.st6{stroke:#000000;stroke-width:2;stroke-miterlimit:10;}.st7{fill:none;stroke:#000000;stroke-width:2;stroke-linejoin:round;stroke-miterlimit:10;}.st8{fill:none;}.st9{fill:none;stroke:#000000;stroke-width:0;stroke-linecap:round;stroke-linejoin:round;}</style><style type="text/css" id="style1-5">.st0{fill:none;stroke:#000000;stroke-width:2;stroke-miterlimit:10;}.st1{fill:none;stroke:#000000;stroke-width:2;stroke-linecap:round;stroke-miterlimit:10;}.st2{fill:none;stroke:#000000;stroke-width:2;stroke-linecap:round;stroke-linejoin:round;stroke-miterlimit:10;}.st3{fill:none;stroke:#000000;stroke-linecap:round;stroke-miterlimit:10;}.st4{fill:none;stroke:#000000;stroke-width:3;stroke-linecap:round;stroke-miterlimit:10;}.st5{fill:#FFFFFF;}.st6{stroke:#000000;stroke-width:2;stroke-miterlimit:10;}.st7{fill:none;stroke:#000000;stroke-width:2;stroke-linejoin:round;stroke-miterlimit:10;}.st8{fill:none;}.st9{fill:none;stroke:#000000;stroke-width:0;stroke-linecap:round;stroke-linejoin:round;}</style></svg>
