<?xml version="1.0" encoding="UTF-8" standalone="no"?>
<svg version="1.1" width="1.0416667in" height="1.0416667in" viewBox="0 0 75.000155 75.000097" id="svg165" xml:space="preserve" xmlns="http://www.w3.org/2000/svg" xmlns:svg="http://www.w3.org/2000/svg"><defs id="defs165" /><g id="layer3" style="display:none" transform="translate(-315.00053,-78.750135)"><path d="m 315.00051,78.75013 v 75.00012 h 75.00012 V 78.75013 Z" style="fill:red;fill-opacity:0.2;stroke:none;stroke-width:0.753376;stroke-linecap:round;stroke-linejoin:round;stroke-dasharray:none;stroke-opacity:1" id="path154-5-7-8-1" /></g><g id="g83" style="display:inline;fill:none;stroke:none" transform="translate(-315.00053,-78.750135)"><path d="m 315.00051,78.75013 v 75.00012 h 75.00012 V 78.75013 Z" style="fill:none;fill-opacity:0;stroke:none;stroke-width:0.753376;stroke-linecap:round;stroke-linejoin:round;stroke-dasharray:none;stroke-opacity:1" id="path22" /></g><g id="layer1" transform="translate(-315.00053,-78.750135)"><g id="g2" transform="matrix(1.4400023,0,0,1.4400023,316.50051,80.250132)" style="fill:none;stroke:black;stroke-width:1.5625;stroke-dasharray:none;stroke-opacity:1"><path fill="none" stroke="black" stroke-width="2" stroke-linecap="round" stroke-miterlimit="10" d="M 19,6 V 3 c 0,-1.104 0.896,-2 2,-2 h 8 c 1.104,0 2,0.896 2,2 v 3" id="path1-55" style="fill:none;stroke:black;stroke-width:1.5625;stroke-dasharray:none;stroke-opacity:1" /><path fill="none" stroke="black" stroke-width="2" stroke-linecap="round" stroke-miterlimit="10" d="M 40,6 36.307,47.426 C 36.229,48.299 35.469,49 34.608,49 H 15.391 c -0.86,0 -1.621,-0.701 -1.699,-1.574 L 10,6" id="path2-1" style="fill:none;stroke:black;stroke-width:1.5625;stroke-dasharray:none;stroke-opacity:1" /><line fill="none" stroke="black" stroke-width="2" stroke-linecap="round" stroke-miterlimit="10" x1="8" y1="6" x2="42" y2="6" id="line2-7" style="fill:none;stroke:black;stroke-width:1.5625;stroke-dasharray:none;stroke-opacity:1" /><line fill="none" stroke="black" stroke-width="2" stroke-linecap="round" stroke-miterlimit="10" x1="25" y1="11" x2="25" y2="44" id="line3-11" style="fill:none;stroke:black;stroke-width:1.5625;stroke-dasharray:none;stroke-opacity:1" /><line fill="none" stroke="black" stroke-width="2" stroke-linecap="round" stroke-miterlimit="10" x1="31" y1="11" x2="31" y2="44" id="line4-5" style="fill:none;stroke:black;stroke-width:1.5625;stroke-dasharray:none;stroke-opacity:1" /><line fill="none" stroke="black" stroke-width="2" stroke-linecap="round" stroke-miterlimit="10" x1="19" y1="11" x2="19" y2="44" id="line5-27" style="fill:none;stroke:black;stroke-width:1.5625;stroke-dasharray:none;stroke-opacity:1" /></g></g></svg>
