<?xml version="1.0" encoding="UTF-8" standalone="no"?>
<svg version="1.1" width="1.0416667in" height="1.0416667in" viewBox="0 0 75.000155 75.000097" id="svg165" xml:space="preserve" xmlns="http://www.w3.org/2000/svg" xmlns:svg="http://www.w3.org/2000/svg"><defs id="defs165" /><g id="layer3" style="display:none" transform="translate(-157.50024,-78.750135)"><path d="m 157.50025,78.750129 v 75.000121 h 75.00013 V 78.750129 Z" style="fill:red;fill-opacity:0.2;stroke:none;stroke-width:0.753376;stroke-linecap:round;stroke-linejoin:round;stroke-dasharray:none;stroke-opacity:1" id="path154-5-7-9-2" /></g><g id="g83" style="display:inline;fill:none;stroke:none" transform="translate(-157.50024,-78.750135)"><path d="m 157.50025,78.750129 v 75.000121 h 75.00013 V 78.750129 Z" style="fill:none;fill-opacity:0;stroke:none;stroke-width:0.753376;stroke-linecap:round;stroke-linejoin:round;stroke-dasharray:none;stroke-opacity:1" id="path17" /></g><g id="layer1" transform="translate(-157.50024,-78.750135)"><g id="g1" transform="matrix(1.5652199,0,0,1.5652199,155.86982,77.119692)" style="fill:none;stroke:black;stroke-width:1.4375;stroke-dasharray:none;stroke-opacity:1"><path fill="none" stroke="black" stroke-width="2" stroke-linecap="round" stroke-miterlimit="10" d="M 19,8 V 5 c 0,-1.1 0.9,-2 2,-2 h 8 c 1.1,0 2,0.9 2,2 v 3" id="path1-09" style="fill:none;stroke:black;stroke-width:1.4375;stroke-dasharray:none;stroke-opacity:1" /><line fill="none" stroke="black" stroke-width="2" stroke-linecap="round" stroke-miterlimit="10" x1="8" y1="8" x2="42" y2="8" id="line1-4" style="fill:none;stroke:black;stroke-width:1.4375;stroke-dasharray:none;stroke-opacity:1" /><line fill="none" stroke="black" stroke-width="2" stroke-linecap="round" stroke-miterlimit="10" x1="25" y1="15" x2="25" y2="40" id="line2-8" style="fill:none;stroke:black;stroke-width:1.4375;stroke-dasharray:none;stroke-opacity:1" /><line fill="none" stroke="black" stroke-width="2" stroke-linecap="round" stroke-miterlimit="10" x1="31" y1="15" x2="31" y2="40" id="line3-8" style="fill:none;stroke:black;stroke-width:1.4375;stroke-dasharray:none;stroke-opacity:1" /><line fill="none" stroke="black" stroke-width="2" stroke-linecap="round" stroke-miterlimit="10" x1="19" y1="15" x2="19" y2="40" id="line4-2" style="fill:none;stroke:black;stroke-width:1.4375;stroke-dasharray:none;stroke-opacity:1" /><path fill="none" stroke="black" stroke-width="2" stroke-linecap="round" stroke-miterlimit="10" d="m 40,8 v 37 c 0,1.1 -0.9,2 -2,2 H 12 c -1.1,0 -2,-0.9 -2,-2 V 8" id="path4-4" style="fill:none;stroke:black;stroke-width:1.4375;stroke-dasharray:none;stroke-opacity:1" /></g></g></svg>
