<?xml version="1.0" encoding="UTF-8" standalone="no"?>
<svg version="1.1" width="26.458332mm" height="26.458332mm" viewBox="0 0 75.000144 75.000088" id="svg165" xml:space="preserve" xmlns="http://www.w3.org/2000/svg" xmlns:svg="http://www.w3.org/2000/svg"><defs id="defs165" /><g id="layer3" style="display:inline;opacity:0;fill:maroon;fill-opacity:0.225" transform="translate(-630.00101)"><path d="m 630.00102,0 v 75.00012 h 75.00011 V 0 Z" style="display:inline;fill:maroon;fill-opacity:0.225;stroke:none;stroke-width:0.753376;stroke-linecap:round;stroke-linejoin:round;stroke-dasharray:none;stroke-opacity:1" id="path154-5-7-8-14-1-2" /></g><g id="layer1" transform="translate(-630.00101)"><g id="g63"><path d="m 667.50107,28.710044 c -4.85459,0 -8.79001,3.935415 -8.79001,8.790016 0,4.854599 3.93542,8.790015 8.79001,8.790015 4.85461,0 8.79002,-3.935416 8.79002,-8.790014 0,-4.854602 -3.93541,-8.790016 -8.79002,-8.790017 z" id="path1-121-7" style="fill:currentColor;fill-opacity:1;stroke:none;stroke-width:1.96206;stroke-dasharray:none;stroke-opacity:1" /><path style="fill:currentColor;fill-opacity:1;stroke:none;stroke-width:2.25;stroke-linejoin:round;stroke-miterlimit:10;stroke-dasharray:none;stroke-opacity:1" d="m 647.14664,17.145629 -4.08384,-4.083846 c -6.25393,6.25537 -10.12178,14.895384 -10.12178,24.438279 0,9.542895 3.86785,18.182909 10.12178,24.438279 l 4.0824,-4.082407 c -5.21424,-5.215688 -8.44417,-12.4157 -8.44417,-20.355872 0,-7.940173 3.22993,-15.140184 8.44561,-20.354433 z" id="path2-98-2" /><path style="fill:currentColor;fill-opacity:1;stroke:none;stroke-width:2.25;stroke-linejoin:round;stroke-miterlimit:10;stroke-dasharray:none;stroke-opacity:1" d="m 687.85551,17.145629 c 5.21569,5.214249 8.44561,12.41426 8.44561,20.354433 0,7.940172 -3.22992,15.140184 -8.44561,20.354432 l 4.08241,4.082407 c 6.25537,-6.25393 10.12321,-14.893944 10.12321,-24.436839 0,-9.542895 -3.86784,-18.182909 -10.12177,-24.438279 z" id="path3-24-7" /><g id="g5-52-5" style="fill:currentColor;fill-opacity:1;stroke:none;stroke-width:1.5625;stroke-dasharray:none;stroke-opacity:1" transform="matrix(1.4400023,0,0,1.4400023,631.50102,1.5000043)">
	<path style="fill:currentColor;fill-opacity:1;stroke:none;stroke-width:1.5625;stroke-linejoin:round;stroke-miterlimit:10;stroke-dasharray:none;stroke-opacity:1" d="M 14.398,14.398 C 11.682,17.115 10,20.865 10,25 c 0,4.135 1.682,7.885 4.398,10.602 l 2.827,-2.827 C 15.234,30.783 14,28.033 14,25 c 0,-3.033 1.234,-5.783 3.225,-7.775 z" id="path4-9-7" />
	<path style="fill:currentColor;fill-opacity:1;stroke:none;stroke-width:1.5625;stroke-linejoin:round;stroke-miterlimit:10;stroke-dasharray:none;stroke-opacity:1" d="M 32.775,17.225 C 34.766,19.217 36,21.967 36,25 c 0,3.033 -1.234,5.783 -3.225,7.775 l 2.827,2.827 C 38.318,32.885 40,29.135 40,25 40,20.865 38.318,17.115 35.602,14.398 Z" id="path5-9-8" />
</g></g></g><style type="text/css" id="style1">.st0{fill:none;stroke:currentColor;stroke-width:2;stroke-miterlimit:10;}.st1{fill:none;stroke:currentColor;stroke-width:2;stroke-linecap:round;stroke-miterlimit:10;}.st2{fill:none;stroke:currentColor;stroke-width:2;stroke-linecap:round;stroke-linejoin:round;stroke-miterlimit:10;}.st3{fill:none;stroke:currentColor;stroke-linecap:round;stroke-miterlimit:10;}.st4{fill:none;stroke:currentColor;stroke-width:3;stroke-linecap:round;stroke-miterlimit:10;}.st5{fill:#FFFFFF;}.st6{stroke:currentColor;stroke-width:2;stroke-miterlimit:10;}.st7{fill:none;stroke:currentColor;stroke-width:2;stroke-linejoin:round;stroke-miterlimit:10;}.st8{fill:none;}.st9{fill:none;stroke:currentColor;stroke-width:0;stroke-linecap:round;stroke-linejoin:round;}</style><style type="text/css" id="style1-5">.st0{fill:none;stroke:currentColor;stroke-width:2;stroke-miterlimit:10;}.st1{fill:none;stroke:currentColor;stroke-width:2;stroke-linecap:round;stroke-miterlimit:10;}.st2{fill:none;stroke:currentColor;stroke-width:2;stroke-linecap:round;stroke-linejoin:round;stroke-miterlimit:10;}.st3{fill:none;stroke:currentColor;stroke-linecap:round;stroke-miterlimit:10;}.st4{fill:none;stroke:currentColor;stroke-width:3;stroke-linecap:round;stroke-miterlimit:10;}.st5{fill:#FFFFFF;}.st6{stroke:currentColor;stroke-width:2;stroke-miterlimit:10;}.st7{fill:none;stroke:currentColor;stroke-width:2;stroke-linejoin:round;stroke-miterlimit:10;}.st8{fill:none;}.st9{fill:none;stroke:currentColor;stroke-width:0;stroke-linecap:round;stroke-linejoin:round;}</style></svg>
