<?xml version="1.0" encoding="UTF-8" standalone="no"?>
<svg version="1.1" width="26.458338mm" height="26.458334mm" viewBox="0 0 75.00016 75.000093" id="svg165" xml:space="preserve" xmlns="http://www.w3.org/2000/svg" xmlns:svg="http://www.w3.org/2000/svg"><defs id="defs165" /><g id="layer1" style="opacity:1" transform="translate(-394.82206,-393.75065)"><g id="g113"><path d="m 394.82206,393.75065 v 75.00012 h 75.00013 v -75.00012 z" style="display:inline;opacity:1;fill:#80000000;fill-opacity:0.225;stroke:none;stroke-width:0.753376;stroke-linecap:round;stroke-linejoin:round;stroke-dasharray:none;stroke-opacity:1" id="path154-5-7-9-2-76-7" /><g id="g25" transform="matrix(1.7142884,0,0,1.7142884,389.46491,388.3935)" style="display:inline;opacity:1"><path style="fill:none;stroke:currentColor;stroke-width:2;stroke-miterlimit:10;stroke-opacity:1" d="M 36,45 H 14 C 9.029,45 5,40.971 5,36 V 14 C 5,9.029 9.029,5 14,5 h 22 c 4.971,0 9,4.029 9,9 v 22 c 0,4.971 -4.029,9 -9,9 z" id="path1-0" /><path d="m 37.75,24.384 c -0.01,0.904 0.29,1.742 0.92,2.133 0.56,0.382 1.44,0.382 2.33,0.242 v 1.025 c -0.35,0.112 -0.72,0.177 -1.1,0.214 -0.63,0.047 -1.33,-0.047 -1.95,-0.382 -0.63,-0.326 -1.09,-0.894 -1.35,-1.463 -0.25,-0.587 -0.34,-1.183 -0.35,-1.751 -0.03,-1.211 0.62,-2.571 1.94,-3.149 0.65,-0.279 1.42,-0.317 2.07,-0.121 0.27,0.084 0.51,0.196 0.74,0.335 v 1.23 c -0.72,-0.494 -1.55,-0.634 -2.19,-0.289 -0.68,0.374 -1.08,1.156 -1.06,1.976 z" id="path2-5" style="fill:currentColor;fill-opacity:1;stroke:none;stroke-opacity:1" /><path d="m 32.272,26.093 c 0,1.058 -0.522,1.447 -0.952,1.621 -0.89,0.387 -1.68,0.319 -2.45,0.213 C 28.22,27.811 27.59,27.617 27,27.25 v -1.074 c 0.64,0.261 1.42,0.532 2.03,0.59 0.61,0.068 1.28,-0.01 1.67,-0.223 0.19,-0.116 0.23,-0.278 0.23,-0.458 0,-0.18 -0.036,-0.282 -0.123,-0.417 -0.159,-0.246 -0.597,-0.432 -1.287,-0.597 -0.34,-0.097 -0.71,-0.194 -1.12,-0.416 -0.41,-0.184 -1.243,-0.852 -1.081,-1.991 0.087,-0.609 0.718,-1.205 1.601,-1.483 1.029,-0.325 2.15,-0.165 3.08,0.281 v 1.239 c -0.83,-0.426 -1.82,-0.641 -2.66,-0.361 -0.25,0.077 -0.58,0.251 -0.58,0.564 0,0.751 0.87,0.893 1.2,1 0.34,0.106 0.71,0.203 1.11,0.406 0.4,0.194 1.202,0.679 1.202,1.783 z" id="path3-1" style="fill:currentColor;fill-opacity:1;stroke:none;stroke-opacity:1" /><path d="m 21.75,21.01 0.003,2.42 c 0.014,0.79 0.012,1.651 0.003,2.383 -0.035,0.391 0.402,0.847 0.976,0.917 0.306,0.034 0.534,0.009 0.886,-0.14 0.385,-0.151 0.78,-0.279 1.171,-0.417 l 0.422,0.883 c -0.36,0.202 -0.715,0.415 -1.081,0.604 -0.381,0.228 -0.992,0.386 -1.514,0.343 -0.542,-0.035 -1.088,-0.225 -1.533,-0.586 -0.442,-0.356 -0.776,-0.915 -0.819,-1.529 -0.027,-0.88 -0.02,-1.634 -0.011,-2.457 l -0.002,-2.42 z" id="path4" style="fill:currentColor;fill-opacity:1;stroke:none;stroke-opacity:1" /><path d="m 39.604,31.01 c -1.111,0 -2.431,0.28 -3.403,0.98 -0.278,0.21 -0.278,0.49 0.069,0.49 1.111,-0.14 3.612,-0.49 4.098,0.14 0.417,0.56 -0.486,2.941 -0.903,4.061 -0.139,0.35 0.139,0.42 0.417,0.21 1.875,-1.611 2.362,-4.902 2.014,-5.322 C 41.688,31.22 40.715,31.01 39.604,31.01 Z" id="path5-1" style="fill:currentColor;fill-opacity:1" /><path d="m 9.145,31.807 c 2.249,1.217 4.653,2.149 7.067,2.889 2.433,0.692 4.909,1.187 7.4,1.288 2.485,0.087 4.997,-0.107 7.449,-0.617 2.442,-0.504 4.905,-1.236 7.17,-2.279 L 38.27,33.07 c 0.251,-0.115 0.547,-0.006 0.663,0.245 0.102,0.222 0.028,0.48 -0.165,0.616 -2.214,1.57 -4.688,2.605 -7.285,3.277 -2.595,0.663 -5.297,0.914 -7.986,0.729 C 20.809,37.757 18.184,37.101 15.71,36.143 13.244,35.153 10.913,33.88 8.853,32.212 8.746,32.125 8.729,31.967 8.816,31.86 8.893,31.765 9.026,31.741 9.129,31.797 Z" id="path6-5" style="fill:currentColor;fill-opacity:1" /><path d="m 9.504,22.149 c 0.782,-0.294 1.566,-0.582 2.355,-0.851 0.535,-0.19 1.206,-0.152 1.733,0.141 0.532,0.286 0.946,0.809 1.093,1.418 0.039,0.152 0.056,0.306 0.065,0.461 l 0.004,0.317 0.006,0.625 -0.006,1.25 -0.003,2.5 h -1.5 l -0.006,-4.844 c -0.042,-0.426 -0.519,-0.797 -1.019,-0.661 -0.806,0.214 -1.618,0.41 -2.431,0.6 z" id="path7-90" style="fill:currentColor;fill-opacity:1" /><path d="m 13.504,22.149 c 0.782,-0.294 1.566,-0.582 2.355,-0.851 0.535,-0.19 1.206,-0.152 1.733,0.141 0.532,0.286 0.946,0.809 1.093,1.418 0.039,0.152 0.056,0.306 0.065,0.461 l 0.004,0.317 0.006,0.625 -0.006,1.25 -0.003,2.5 h -1.5 l -0.006,-4.844 c -0.042,-0.425 -0.519,-0.797 -1.019,-0.66 -0.806,0.214 -1.618,0.41 -2.431,0.6 z" id="path8" style="fill:currentColor;fill-opacity:1;stroke:none;stroke-opacity:1" /><rect x="9.25" y="21.01" width="1.5" height="7" id="rect8" style="fill:currentColor;fill-opacity:1" /><rect x="24.25" y="21.011" width="1.5" height="6.8179998" id="rect9" style="fill:currentColor;fill-opacity:1" /><rect x="33.25" y="21.01" width="1.5" height="7" id="rect10" style="fill:currentColor;fill-opacity:1;stroke:none;stroke-opacity:1" /><circle cx="34" cy="19.01" r="1" id="circle10" style="fill:currentColor;fill-opacity:1;stroke:none;stroke-opacity:1" /></g></g></g><style type="text/css" id="style1">.st0{fill:none;stroke:#000000;stroke-width:2;stroke-miterlimit:10;}.st1{fill:none;stroke:#000000;stroke-width:2;stroke-linecap:round;stroke-miterlimit:10;}.st2{fill:none;stroke:#000000;stroke-width:2;stroke-linecap:round;stroke-linejoin:round;stroke-miterlimit:10;}.st3{fill:none;stroke:#000000;stroke-linecap:round;stroke-miterlimit:10;}.st4{fill:none;stroke:#000000;stroke-width:3;stroke-linecap:round;stroke-miterlimit:10;}.st5{fill:#FFFFFF;}.st6{stroke:#000000;stroke-width:2;stroke-miterlimit:10;}.st7{fill:none;stroke:#000000;stroke-width:2;stroke-linejoin:round;stroke-miterlimit:10;}.st8{fill:none;}.st9{fill:none;stroke:#000000;stroke-width:0;stroke-linecap:round;stroke-linejoin:round;}</style><style type="text/css" id="style1-5">.st0{fill:none;stroke:#000000;stroke-width:2;stroke-miterlimit:10;}.st1{fill:none;stroke:#000000;stroke-width:2;stroke-linecap:round;stroke-miterlimit:10;}.st2{fill:none;stroke:#000000;stroke-width:2;stroke-linecap:round;stroke-linejoin:round;stroke-miterlimit:10;}.st3{fill:none;stroke:#000000;stroke-linecap:round;stroke-miterlimit:10;}.st4{fill:none;stroke:#000000;stroke-width:3;stroke-linecap:round;stroke-miterlimit:10;}.st5{fill:#FFFFFF;}.st6{stroke:#000000;stroke-width:2;stroke-miterlimit:10;}.st7{fill:none;stroke:#000000;stroke-width:2;stroke-linejoin:round;stroke-miterlimit:10;}.st8{fill:none;}.st9{fill:none;stroke:#000000;stroke-width:0;stroke-linecap:round;stroke-linejoin:round;}</style></svg>
