<?xml version="1.0" encoding="UTF-8" standalone="no"?>
<svg version="1.1" width="26.458334mm" height="26.45833mm" viewBox="0 0 75.000149 75.000082" id="svg165" xml:space="preserve" xmlns="http://www.w3.org/2000/svg" xmlns:svg="http://www.w3.org/2000/svg"><defs id="defs165" /><g id="layer1" style="opacity:1" transform="translate(-472.50077,-394.12566)"><g id="g114"><path d="m 472.50077,394.12566 v 75.00011 h 75.00012 v -75.00011 z" style="display:inline;opacity:1;fill:#80000000;fill-opacity:0.225;stroke:none;stroke-width:0.753376;stroke-linecap:round;stroke-linejoin:round;stroke-dasharray:none;stroke-opacity:1" id="path154-5-7-8-5-1-9" /><g id="g26" transform="matrix(1.7142884,0,0,1.7142884,467.14362,388.78564)" style="display:inline;opacity:1"><path style="fill:none;stroke:currentColor;stroke-width:2;stroke-opacity:1" d="M 36,44.99 H 14 c -4.971,0 -9,-4.029 -9,-9 v -22 c 0,-4.971 4.029,-9 9,-9 h 22 c 4.971,0 9,4.029 9,9 v 22 c 0,4.971 -4.029,9 -9,9 z" id="path1-8" /><path d="m 39.604,23.01 c -1.111,0 -2.431,0.28 -3.403,0.98 -0.278,0.21 -0.278,0.49 0.069,0.49 1.111,-0.14 3.612,-0.49 4.098,0.14 0.417,0.56 -0.486,2.941 -0.903,4.061 -0.139,0.35 0.139,0.42 0.417,0.21 1.875,-1.611 2.362,-4.902 2.014,-5.322 C 41.688,23.22 40.715,23.01 39.604,23.01 Z" id="path2-3" style="fill:currentColor;fill-opacity:1" /><path d="m 9.145,23.807 c 2.249,1.217 4.653,2.149 7.067,2.889 2.433,0.692 4.909,1.187 7.4,1.288 2.485,0.087 4.997,-0.107 7.449,-0.617 2.442,-0.504 4.905,-1.236 7.17,-2.279 L 38.27,25.07 c 0.251,-0.115 0.547,-0.006 0.663,0.245 0.102,0.222 0.028,0.48 -0.165,0.616 -2.214,1.57 -4.688,2.605 -7.285,3.277 -2.595,0.663 -5.297,0.914 -7.986,0.729 C 20.809,29.757 18.184,29.101 15.71,28.143 13.244,27.153 10.913,25.88 8.853,24.212 8.746,24.125 8.729,23.967 8.816,23.86 8.893,23.765 9.026,23.741 9.129,23.797 Z" id="path3-8" style="fill:currentColor;fill-opacity:1" /><polygon style="fill:none;stroke:currentColor;stroke-width:2;stroke-linejoin:round;stroke-opacity:1" points="26,16 18,16 18,5 32,5 32,10 " id="polygon3" /><polygon style="fill:none;stroke:currentColor;stroke-width:2;stroke-linejoin:round;stroke-opacity:1" points="26.009,10 32,10 26.009,16 " id="polygon4" /></g></g></g><style type="text/css" id="style1">.st0{fill:none;stroke:#000000;stroke-width:2;stroke-miterlimit:10;}.st1{fill:none;stroke:#000000;stroke-width:2;stroke-linecap:round;stroke-miterlimit:10;}.st2{fill:none;stroke:#000000;stroke-width:2;stroke-linecap:round;stroke-linejoin:round;stroke-miterlimit:10;}.st3{fill:none;stroke:#000000;stroke-linecap:round;stroke-miterlimit:10;}.st4{fill:none;stroke:#000000;stroke-width:3;stroke-linecap:round;stroke-miterlimit:10;}.st5{fill:#FFFFFF;}.st6{stroke:#000000;stroke-width:2;stroke-miterlimit:10;}.st7{fill:none;stroke:#000000;stroke-width:2;stroke-linejoin:round;stroke-miterlimit:10;}.st8{fill:none;}.st9{fill:none;stroke:#000000;stroke-width:0;stroke-linecap:round;stroke-linejoin:round;}</style><style type="text/css" id="style1-5">.st0{fill:none;stroke:#000000;stroke-width:2;stroke-miterlimit:10;}.st1{fill:none;stroke:#000000;stroke-width:2;stroke-linecap:round;stroke-miterlimit:10;}.st2{fill:none;stroke:#000000;stroke-width:2;stroke-linecap:round;stroke-linejoin:round;stroke-miterlimit:10;}.st3{fill:none;stroke:#000000;stroke-linecap:round;stroke-miterlimit:10;}.st4{fill:none;stroke:#000000;stroke-width:3;stroke-linecap:round;stroke-miterlimit:10;}.st5{fill:#FFFFFF;}.st6{stroke:#000000;stroke-width:2;stroke-miterlimit:10;}.st7{fill:none;stroke:#000000;stroke-width:2;stroke-linejoin:round;stroke-miterlimit:10;}.st8{fill:none;}.st9{fill:none;stroke:#000000;stroke-width:0;stroke-linecap:round;stroke-linejoin:round;}</style></svg>
