<?xml version="1.0" encoding="UTF-8" standalone="no"?>
<svg version="1.1" width="26.458332mm" height="26.458332mm" viewBox="0 0 75.000144 75.000088" id="svg165" xml:space="preserve" xmlns="http://www.w3.org/2000/svg" xmlns:svg="http://www.w3.org/2000/svg"><defs id="defs165" /><g id="layer3" style="display:inline;opacity:0.00700001;fill:maroon;fill-opacity:0.225" transform="translate(-315.00048,-393.75065)"><path d="m 315.0005,393.75065 v 75.00012 h 75.00013 v -75.00012 z" style="fill:maroon;fill-opacity:0.225;stroke:none;stroke-width:0.753376;stroke-linecap:round;stroke-linejoin:round;stroke-dasharray:none;stroke-opacity:1" id="path154-5-7-8-5-7" /></g><g id="layer1" transform="translate(-315.00048,-393.75065)"><path id="path98" style="clip-rule:evenodd;fill:none;fill-rule:evenodd;stroke:currentColor;stroke-width:3.13042;stroke-linecap:round;stroke-linejoin:round;stroke-miterlimit:10" d="m 352.50055,396.81586 c -19.00802,0 -34.4176,15.41741 -34.4176,34.43483 0,17.46161 12.98976,31.88354 29.82839,34.12963 v -6.93863 c 0,-1.95651 -1.2334,-3.71427 -3.08662,-4.33723 -9.71533,-3.26504 -16.66647,-12.55619 -16.40977,-23.43448 0.31148,-13.24333 11.09428,-23.6567 24.33446,-23.52211 13.19169,0.13297 23.84301,10.87358 23.84301,24.10282 0,1.23967 -0.0955,2.47931 -0.28329,3.70333 -2.95045,19.44002 -28.25692,30.36684 -28.39623,30.42631 1.50261,0.20027 3.0334,0.30523 4.58765,0.30523 19.00805,0 34.41763,-15.41742 34.41763,-34.43487 0,-19.01742 -15.40958,-34.43482 -34.41763,-34.43482" /></g><style type="text/css" id="style1">.st0{fill:none;stroke:currentColor;stroke-width:2;stroke-miterlimit:10;}.st1{fill:none;stroke:currentColor;stroke-width:2;stroke-linecap:round;stroke-miterlimit:10;}.st2{fill:none;stroke:currentColor;stroke-width:2;stroke-linecap:round;stroke-linejoin:round;stroke-miterlimit:10;}.st3{fill:none;stroke:currentColor;stroke-linecap:round;stroke-miterlimit:10;}.st4{fill:none;stroke:currentColor;stroke-width:3;stroke-linecap:round;stroke-miterlimit:10;}.st5{fill:#FFFFFF;}.st6{stroke:currentColor;stroke-width:2;stroke-miterlimit:10;}.st7{fill:none;stroke:currentColor;stroke-width:2;stroke-linejoin:round;stroke-miterlimit:10;}.st8{fill:none;}.st9{fill:none;stroke:currentColor;stroke-width:0;stroke-linecap:round;stroke-linejoin:round;}</style><style type="text/css" id="style1-5">.st0{fill:none;stroke:currentColor;stroke-width:2;stroke-miterlimit:10;}.st1{fill:none;stroke:currentColor;stroke-width:2;stroke-linecap:round;stroke-miterlimit:10;}.st2{fill:none;stroke:currentColor;stroke-width:2;stroke-linecap:round;stroke-linejoin:round;stroke-miterlimit:10;}.st3{fill:none;stroke:currentColor;stroke-linecap:round;stroke-miterlimit:10;}.st4{fill:none;stroke:currentColor;stroke-width:3;stroke-linecap:round;stroke-miterlimit:10;}.st5{fill:#FFFFFF;}.st6{stroke:currentColor;stroke-width:2;stroke-miterlimit:10;}.st7{fill:none;stroke:currentColor;stroke-width:2;stroke-linejoin:round;stroke-miterlimit:10;}.st8{fill:none;}.st9{fill:none;stroke:currentColor;stroke-width:0;stroke-linecap:round;stroke-linejoin:round;}</style></svg>
