<?xml version="1.0" encoding="UTF-8" standalone="no"?>
<svg version="1.1" width="26.458332mm" height="26.458332mm" viewBox="0 0 75.000144 75.000088" id="svg165" xml:space="preserve" xmlns="http://www.w3.org/2000/svg" xmlns:svg="http://www.w3.org/2000/svg"><defs id="defs165" /><g id="layer3" style="display:inline;opacity:0.00700001;fill:maroon;fill-opacity:0.225" transform="translate(-551.25086,-472.60578)"><path d="m 551.25089,472.60578 v 75.00012 h 75.00012 v -75.00012 z" style="display:inline;fill:maroon;fill-opacity:0.225;stroke:none;stroke-width:0.753376;stroke-linecap:round;stroke-linejoin:round;stroke-dasharray:none;stroke-opacity:1" id="path154-9-76-5-0" /></g><g id="layer1" transform="translate(-551.25086,-472.60578)"><g style="clip-rule:evenodd;fill-rule:evenodd" id="g50" transform="matrix(1.4400023,0,0,1.4400023,552.75089,474.10578)"><path fill-rule="evenodd" clip-rule="evenodd" fill="none" stroke="currentColor" stroke-width="2" stroke-linecap="round" stroke-linejoin="round" stroke-miterlimit="10" d="M 38,14 C 37.159,8.359 31.667,4 25,4 18.333,4 12.841,8.359 12,14 Z" id="path1-27" /><line fill="none" stroke="currentColor" stroke-width="2" stroke-linecap="round" stroke-linejoin="round" stroke-miterlimit="10" x1="30.719" y1="5.1560001" x2="33.522999" y2="1" id="line1" /><path fill-rule="evenodd" clip-rule="evenodd" d="M 32,9.498 C 32,8.67 31.33,8 30.497,8 29.67,8 29,8.67 29,9.498 29,10.33 29.67,11 30.497,11 31.33,11 32,10.33 32,9.498 Z" id="path2-7" /><line fill="none" stroke="currentColor" stroke-width="2" stroke-linecap="round" stroke-linejoin="round" stroke-miterlimit="10" x1="19.281" y1="5.1560001" x2="16.476999" y2="1" id="line2-9" /><path fill-rule="evenodd" clip-rule="evenodd" d="M 19.503,11 C 20.33,11 21,10.33 21,9.498 21,8.67 20.33,8 19.503,8 18.67,8 18,8.67 18,9.498 18,10.33 18.67,11 19.503,11 Z" id="path3-55" /><path fill-rule="evenodd" clip-rule="evenodd" fill="none" stroke="currentColor" stroke-width="2" stroke-linecap="round" stroke-linejoin="round" stroke-miterlimit="10" d="m 12,14 v 23 c 0,1.104 0.896,2 2,2 0.241,0 21.759,0 22,0 1.104,0 2,-0.896 2,-2 V 14" id="path4-40" /><path fill-rule="evenodd" clip-rule="evenodd" fill="none" stroke="currentColor" stroke-width="2" stroke-linecap="round" stroke-linejoin="round" stroke-miterlimit="10" d="m 41,16 c -1.657,0 -3,1.343 -3,3 0,0.431 0,11.569 0,12 0,1.657 1.343,3 3,3 1.657,0 3,-1.343 3,-3 0,-0.431 0,-11.569 0,-12 0,-1.657 -1.343,-3 -3,-3 z" id="path5-34" /><path fill-rule="evenodd" clip-rule="evenodd" fill="none" stroke="currentColor" stroke-width="2" stroke-linecap="round" stroke-linejoin="round" stroke-miterlimit="10" d="m 9,16 c -1.657,0 -3,1.343 -3,3 0,0.431 0,11.569 0,12 0,1.657 1.343,3 3,3 1.657,0 3,-1.343 3,-3 0,-0.431 0,-11.569 0,-12 0,-1.657 -1.343,-3 -3,-3 z" id="path6-1" /><path fill-rule="evenodd" clip-rule="evenodd" fill="none" stroke="currentColor" stroke-width="2" stroke-linecap="round" stroke-linejoin="round" stroke-miterlimit="10" d="m 16,39 c 0,0.549 0,6.451 0,7 0,1.657 1.343,3 3,3 1.657,0 3,-1.343 3,-3 0,-0.549 0,-6.451 0,-7" id="path7-2" /><path fill-rule="evenodd" clip-rule="evenodd" fill="none" stroke="currentColor" stroke-width="2" stroke-linecap="round" stroke-linejoin="round" stroke-miterlimit="10" d="m 28,39 c 0,0.549 0,6.451 0,7 0,1.657 1.343,3 3,3 1.657,0 3,-1.343 3,-3 0,-0.549 0,-6.451 0,-7" id="path8-2" /></g></g><style type="text/css" id="style1">.st0{fill:none;stroke:currentColor;stroke-width:2;stroke-miterlimit:10;}.st1{fill:none;stroke:currentColor;stroke-width:2;stroke-linecap:round;stroke-miterlimit:10;}.st2{fill:none;stroke:currentColor;stroke-width:2;stroke-linecap:round;stroke-linejoin:round;stroke-miterlimit:10;}.st3{fill:none;stroke:currentColor;stroke-linecap:round;stroke-miterlimit:10;}.st4{fill:none;stroke:currentColor;stroke-width:3;stroke-linecap:round;stroke-miterlimit:10;}.st5{fill:#FFFFFF;}.st6{stroke:currentColor;stroke-width:2;stroke-miterlimit:10;}.st7{fill:none;stroke:currentColor;stroke-width:2;stroke-linejoin:round;stroke-miterlimit:10;}.st8{fill:none;}.st9{fill:none;stroke:currentColor;stroke-width:0;stroke-linecap:round;stroke-linejoin:round;}</style><style type="text/css" id="style1-5">.st0{fill:none;stroke:currentColor;stroke-width:2;stroke-miterlimit:10;}.st1{fill:none;stroke:currentColor;stroke-width:2;stroke-linecap:round;stroke-miterlimit:10;}.st2{fill:none;stroke:currentColor;stroke-width:2;stroke-linecap:round;stroke-linejoin:round;stroke-miterlimit:10;}.st3{fill:none;stroke:currentColor;stroke-linecap:round;stroke-miterlimit:10;}.st4{fill:none;stroke:currentColor;stroke-width:3;stroke-linecap:round;stroke-miterlimit:10;}.st5{fill:#FFFFFF;}.st6{stroke:currentColor;stroke-width:2;stroke-miterlimit:10;}.st7{fill:none;stroke:currentColor;stroke-width:2;stroke-linejoin:round;stroke-miterlimit:10;}.st8{fill:none;}.st9{fill:none;stroke:currentColor;stroke-width:0;stroke-linecap:round;stroke-linejoin:round;}</style></svg>
