<?xml version="1.0" encoding="UTF-8" standalone="no"?>
<svg version="1.1" width="26.458332mm" height="26.458332mm" viewBox="0 0 75.000144 75.000088" id="svg165" xml:space="preserve" xmlns="http://www.w3.org/2000/svg" xmlns:svg="http://www.w3.org/2000/svg"><defs id="defs165" /><g id="layer3" style="display:inline;opacity:0.00700001;fill:maroon;fill-opacity:0.225" transform="translate(-551.25086,-393.75065)"><path d="m 551.25089,393.75065 v 75.00012 h 75.00012 v -75.00012 z" style="display:inline;fill:maroon;fill-opacity:0.225;stroke:none;stroke-width:0.753376;stroke-linecap:round;stroke-linejoin:round;stroke-dasharray:none;stroke-opacity:1" id="path154-9-7-3-8-1" /></g><g id="layer1" transform="translate(-551.25086,-393.75065)"><g id="g27" transform="matrix(1.7142884,0,0,1.7142884,545.89374,388.3935)"><path d="m 16.062,19.065 c 0.504,-0.581 1.31,-0.968 2.015,-1.065 0.101,0.774 -0.201,1.548 -0.604,2.032 -0.504,0.581 -1.21,0.968 -2.015,0.968 -0.202,-0.677 0.1,-1.355 0.604,-1.935 z M 20.393,29.1 c -0.604,0.8 -1.41,1.9 -2.317,1.9 -0.907,0 -1.108,-0.6 -2.216,-0.5 -1.209,0 -1.41,0.6 -2.317,0.5 -1.007,0 -1.712,-0.9 -2.216,-1.8 -1.511,-2.3 -1.712,-5.1 -0.705,-6.6 0.705,-1 1.712,-1.6 2.72,-1.6 1.008,0 1.712,0.6 2.518,0.6 0.806,0 1.31,-0.6 2.518,-0.6 0.907,0 1.813,0.5 2.518,1.3 -2.216,1.2 -1.813,4.3 0.403,5.2 -0.402,0.7 -0.603,1 -0.906,1.6 z" id="path1-72" /><path d="m 26.8,18 v 3 h 2.6 v 1.375 H 26.8 V 27.6 c 0,1.2 0.3,1.9 1.4,1.9 0.5,0 0.8,0 1,-0.1 l 0.1,1.4 C 29,30.9 28.4,31 27.7,31 26.9,31 26.2,30.7 25.7,30.2 25.2,29.6 25,28.8 25,27.6 V 22.375 H 23.5 V 21 H 25 v -2.5 z" id="path2-69" /><path d="m 32.52,21 1.995,5.6 c 0.299,0.9 0.598,1.7 0.798,2.6 h 0.1 c 0.199,-0.8 0.499,-1.6 0.798,-2.6 L 38.106,21 H 40 l -3.89,10 h -1.695 l -3.79,-10 z" id="path3-3" /><path style="fill:none;stroke:currentColor;stroke-width:2;stroke-linecap:round;stroke-linejoin:round;stroke-miterlimit:10" d="M 41,5 H 9 C 6.791,5 5,6.791 5,9 v 32 c 0,2.209 1.791,4 4,4 h 32 c 2.209,0 4,-1.791 4,-4 V 9 C 45,6.791 43.209,5 41,5 Z" id="path4-81" /></g></g><style type="text/css" id="style1">.st0{fill:none;stroke:currentColor;stroke-width:2;stroke-miterlimit:10;}.st1{fill:none;stroke:currentColor;stroke-width:2;stroke-linecap:round;stroke-miterlimit:10;}.st2{fill:none;stroke:currentColor;stroke-width:2;stroke-linecap:round;stroke-linejoin:round;stroke-miterlimit:10;}.st3{fill:none;stroke:currentColor;stroke-linecap:round;stroke-miterlimit:10;}.st4{fill:none;stroke:currentColor;stroke-width:3;stroke-linecap:round;stroke-miterlimit:10;}.st5{fill:#FFFFFF;}.st6{stroke:currentColor;stroke-width:2;stroke-miterlimit:10;}.st7{fill:none;stroke:currentColor;stroke-width:2;stroke-linejoin:round;stroke-miterlimit:10;}.st8{fill:none;}.st9{fill:none;stroke:currentColor;stroke-width:0;stroke-linecap:round;stroke-linejoin:round;}</style><style type="text/css" id="style1-5">.st0{fill:none;stroke:currentColor;stroke-width:2;stroke-miterlimit:10;}.st1{fill:none;stroke:currentColor;stroke-width:2;stroke-linecap:round;stroke-miterlimit:10;}.st2{fill:none;stroke:currentColor;stroke-width:2;stroke-linecap:round;stroke-linejoin:round;stroke-miterlimit:10;}.st3{fill:none;stroke:currentColor;stroke-linecap:round;stroke-miterlimit:10;}.st4{fill:none;stroke:currentColor;stroke-width:3;stroke-linecap:round;stroke-miterlimit:10;}.st5{fill:#FFFFFF;}.st6{stroke:currentColor;stroke-width:2;stroke-miterlimit:10;}.st7{fill:none;stroke:currentColor;stroke-width:2;stroke-linejoin:round;stroke-miterlimit:10;}.st8{fill:none;}.st9{fill:none;stroke:currentColor;stroke-width:0;stroke-linecap:round;stroke-linejoin:round;}</style></svg>
