<?xml version="1.0" encoding="UTF-8" standalone="no"?>
<svg version="1.1" width="26.458326mm" height="26.45833mm" viewBox="0 0 75.000128 75.000082" id="svg165" xml:space="preserve" xmlns="http://www.w3.org/2000/svg" xmlns:svg="http://www.w3.org/2000/svg"><defs id="defs165" /><g id="layer1" style="opacity:1" transform="translate(-1732.5028,-393.75066)"><g id="g130"><path d="m 1732.5028,393.75066 v 75.00011 h 75.0001 v -75.00011 z" style="display:inline;opacity:1;fill:#80000000;fill-opacity:0.225;stroke:none;stroke-width:0.753376;stroke-linecap:round;stroke-linejoin:round;stroke-dasharray:none;stroke-opacity:1" id="path154-5-7-8-5-1-9-7" /><path style="display:inline;opacity:1;fill:none;stroke:currentColor;stroke-width:3;stroke-linecap:round;stroke-linejoin:round;stroke-miterlimit:10;stroke-opacity:1" d="m 1799.677,447.37548 c -1.6215,3.5895 -2.397,5.19601 -4.479,8.36851 -2.91,4.43101 -7.017,9.96002 -12.096,9.99752 -4.518,0.0375 -5.6835,-2.94751 -11.814,-2.89801 -6.1305,0.03 -7.4086,2.95351 -11.9311,2.90701 -5.079,-0.0465 -8.967,-5.02801 -11.88,-9.45002 -8.1435,-12.40652 -9.003,-26.94604 -3.9705,-34.68155 3.561,-5.48551 9.195,-8.70751 14.4855,-8.70751 5.388,0 8.7751,2.961 13.2301,2.961 4.323,0 6.9555,-2.9685 13.1865,-2.9685 4.713,0 9.696,2.568 13.257,6.99901 -11.649,6.38251 -9.756,23.02053 2.0115,27.47254 z m -19.998,-39.42306 c 2.2665,-2.91001 3.9855,-7.01551 3.363,-11.20202 -3.699,0.252 -8.0235,2.6145 -10.551,5.67301 -2.289,2.7855 -4.1865,6.92251 -3.447,10.92452 4.035,0.1305 8.211,-2.27551 10.635,-5.39551 z" id="path1-36" /></g></g><style type="text/css" id="style1">.st0{fill:none;stroke:#000000;stroke-width:2;stroke-miterlimit:10;}.st1{fill:none;stroke:#000000;stroke-width:2;stroke-linecap:round;stroke-miterlimit:10;}.st2{fill:none;stroke:#000000;stroke-width:2;stroke-linecap:round;stroke-linejoin:round;stroke-miterlimit:10;}.st3{fill:none;stroke:#000000;stroke-linecap:round;stroke-miterlimit:10;}.st4{fill:none;stroke:#000000;stroke-width:3;stroke-linecap:round;stroke-miterlimit:10;}.st5{fill:#FFFFFF;}.st6{stroke:#000000;stroke-width:2;stroke-miterlimit:10;}.st7{fill:none;stroke:#000000;stroke-width:2;stroke-linejoin:round;stroke-miterlimit:10;}.st8{fill:none;}.st9{fill:none;stroke:#000000;stroke-width:0;stroke-linecap:round;stroke-linejoin:round;}</style><style type="text/css" id="style1-5">.st0{fill:none;stroke:#000000;stroke-width:2;stroke-miterlimit:10;}.st1{fill:none;stroke:#000000;stroke-width:2;stroke-linecap:round;stroke-miterlimit:10;}.st2{fill:none;stroke:#000000;stroke-width:2;stroke-linecap:round;stroke-linejoin:round;stroke-miterlimit:10;}.st3{fill:none;stroke:#000000;stroke-linecap:round;stroke-miterlimit:10;}.st4{fill:none;stroke:#000000;stroke-width:3;stroke-linecap:round;stroke-miterlimit:10;}.st5{fill:#FFFFFF;}.st6{stroke:#000000;stroke-width:2;stroke-miterlimit:10;}.st7{fill:none;stroke:#000000;stroke-width:2;stroke-linejoin:round;stroke-miterlimit:10;}.st8{fill:none;}.st9{fill:none;stroke:#000000;stroke-width:0;stroke-linecap:round;stroke-linejoin:round;}</style></svg>
