<?xml version="1.0" encoding="UTF-8" standalone="no"?>
<svg version="1.1" width="26.458363mm" height="26.458334mm" viewBox="0 0 75.000231 75.000093" id="svg165" xml:space="preserve" xmlns="http://www.w3.org/2000/svg" xmlns:svg="http://www.w3.org/2000/svg"><defs id="defs165" /><g id="layer1" style="opacity:1" transform="translate(-2205.0035,-394.50065)"><g id="g136"><path d="m 2205.0035,394.50065 v 75.00012 h 75.0002 v -75.00012 z" style="display:inline;opacity:1;fill:#80000000;fill-opacity:0.225;stroke:none;stroke-width:0.753376;stroke-linecap:round;stroke-linejoin:round;stroke-dasharray:none;stroke-opacity:1" id="path154-5-7-9-2-76-7-0-5" /><g id="g43" transform="matrix(1.7142884,0,0,1.7142884,2199.6464,389.1435)" style="display:inline;opacity:1;stroke:currentColor;stroke-opacity:1"><path id="path2314_1_" style="fill:none;stroke:currentColor;stroke-width:2;stroke-miterlimit:10;stroke-opacity:1" d="M 38.321,21 H 19.91 l 1.069,-5 h 11.516 l 1.064,-5 H 16.98 l -5.301,25 h 5.03 l 2.344,-11 h 11.93 l -9.784,9.686 1.719,3.041 c 0.793,-0.529 2.083,-0.595 2.975,-0.595 1.587,0 3.141,0.529 4.76,0.529 1.485,0 3.005,-0.099 5.485,-1.289 l 0.866,-4.066 c -1.686,0.694 -4.181,1.355 -6.351,1.355 -0.892,0 -1.719,-0.198 -2.578,-0.331 l 9.484,-9.223 z" /><path style="fill:none;stroke:currentColor;stroke-width:2;stroke-linejoin:round;stroke-miterlimit:10;stroke-opacity:1" d="m 45,43 v -4 c -1.105,0 -2,-0.895 -2,-2 0,-1.105 0.895,-2 2,-2 v -4 c -1.105,0 -2,-0.895 -2,-2 0,-1.105 0.895,-2 2,-2 v -4 c -1.105,0 -2,-0.895 -2,-2 0,-1.105 0.895,-2 2,-2 v -4 c -1.105,0 -2,-0.895 -2,-2 0,-1.105 0.895,-2 2,-2 V 7 C 43.895,7 43,6.105 43,5 H 39 C 39,6.105 38.105,7 37,7 35.895,7 35,6.105 35,5 H 31 C 31,6.105 30.105,7 29,7 27.895,7 27,6.105 27,5 H 23 C 23,6.105 22.105,7 21,7 19.895,7 19,6.105 19,5 H 15 C 15,6.105 14.105,7 13,7 11.895,7 11,6.105 11,5 H 7 C 7,6.105 6.105,7 5,7 v 4 c 1.105,0 2,0.895 2,2 0,1.105 -0.895,2 -2,2 v 4 c 1.105,0 2,0.895 2,2 0,1.105 -0.895,2 -2,2 v 4 c 1.105,0 2,0.895 2,2 0,1.105 -0.895,2 -2,2 v 4 c 1.105,0 2,0.895 2,2 0,1.105 -0.895,2 -2,2 v 4 c 1.105,0 2,0.895 2,2 h 4 c 0,-1.105 0.895,-2 2,-2 1.105,0 2,0.895 2,2 h 4 c 0,-1.105 0.895,-2 2,-2 1.105,0 2,0.895 2,2 h 4 c 0,-1.105 0.895,-2 2,-2 1.105,0 2,0.895 2,2 h 4 c 0,-1.105 0.895,-2 2,-2 1.105,0 2,0.895 2,2 h 4 c 0,-1.105 0.895,-2 2,-2 z" id="path1-40" /></g></g></g><style type="text/css" id="style1">.st0{fill:none;stroke:#000000;stroke-width:2;stroke-miterlimit:10;}.st1{fill:none;stroke:#000000;stroke-width:2;stroke-linecap:round;stroke-miterlimit:10;}.st2{fill:none;stroke:#000000;stroke-width:2;stroke-linecap:round;stroke-linejoin:round;stroke-miterlimit:10;}.st3{fill:none;stroke:#000000;stroke-linecap:round;stroke-miterlimit:10;}.st4{fill:none;stroke:#000000;stroke-width:3;stroke-linecap:round;stroke-miterlimit:10;}.st5{fill:#FFFFFF;}.st6{stroke:#000000;stroke-width:2;stroke-miterlimit:10;}.st7{fill:none;stroke:#000000;stroke-width:2;stroke-linejoin:round;stroke-miterlimit:10;}.st8{fill:none;}.st9{fill:none;stroke:#000000;stroke-width:0;stroke-linecap:round;stroke-linejoin:round;}</style><style type="text/css" id="style1-5">.st0{fill:none;stroke:#000000;stroke-width:2;stroke-miterlimit:10;}.st1{fill:none;stroke:#000000;stroke-width:2;stroke-linecap:round;stroke-miterlimit:10;}.st2{fill:none;stroke:#000000;stroke-width:2;stroke-linecap:round;stroke-linejoin:round;stroke-miterlimit:10;}.st3{fill:none;stroke:#000000;stroke-linecap:round;stroke-miterlimit:10;}.st4{fill:none;stroke:#000000;stroke-width:3;stroke-linecap:round;stroke-miterlimit:10;}.st5{fill:#FFFFFF;}.st6{stroke:#000000;stroke-width:2;stroke-miterlimit:10;}.st7{fill:none;stroke:#000000;stroke-width:2;stroke-linejoin:round;stroke-miterlimit:10;}.st8{fill:none;}.st9{fill:none;stroke:#000000;stroke-width:0;stroke-linecap:round;stroke-linejoin:round;}</style></svg>
