<?xml version="1.0" encoding="UTF-8" standalone="no"?>
<svg version="1.1" width="26.458332mm" height="26.458334mm" viewBox="0 0 75.000144 75.000093" id="svg165" xml:space="preserve" xmlns="http://www.w3.org/2000/svg" xmlns:svg="http://www.w3.org/2000/svg"><defs id="defs165" /><g id="layer1" style="opacity:1" transform="translate(-78.750127,-393.75065)"><g id="g85"><path d="m 78.750127,393.75065 v 75.00012 h 75.000113 v -75.00012 z" style="display:inline;opacity:1;fill:#80000000;fill-opacity:0.225;stroke:none;stroke-width:0.753376;stroke-linecap:round;stroke-linejoin:round;stroke-dasharray:none;stroke-opacity:1" id="path154-5-7-8-14-1" /><g id="layer2-0" style="display:inline;opacity:1;fill:#80000000;fill-opacity:0.225" transform="matrix(0.8645493,0,0,0.8645493,-16.29802,241.24759)"><path style="display:inline;fill:#999;fill-opacity:1;fill-rule:evenodd;stroke:none;stroke-width:0.151347" d="m 156.90563,239.27644 c 0,1.07617 -0.36595,2.05502 -1.24651,2.71331 -0.69186,0.52091 -1.50381,0.8014 -2.37293,0.8014 -0.89199,0 -1.70965,-0.26332 -2.41295,-0.81284 -0.86341,-0.6583 -1.20648,-1.64287 -1.20648,-2.70187 v -27.52236 c 0,-1.04755 0.36023,-1.99778 1.20648,-2.64462 0.7033,-0.54381 1.52096,-0.80713 2.41295,-0.80713 0.86912,0 1.68107,0.27477 2.37293,0.79568 0.86341,0.64684 1.24651,1.59135 1.24651,2.65607 z m 0.0572,-38.00926 c 0,1.08189 -0.36595,2.06647 -1.23507,2.70187 -0.69187,0.53236 -1.50381,0.81285 -2.38437,0.81285 -0.89199,0 -1.72681,-0.26905 -2.41296,-0.81285 -0.85768,-0.6583 -1.20076,-1.63715 -1.20076,-2.70187 v -0.84147 c 0,-1.04754 0.36023,-1.99777 1.18361,-2.62744 0.7033,-0.56098 1.53812,-0.83002 2.43011,-0.83002 0.88056,0 1.6925,0.28049 2.36722,0.8014 0.87483,0.64112 1.25222,1.59135 1.25222,2.65606 z" id="path2-5-5-2-7" /><path style="display:inline;fill:#9fdb58;fill-opacity:1;fill-rule:evenodd;stroke:none;stroke-width:0.151347" d="m 158.58028,180.3077 14.36337,14.37941 -4.36276,4.36763 -11.02984,-11.0536 c -2.3329,-2.33551 -6.14103,-2.33551 -8.46821,0 l -27.46881,27.52809 c -2.3272,2.33551 -2.3272,6.15361 0,8.48912 l 11.00696,11.03069 -4.36848,4.37336 -14.35765,-14.3794 c -2.89898,-2.89649 -2.89898,-7.64193 0,-10.54414 l 34.15303,-34.19116 c 2.89898,-2.90221 7.63912,-2.90221 10.53239,0 z m 19.79538,19.81748 14.36337,14.37368 c 2.89326,2.90221 2.89326,7.64765 0,10.54414 L 158.586,259.23415 c -2.89899,2.90221 -7.63913,2.90221 -10.53811,0.006 l -14.35765,-14.37941 4.36276,-4.36763 11.02984,11.05359 c 2.32718,2.32979 6.13531,2.33551 8.46821,0 l 27.4631,-27.52808 c 2.3329,-2.3355 2.3329,-6.15361 0,-8.48911 l -11.00697,-11.03098 z" id="path1-4-0-1" /></g></g></g><style type="text/css" id="style1">.st0{fill:none;stroke:#000000;stroke-width:2;stroke-miterlimit:10;}.st1{fill:none;stroke:#000000;stroke-width:2;stroke-linecap:round;stroke-miterlimit:10;}.st2{fill:none;stroke:#000000;stroke-width:2;stroke-linecap:round;stroke-linejoin:round;stroke-miterlimit:10;}.st3{fill:none;stroke:#000000;stroke-linecap:round;stroke-miterlimit:10;}.st4{fill:none;stroke:#000000;stroke-width:3;stroke-linecap:round;stroke-miterlimit:10;}.st5{fill:#FFFFFF;}.st6{stroke:#000000;stroke-width:2;stroke-miterlimit:10;}.st7{fill:none;stroke:#000000;stroke-width:2;stroke-linejoin:round;stroke-miterlimit:10;}.st8{fill:none;}.st9{fill:none;stroke:#000000;stroke-width:0;stroke-linecap:round;stroke-linejoin:round;}</style><style type="text/css" id="style1-5">.st0{fill:none;stroke:#000000;stroke-width:2;stroke-miterlimit:10;}.st1{fill:none;stroke:#000000;stroke-width:2;stroke-linecap:round;stroke-miterlimit:10;}.st2{fill:none;stroke:#000000;stroke-width:2;stroke-linecap:round;stroke-linejoin:round;stroke-miterlimit:10;}.st3{fill:none;stroke:#000000;stroke-linecap:round;stroke-miterlimit:10;}.st4{fill:none;stroke:#000000;stroke-width:3;stroke-linecap:round;stroke-miterlimit:10;}.st5{fill:#FFFFFF;}.st6{stroke:#000000;stroke-width:2;stroke-miterlimit:10;}.st7{fill:none;stroke:#000000;stroke-width:2;stroke-linejoin:round;stroke-miterlimit:10;}.st8{fill:none;}.st9{fill:none;stroke:#000000;stroke-width:0;stroke-linecap:round;stroke-linejoin:round;}</style></svg>
