<?xml version="1.0" encoding="UTF-8" standalone="no"?>
<svg version="1.1" width="26.458338mm" height="26.458334mm" viewBox="0 0 75.00016 75.000093" id="svg165" xml:space="preserve" xmlns="http://www.w3.org/2000/svg" xmlns:svg="http://www.w3.org/2000/svg"><defs id="defs165" /><g id="layer1" style="opacity:1" transform="translate(-157.50024,-393.75065)"><g id="g110"><path d="m 157.50024,393.75065 v 75.00012 h 75.00013 v -75.00012 z" style="display:inline;opacity:1;fill:#80000000;fill-opacity:0.225;stroke:none;stroke-width:0.753376;stroke-linecap:round;stroke-linejoin:round;stroke-dasharray:none;stroke-opacity:1" id="path154-5-7-9-2-2-3" /><g id="g55" style="display:inline;opacity:1;fill:currentColor;fill-opacity:1"><path id="rect6" style="vector-effect:non-scaling-stroke;fill:currentColor;fill-opacity:1;stroke:none;stroke-width:2.11734;stroke-linecap:round;stroke-linejoin:round;stroke-dasharray:none;stroke-opacity:1;-inkscape-stroke:hairline" d="m 195.28437,407.94489 c -1.87713,-1.4e-4 -3.7474,0.2264 -5.57017,0.67497 v 45.26165 c 1.82277,0.44849 3.69304,0.67515 5.57017,0.67502 1.68205,10e-5 3.35916,-0.18179 5.00204,-0.54282 V 408.4877 c -1.64288,-0.36092 -3.31999,-0.54293 -5.00204,-0.54281 z" /><path id="path5-5" style="display:inline;vector-effect:non-scaling-stroke;fill:currentColor;fill-opacity:1;stroke:none;stroke-width:1.381;stroke-linecap:round;stroke-linejoin:round;stroke-dasharray:none;stroke-opacity:1;-inkscape-stroke:hairline" d="m 195.00031,395.25066 a 35.999611,35.999611 0 0 0 -5.22704,0.38108 v 10.26001 a 25.891473,25.891473 0 0 1 5.22704,-0.53296 25.891473,25.891473 0 0 1 5.00204,0.48796 v -10.24736 a 35.999611,35.999611 0 0 0 -5.00204,-0.34873 z m 7.82298,0.86062 v 10.45687 a 25.891473,25.891473 0 0 1 18.06894,24.68255 25.891473,25.891473 0 0 1 -25.89192,25.89193 25.891473,25.891473 0 0 1 -25.89192,-25.89193 25.891473,25.891473 0 0 1 17.84394,-24.6094 v -10.4794 a 35.999611,35.999611 0 0 0 -27.95209,35.0888 35.999611,35.999611 0 0 0 36.00007,36.00007 35.999611,35.999611 0 0 0 36.00006,-36.00007 35.999611,35.999611 0 0 0 -28.17708,-35.13942 z" /></g></g></g><style type="text/css" id="style1">.st0{fill:none;stroke:#000000;stroke-width:2;stroke-miterlimit:10;}.st1{fill:none;stroke:#000000;stroke-width:2;stroke-linecap:round;stroke-miterlimit:10;}.st2{fill:none;stroke:#000000;stroke-width:2;stroke-linecap:round;stroke-linejoin:round;stroke-miterlimit:10;}.st3{fill:none;stroke:#000000;stroke-linecap:round;stroke-miterlimit:10;}.st4{fill:none;stroke:#000000;stroke-width:3;stroke-linecap:round;stroke-miterlimit:10;}.st5{fill:#FFFFFF;}.st6{stroke:#000000;stroke-width:2;stroke-miterlimit:10;}.st7{fill:none;stroke:#000000;stroke-width:2;stroke-linejoin:round;stroke-miterlimit:10;}.st8{fill:none;}.st9{fill:none;stroke:#000000;stroke-width:0;stroke-linecap:round;stroke-linejoin:round;}</style><style type="text/css" id="style1-5">.st0{fill:none;stroke:#000000;stroke-width:2;stroke-miterlimit:10;}.st1{fill:none;stroke:#000000;stroke-width:2;stroke-linecap:round;stroke-miterlimit:10;}.st2{fill:none;stroke:#000000;stroke-width:2;stroke-linecap:round;stroke-linejoin:round;stroke-miterlimit:10;}.st3{fill:none;stroke:#000000;stroke-linecap:round;stroke-miterlimit:10;}.st4{fill:none;stroke:#000000;stroke-width:3;stroke-linecap:round;stroke-miterlimit:10;}.st5{fill:#FFFFFF;}.st6{stroke:#000000;stroke-width:2;stroke-miterlimit:10;}.st7{fill:none;stroke:#000000;stroke-width:2;stroke-linejoin:round;stroke-miterlimit:10;}.st8{fill:none;}.st9{fill:none;stroke:#000000;stroke-width:0;stroke-linecap:round;stroke-linejoin:round;}</style></svg>
