<?xml version="1.0" encoding="UTF-8" standalone="no"?>
<svg version="1.1" width="26.458334mm" height="26.458334mm" viewBox="0 0 75.000149 75.000093" id="svg165" xml:space="preserve" xmlns="http://www.w3.org/2000/svg" xmlns:svg="http://www.w3.org/2000/svg"><defs id="defs165" /><g id="layer1" style="opacity:1" transform="translate(-78.567813,-472.50078)"><g id="g149"><path d="M 78.567813,472.50078 V 547.5009 H 153.56793 V 472.50078 Z" style="display:inline;opacity:1;fill:#80000000;fill-opacity:0.225;stroke:none;stroke-width:0.753376;stroke-linecap:round;stroke-linejoin:round;stroke-dasharray:none;stroke-opacity:1" id="path154-5-7-2-6" /><path d="m 86.909244,500.3389 c 0.987842,0 2.043364,0 3.031205,0 -0.01008,6.02641 -0.0216,12.05426 -0.03168,18.08067 -1.058401,0.108 -2.221923,0.25632 -3.278885,0.37728 -1.349282,-3.77712 -2.181604,-6.12289 -3.535206,-10.09729 -0.0029,4.03776 -0.0058,6.52033 -0.0086,10.55953 -0.983521,0.12817 -2.036163,0.26209 -3.018245,0.40177 0,-6.44113 0,-12.88083 0,-19.32196 1.108802,0 1.801443,0 2.910245,0 1.307522,4.22785 2.610724,6.89042 3.912486,10.91234 0.0072,-4.12128 0.01296,-6.79105 0.01872,-10.91234 z m 14.371226,2.98513 c 0.001,-0.86832 -0.0202,-2.1168 -0.0187,-2.98513 -2.810887,0 -5.585772,0 -8.396656,0 -0.01152,5.94145 -0.02304,11.88434 -0.03456,17.82579 2.809444,-0.25488 5.620329,-0.46368 8.434096,-0.6264 10e-4,-0.86832 0.003,-2.11824 0.004,-2.98656 -1.830245,0.11232 -3.579848,0.22896 -5.404331,0.3528 0.0029,-1.59696 0.0058,-2.91889 0.01008,-4.51585 1.332002,-0.023 2.740324,-0.003 4.101126,-0.0259 0.0014,-0.87264 0.0029,-2.12688 0.0043,-2.99952 -1.349282,0.0245 -2.773444,0.0274 -4.101126,0.0518 0.0029,-1.59841 0.0058,-2.47393 0.01008,-4.07233 0.836641,-0.0101 4.695851,-0.0115 5.391371,-0.0187 z m 1.94544,-9.6e-4 c 0.13392,-0.002 3.04704,0.0144 3.15072,0.0144 -0.006,4.79089 -0.013,9.16561 -0.0187,13.9565 0.98928,-0.0374 2.04768,-0.0677 3.03697,-0.0922 0.004,-4.76353 0.009,-9.11377 0.013,-13.8773 1.04544,-0.005 2.12543,-0.007 3.16943,-0.009 0,-0.84816 10e-4,-2.11248 10e-4,-2.96065 -3.0816,0 -6.26834,0 -9.34994,0 0,0.86113 -0.001,2.10385 -0.003,2.96785 z m 19.75251,-2.98369 c -2.81089,0 -5.62033,0 -8.43122,0 -0.001,5.59297 -0.001,11.18594 -0.003,16.77891 0.32544,-9.6e-4 0.6552,-9.6e-4 0.98641,-9.6e-4 0.67392,0 1.3536,0.003 2.01744,0.007 -9.6e-4,-2.37312 -9.6e-4,-4.54033 -9.6e-4,-6.91345 0.1656,0 3.708,-0.005 4.10544,9.6e-4 0,-0.85104 -0.002,-2.1168 -0.003,-2.96784 -0.37584,-0.005 -3.94992,0 -4.104,0 0,-1.52641 -9.6e-4,-2.38753 -9.6e-4,-3.91249 0.32976,0 4.61377,0.002 5.43601,0.005 0,-0.85248 -9.6e-4,-2.14416 -9.6e-4,-2.99665 z m 4.98816,14.07171 c -0.008,-4.83553 0.0187,-9.22322 0.0115,-14.05875 -0.98784,0 -2.04336,0 -3.0312,0 0.007,5.64769 -0.0202,11.29394 -0.013,16.94163 2.69568,0.1008 5.52817,0.2088 8.22097,0.396 -0.002,-0.86832 -0.003,-2.11824 -0.005,-2.98656 -1.70496,-0.1008 -3.47904,-0.22032 -5.18401,-0.29232 z m 7.70978,3.46176 c 0.98784,0.0763 2.0088,0.1584 2.99665,0.24624 0.004,-5.91841 0.0115,-11.84402 0,-17.76531 -0.98785,0 -2.04337,0 -3.03121,0 0.0115,5.83921 0.023,11.67986 0.0346,17.51907 z m 12.42866,-8.41825 c 1.28016,-3.03409 2.58625,-5.92849 3.9168,-9.10082 -1.09152,0 -2.2176,0 -3.31056,0 -0.8208,1.95985 -1.38528,3.21985 -2.17153,5.08609 -0.73295,-1.94112 -1.22399,-3.19824 -1.9584,-5.08609 -1.09152,0 -2.2176,0 -3.31056,0 1.21248,2.95345 2.32128,5.91409 3.55248,9.05042 -1.27872,3.01248 -2.58192,6.00481 -3.8592,8.89345 1.0584,0.10512 2.15424,0.25776 3.2112,0.37584 0.75888,-1.86048 1.44864,-3.29328 2.20896,-5.20416 0.75889,2.03616 1.44721,3.60864 2.20465,5.7096 1.05552,0.1368 2.42496,0.33409 3.47904,0.48385 -1.27872,-3.41857 -2.67696,-6.97826 -3.96288,-10.20818 z" id="path1-46" style="display:inline;opacity:1;fill:currentColor;fill-opacity:1;stroke-width:1.44" /></g></g><style type="text/css" id="style1">.st0{fill:none;stroke:#000000;stroke-width:2;stroke-miterlimit:10;}.st1{fill:none;stroke:#000000;stroke-width:2;stroke-linecap:round;stroke-miterlimit:10;}.st2{fill:none;stroke:#000000;stroke-width:2;stroke-linecap:round;stroke-linejoin:round;stroke-miterlimit:10;}.st3{fill:none;stroke:#000000;stroke-linecap:round;stroke-miterlimit:10;}.st4{fill:none;stroke:#000000;stroke-width:3;stroke-linecap:round;stroke-miterlimit:10;}.st5{fill:#FFFFFF;}.st6{stroke:#000000;stroke-width:2;stroke-miterlimit:10;}.st7{fill:none;stroke:#000000;stroke-width:2;stroke-linejoin:round;stroke-miterlimit:10;}.st8{fill:none;}.st9{fill:none;stroke:#000000;stroke-width:0;stroke-linecap:round;stroke-linejoin:round;}</style><style type="text/css" id="style1-5">.st0{fill:none;stroke:#000000;stroke-width:2;stroke-miterlimit:10;}.st1{fill:none;stroke:#000000;stroke-width:2;stroke-linecap:round;stroke-miterlimit:10;}.st2{fill:none;stroke:#000000;stroke-width:2;stroke-linecap:round;stroke-linejoin:round;stroke-miterlimit:10;}.st3{fill:none;stroke:#000000;stroke-linecap:round;stroke-miterlimit:10;}.st4{fill:none;stroke:#000000;stroke-width:3;stroke-linecap:round;stroke-miterlimit:10;}.st5{fill:#FFFFFF;}.st6{stroke:#000000;stroke-width:2;stroke-miterlimit:10;}.st7{fill:none;stroke:#000000;stroke-width:2;stroke-linejoin:round;stroke-miterlimit:10;}.st8{fill:none;}.st9{fill:none;stroke:#000000;stroke-width:0;stroke-linecap:round;stroke-linejoin:round;}</style></svg>
