<?xml version="1.0" encoding="UTF-8" standalone="no"?>
<svg version="1.1" width="26.458332mm" height="26.458332mm" viewBox="0 0 75.000144 75.000088" id="svg165" xml:space="preserve" xmlns="http://www.w3.org/2000/svg" xmlns:svg="http://www.w3.org/2000/svg"><defs id="defs165" /><g id="layer3" style="display:inline;opacity:0.00700001;fill:maroon;fill-opacity:0.225" transform="translate(-1417.4272,-393.75065)"><path d="m 1417.4273,393.75065 v 75.00012 h 75.0001 v -75.00012 z" style="display:inline;fill:maroon;fill-opacity:0.225;stroke:none;stroke-width:0.753376;stroke-linecap:round;stroke-linejoin:round;stroke-dasharray:none;stroke-opacity:1" id="path154-9-7-18-9-1-2" /></g><g id="layer1" transform="translate(-1417.4272,-393.75065)"><g id="g36" transform="matrix(1.5000023,0,0,1.5000023,1418.3272,394.50065)"><rect x="34" y="21" fill="none" stroke="currentColor" stroke-width="2" stroke-linejoin="round" stroke-miterlimit="10" width="4" height="14" id="rect1-31" /><path fill="none" stroke="currentColor" stroke-width="2" stroke-linejoin="round" stroke-miterlimit="10" d="m 38,16 c 0,1.1 -0.9,2 -2,2 -1.1,0 -2,-0.9 -2,-2 0,-1.1 0.9,-2 2,-2 1.1,0 2,0.9 2,2 z" id="path1-68" /><rect x="43" y="21" fill="none" stroke="currentColor" stroke-width="2" stroke-linejoin="round" stroke-miterlimit="10" width="4" height="14" id="rect2-8" /><path fill="none" stroke="currentColor" stroke-width="2" stroke-linejoin="round" stroke-miterlimit="10" d="m 47,16 c 0,1.1 -0.9,2 -2,2 -1.1,0 -2,-0.9 -2,-2 0,-1.1 0.9,-2 2,-2 1.1,0 2,0.9 2,2 z" id="path2-27" /><path fill="none" stroke="currentColor" stroke-width="2" stroke-linejoin="round" stroke-miterlimit="10" d="M 25.8,15.2 22,29.8 c 0,0 -2.4,-8.8 -3.1,-11.8 -0.7,-3 -3,-3 -3,-3 0,0 -2.2,0 -2.9,2.9 -0.7,3.1 -3,11.9 -3,11.9 L 6.2,15.2 H 1.8 l 4.7,16.4 c 0,0 0.6,3.4 3.3,3.4 2.7,0 3.3,-3.4 3.3,-3.4 L 16,20.9 18.9,31.6 c 0,0 0.6,3.4 3.3,3.4 2.7,0 3.3,-3.4 3.3,-3.4 l 4.7,-16.4 z" id="path3-71" /></g></g><style type="text/css" id="style1">.st0{fill:none;stroke:currentColor;stroke-width:2;stroke-miterlimit:10;}.st1{fill:none;stroke:currentColor;stroke-width:2;stroke-linecap:round;stroke-miterlimit:10;}.st2{fill:none;stroke:currentColor;stroke-width:2;stroke-linecap:round;stroke-linejoin:round;stroke-miterlimit:10;}.st3{fill:none;stroke:currentColor;stroke-linecap:round;stroke-miterlimit:10;}.st4{fill:none;stroke:currentColor;stroke-width:3;stroke-linecap:round;stroke-miterlimit:10;}.st5{fill:#FFFFFF;}.st6{stroke:currentColor;stroke-width:2;stroke-miterlimit:10;}.st7{fill:none;stroke:currentColor;stroke-width:2;stroke-linejoin:round;stroke-miterlimit:10;}.st8{fill:none;}.st9{fill:none;stroke:currentColor;stroke-width:0;stroke-linecap:round;stroke-linejoin:round;}</style><style type="text/css" id="style1-5">.st0{fill:none;stroke:currentColor;stroke-width:2;stroke-miterlimit:10;}.st1{fill:none;stroke:currentColor;stroke-width:2;stroke-linecap:round;stroke-miterlimit:10;}.st2{fill:none;stroke:currentColor;stroke-width:2;stroke-linecap:round;stroke-linejoin:round;stroke-miterlimit:10;}.st3{fill:none;stroke:currentColor;stroke-linecap:round;stroke-miterlimit:10;}.st4{fill:none;stroke:currentColor;stroke-width:3;stroke-linecap:round;stroke-miterlimit:10;}.st5{fill:#FFFFFF;}.st6{stroke:currentColor;stroke-width:2;stroke-miterlimit:10;}.st7{fill:none;stroke:currentColor;stroke-width:2;stroke-linejoin:round;stroke-miterlimit:10;}.st8{fill:none;}.st9{fill:none;stroke:currentColor;stroke-width:0;stroke-linecap:round;stroke-linejoin:round;}</style></svg>
