<?xml version="1.0" encoding="UTF-8" standalone="no"?>
<svg version="1.1" width="26.458332mm" height="26.458332mm" viewBox="0 0 75.000144 75.000088" id="svg165" xml:space="preserve" xmlns="http://www.w3.org/2000/svg" xmlns:svg="http://www.w3.org/2000/svg"><defs id="defs165" /><g id="layer3" style="display:inline;opacity:0.00700001;fill:maroon;fill-opacity:0.225" transform="translate(-787.50119,-472.50077)"><path d="m 787.50127,472.50078 v 75.00012 h 75.00012 v -75.00012 z" style="display:inline;fill:maroon;fill-opacity:0.225;stroke:none;stroke-width:0.753376;stroke-linecap:round;stroke-linejoin:round;stroke-dasharray:none;stroke-opacity:1" id="path154-9-8-4-4" /></g><g id="layer1" transform="translate(-787.50119,-472.50077)"><g id="g52" transform="matrix(1.5000023,0,0,1.5000023,787.37316,472.50078)"><path style="fill:none;stroke:currentColor;stroke-width:2;stroke-linecap:round;stroke-miterlimit:10" d="M 19.774,12.495 C 19.901,11.954 20.363,12 20.941,12 h 16.466 c 0.021,0 0.042,-0.453 0.062,-0.452 C 37.119,5.707 32.219,3 27.896,3 H 11.43 c -0.579,0 -1.041,0.409 -1.167,0.95 0,0 -5.882,26.992 -7.036,32.361 C 2.964,37.621 3.745,38 4.421,38 h 9.693 z" id="path1-07" /><path style="fill:none;stroke:currentColor;stroke-width:2;stroke-linecap:round;stroke-miterlimit:10" d="m 37.446,12 c 0.065,1.071 -0.087,2.096 -0.36,3.383 C 35.52,22.71 30.407,26 22.946,26 c 0,0 -3.376,0 -4.406,0 -0.637,0 -1.729,0.148 -1.994,1.169 0,0 -3.965,18.27 -4.029,18.609 -0.065,0.338 0.048,1.222 1.222,1.222 0,0 8.408,0 8.963,0 0.555,0 1.051,-0.433 1.171,-0.975 0,0 2.063,-9.547 2.155,-9.929 C 26.12,35.714 26.263,35 27.294,35 28.325,35 32.4,35 32.4,35 39.395,35 45.112,30.942 46.679,23.614 48.443,15.352 42.549,12.031 37.446,12 Z" id="path2-272" /></g></g><style type="text/css" id="style1">.st0{fill:none;stroke:currentColor;stroke-width:2;stroke-miterlimit:10;}.st1{fill:none;stroke:currentColor;stroke-width:2;stroke-linecap:round;stroke-miterlimit:10;}.st2{fill:none;stroke:currentColor;stroke-width:2;stroke-linecap:round;stroke-linejoin:round;stroke-miterlimit:10;}.st3{fill:none;stroke:currentColor;stroke-linecap:round;stroke-miterlimit:10;}.st4{fill:none;stroke:currentColor;stroke-width:3;stroke-linecap:round;stroke-miterlimit:10;}.st5{fill:#FFFFFF;}.st6{stroke:currentColor;stroke-width:2;stroke-miterlimit:10;}.st7{fill:none;stroke:currentColor;stroke-width:2;stroke-linejoin:round;stroke-miterlimit:10;}.st8{fill:none;}.st9{fill:none;stroke:currentColor;stroke-width:0;stroke-linecap:round;stroke-linejoin:round;}</style><style type="text/css" id="style1-5">.st0{fill:none;stroke:currentColor;stroke-width:2;stroke-miterlimit:10;}.st1{fill:none;stroke:currentColor;stroke-width:2;stroke-linecap:round;stroke-miterlimit:10;}.st2{fill:none;stroke:currentColor;stroke-width:2;stroke-linecap:round;stroke-linejoin:round;stroke-miterlimit:10;}.st3{fill:none;stroke:currentColor;stroke-linecap:round;stroke-miterlimit:10;}.st4{fill:none;stroke:currentColor;stroke-width:3;stroke-linecap:round;stroke-miterlimit:10;}.st5{fill:#FFFFFF;}.st6{stroke:currentColor;stroke-width:2;stroke-miterlimit:10;}.st7{fill:none;stroke:currentColor;stroke-width:2;stroke-linejoin:round;stroke-miterlimit:10;}.st8{fill:none;}.st9{fill:none;stroke:currentColor;stroke-width:0;stroke-linecap:round;stroke-linejoin:round;}</style></svg>
