<?xml version="1.0" encoding="UTF-8" standalone="no"?>
<svg version="1.1" width="26.458338mm" height="26.458334mm" viewBox="0 0 75.00016 75.000093" id="svg165" xml:space="preserve" xmlns="http://www.w3.org/2000/svg" xmlns:svg="http://www.w3.org/2000/svg"><defs id="defs165" /><g id="layer1" style="opacity:1" transform="translate(-157.50025,-472.50077)"><g id="g148"><path d="m 157.50025,472.50077 v 75.00012 h 75.00013 v -75.00012 z" style="display:inline;opacity:1;fill:#80000000;fill-opacity:0.225;stroke:none;stroke-width:0.753376;stroke-linecap:round;stroke-linejoin:round;stroke-dasharray:none;stroke-opacity:1" id="path154-5-7-9-22-0" /><path d="m 218.25328,506.64727 -0.5745,-0.86176 c 0,-6.4632 -3.01616,-9.1921 -6.46319,-11.20286 1.00538,-0.28725 2.15439,-0.57451 2.44165,-1.86715 1.86714,-0.43088 2.15439,-1.29264 2.29801,-2.15439 0.43089,-0.28726 2.01078,-1.14901 1.86715,-2.7289 0.86176,-0.57451 1.43627,-1.43627 1.14901,-2.58528 1.00539,-1.00538 1.14901,-1.86714 0.86176,-2.7289 1.14901,-1.43626 0.5745,-2.1544 0.14363,-2.87253 0.86175,-1.57989 0.14362,-3.3034 -2.29802,-3.01615 -1.00539,-1.43626 -3.01616,-1.14901 -3.30341,-1.14901 -0.28726,-0.43088 -0.71813,-0.86177 -2.1544,-0.71814 -1.00538,-0.86176 -2.01076,-0.71813 -3.01616,-0.28725 -1.29263,-1.00539 -2.15439,-0.14363 -3.15977,0.14362 -1.57989,-0.5745 -1.86714,0.14363 -2.72891,0.43089 -1.72351,-0.43089 -2.15439,0.43088 -3.01615,1.29264 h -1.00538 c -2.58528,1.57988 -3.87792,4.59604 -4.30879,6.17593 -0.43088,-1.57989 -1.72352,-4.73967 -4.3088,-6.17593 h -1.00538 c -0.86176,-0.86176 -1.29264,-1.5799 -3.01615,-1.29264 -0.71813,-0.28726 -1.14902,-1.00539 -2.72891,-0.43089 -0.5745,-0.14362 -1.14901,-0.5745 -1.86714,-0.5745 v 0 c -0.43088,0 -0.71813,0.14363 -1.14901,0.43088 -1.14901,-0.28725 -2.1544,-0.43088 -3.15978,0.28725 -1.43626,-0.14363 -1.86714,0.14364 -2.29802,0.71814 -0.28725,0 -2.44166,-0.28725 -3.30341,1.14901 -2.44165,-0.28725 -3.15978,1.43626 -2.29802,3.01615 -0.43088,0.71813 -1.00538,1.43627 0.14362,2.87253 -0.28725,0.71813 -0.14362,1.57989 0.86176,2.7289 -0.28725,1.14901 0.28725,1.86714 1.14901,2.44165 -0.14362,1.57989 1.43626,2.44165 1.86715,2.7289 0.14363,0.86176 0.57451,1.72351 2.29802,2.15439 0.28725,1.29265 1.43626,1.5799 2.44164,1.86715 -3.44702,2.01077 -6.46318,4.73967 -6.46318,11.20286 l -0.57451,0.86176 c -3.8779,2.58527 -7.46857,10.34109 -1.86714,16.66065 0.43088,2.01078 1.00539,3.44704 1.57989,5.02693 0.86176,6.31956 6.17593,9.33572 7.6122,9.62297 2.01077,1.57989 4.30879,3.01615 7.18132,4.16516 2.7289,2.87253 5.88869,4.02154 8.90484,4.02154 0,0 0.14362,0 0.14362,0 3.01616,0 6.03231,-1.14901 8.90483,-4.02154 3.01616,-1.00538 5.17055,-2.58527 7.18133,-4.16516 1.43626,-0.28725 6.75044,-3.30341 7.6122,-9.62297 0.5745,-1.57989 1.14901,-3.01615 1.57988,-5.02693 5.45781,-6.31956 1.86714,-14.07538 -2.15439,-16.51702 z m -3.59066,-1.14902 c -0.14363,2.58528 -13.64451,-9.19209 -11.34649,-9.47934 6.31956,-1.00538 11.49011,2.7289 11.34649,9.47934 z M 199.8691,478.20924 c 0.14363,0.5745 0.28726,1.00538 0.43088,1.00538 0.71813,-0.86176 1.29264,-1.57989 2.29802,-2.44164 0,0.43087 -0.28725,1.00538 0.28725,1.29263 0.57451,-0.71813 1.14901,-1.29263 2.15441,-1.86714 -0.43088,0.71813 -0.14363,1.00538 0.14362,1.29264 0.71813,-0.57451 1.43626,-1.29264 2.7289,-1.72352 -0.28725,0.43088 -0.86176,0.86176 -0.28725,1.43626 0.71813,-0.43087 1.43626,-0.86175 3.15978,-1.29263 -0.43088,0.43088 -1.14902,0.86176 -0.71814,1.29263 0.86177,-0.28725 1.86715,-0.5745 3.01616,-0.71813 -0.5745,0.43088 -1.00538,0.86176 -0.5745,1.29264 1.00538,-0.28725 2.29801,-0.71813 3.59065,-0.43088 l -0.86176,0.86176 c 0.14363,0.14362 2.15441,0.14362 3.44704,0.14362 -0.43088,0.71813 -1.00538,1.43626 -1.29263,2.58528 0.14362,0.14363 0.86175,0 1.43626,0 -0.57451,1.43627 -1.72352,1.72352 -2.01077,2.29802 0.43088,0.28725 1.00538,0.28725 1.57989,0 -0.43088,1.00539 -1.43626,1.57989 -2.1544,2.44165 0.14363,0.14362 0.57451,0.28725 1.29264,0.14362 -0.71813,0.71813 -1.5799,1.43627 -2.58528,2.15441 0.14363,0.14362 0.86176,0.14362 1.43627,0.28725 -0.86176,0.86175 -2.1544,1.43626 -3.15978,2.01076 0.5745,0.43088 1.00538,0.28726 1.43626,0.28726 -0.71813,0.71813 -2.15439,1.00538 -3.3034,1.43626 0.28725,0.43088 0.43088,0.43088 1.00538,0.5745 -1.29264,0.71813 -3.15979,0.43088 -3.73429,0.71813 0.14363,0.43089 0.43088,0.57452 0.86176,0.86177 -2.1544,0.14363 -7.89945,-0.14363 -9.04846,-4.59605 2.15439,-2.44165 6.17593,-5.31417 12.92637,-8.76121 -5.31417,1.86715 -10.05385,4.16517 -14.07538,7.46858 -4.8833,-2.29803 -1.72352,-7.89946 0.5745,-10.05385 z m -4.88329,15.94253 c 3.30341,0 7.46857,2.44164 7.46857,4.88329 0,2.1544 -2.87253,3.73429 -7.46857,3.73429 -4.45243,0 -7.46857,-2.15439 -7.46857,-4.16517 0,-1.57989 3.73428,-4.45241 7.46857,-4.45241 z m -16.94792,-1.72352 c 0.5745,-0.14363 0.71813,-0.14363 1.00538,-0.57451 -1.29263,-0.43088 -2.58527,-0.71813 -3.3034,-1.43626 0.43088,0 0.86176,0.14363 1.43626,-0.28725 -1.14901,-0.57451 -2.29802,-1.00539 -3.15977,-2.01077 0.5745,0 1.14901,0 1.43626,-0.28725 -1.00538,-0.57451 -1.86714,-1.29265 -2.58528,-2.1544 0.86176,0.14362 1.14902,0 1.29264,-0.14363 -0.71814,-0.71813 -1.72352,-1.43626 -2.1544,-2.44164 0.57451,0.14362 1.14901,0.28725 1.5799,0 -0.57452,-0.43088 -1.72352,-0.71813 -2.29803,-2.1544 0.57451,0 1.29264,0.14363 1.43626,0 -0.28725,-1.14902 -0.86175,-1.86715 -1.29263,-2.58528 1.29263,0 3.44703,0 3.30341,-0.14362 l -0.86176,-0.86176 c 1.29264,-0.28725 2.7289,0 3.59065,0.43088 0.43088,-0.28725 0,-0.71813 -0.5745,-1.29264 1.14901,0.14363 2.15439,0.43088 3.01616,0.71813 0.43088,-0.43087 -0.28725,-0.86175 -0.71814,-1.29263 1.72352,0.28725 2.44165,0.71813 3.15978,1.29263 0.57451,-0.5745 0,-1.00538 -0.28725,-1.43626 1.43626,0.57451 2.15439,1.14901 2.87253,1.86714 0.28725,-0.28725 0.5745,-0.5745 0.14362,-1.29263 0.86177,0.5745 1.5799,1.14901 2.1544,1.86714 0.57451,-0.43088 0.28726,-0.86176 0.28726,-1.29264 1.00538,0.71813 1.57988,1.57989 2.29801,2.44165 0.14363,-0.14363 0.28726,-0.43088 0.43088,-1.00539 2.29803,2.29802 5.60143,7.89945 0.86176,10.05385 -4.02153,-3.30341 -8.76121,-5.74505 -14.07538,-7.46857 6.75044,3.44703 10.77198,6.31956 12.92637,8.76121 -1.14901,4.45242 -6.89407,4.59605 -9.04846,4.59605 0.43088,-0.14363 0.86176,-0.43088 0.86176,-0.86176 -0.43088,-0.57452 -2.44165,-0.28726 -3.73429,-1.00539 z m 7.89946,3.44703 c 2.29802,0.43088 -11.20286,12.20825 -11.34649,9.47934 -0.28725,-6.89407 5.02693,-10.62835 11.34649,-9.47934 z m -14.21902,26.14 c -3.3034,-2.58527 -4.3088,-10.3411 1.72351,-13.78813 3.73429,-1.00538 1.29265,15.08077 -1.72351,13.78813 z m 12.78275,13.78813 c -1.86714,1.14902 -6.31956,0.71815 -9.47934,-3.8779 -2.1544,-3.87792 -1.86715,-7.75582 -0.43088,-8.90484 2.29802,-1.43626 5.74506,0.43088 8.47395,3.59066 2.29802,2.7289 3.44704,7.75582 1.43627,9.19208 z m -3.59066,-16.80428 c -3.44704,-2.1544 -4.02154,-7.18131 -1.29263,-11.20286 2.58527,-4.02154 7.46857,-5.4578 10.91559,-3.15978 3.44704,2.1544 4.02155,7.18133 1.29264,11.20286 -2.7289,3.87792 -7.6122,5.31418 -10.9156,3.15978 z m 14.07539,24.56012 c -4.02155,0.14362 -8.04308,-3.30341 -8.04308,-4.59605 0,-1.72351 4.88329,-3.15979 8.1867,-3.01616 3.30341,-0.14363 7.6122,1.00539 7.75582,2.58528 0,1.72352 -4.02153,5.17055 -7.89944,5.02693 z m 8.33032,-17.52242 c 0,4.16516 -3.59065,7.61219 -8.1867,7.61219 -4.59605,0 -8.1867,-3.3034 -8.1867,-7.46857 0,0 0,0 0,-0.14362 0,-4.16517 3.59065,-7.6122 8.1867,-7.6122 4.45242,0.14363 8.1867,3.44703 8.1867,7.6122 z m -5.17054,-10.62836 c -2.58528,-4.02154 -2.01078,-9.04846 1.29264,-11.20286 3.44702,-2.15439 8.33032,-0.71813 10.9156,3.15979 2.58527,4.02153 2.01077,9.04845 -1.29264,11.20286 -3.3034,2.29801 -8.1867,0.86175 -10.9156,-3.15979 z m 16.66065,16.66066 c -3.44702,4.8833 -8.1867,5.02693 -10.05384,3.73428 -1.86715,-1.72351 -0.43087,-7.18131 2.1544,-10.05384 v 0 c 2.87252,-3.30341 6.0323,-5.4578 8.1867,-3.73429 1.29264,1.43627 2.1544,6.75044 -0.28726,10.05385 z m 2.72891,-10.3411 c -3.01616,1.29264 -5.4578,-14.79351 -1.72352,-13.78813 6.03231,3.59065 4.8833,11.20286 1.72352,13.78813 z" id="path1-34" style="display:inline;opacity:1;fill:currentColor;fill-opacity:1;stroke-width:1.43626" /></g></g><style type="text/css" id="style1">.st0{fill:none;stroke:#000000;stroke-width:2;stroke-miterlimit:10;}.st1{fill:none;stroke:#000000;stroke-width:2;stroke-linecap:round;stroke-miterlimit:10;}.st2{fill:none;stroke:#000000;stroke-width:2;stroke-linecap:round;stroke-linejoin:round;stroke-miterlimit:10;}.st3{fill:none;stroke:#000000;stroke-linecap:round;stroke-miterlimit:10;}.st4{fill:none;stroke:#000000;stroke-width:3;stroke-linecap:round;stroke-miterlimit:10;}.st5{fill:#FFFFFF;}.st6{stroke:#000000;stroke-width:2;stroke-miterlimit:10;}.st7{fill:none;stroke:#000000;stroke-width:2;stroke-linejoin:round;stroke-miterlimit:10;}.st8{fill:none;}.st9{fill:none;stroke:#000000;stroke-width:0;stroke-linecap:round;stroke-linejoin:round;}</style><style type="text/css" id="style1-5">.st0{fill:none;stroke:#000000;stroke-width:2;stroke-miterlimit:10;}.st1{fill:none;stroke:#000000;stroke-width:2;stroke-linecap:round;stroke-miterlimit:10;}.st2{fill:none;stroke:#000000;stroke-width:2;stroke-linecap:round;stroke-linejoin:round;stroke-miterlimit:10;}.st3{fill:none;stroke:#000000;stroke-linecap:round;stroke-miterlimit:10;}.st4{fill:none;stroke:#000000;stroke-width:3;stroke-linecap:round;stroke-miterlimit:10;}.st5{fill:#FFFFFF;}.st6{stroke:#000000;stroke-width:2;stroke-miterlimit:10;}.st7{fill:none;stroke:#000000;stroke-width:2;stroke-linejoin:round;stroke-miterlimit:10;}.st8{fill:none;}.st9{fill:none;stroke:#000000;stroke-width:0;stroke-linecap:round;stroke-linejoin:round;}</style></svg>
