<?xml version="1.0" encoding="UTF-8" standalone="no"?>
<svg version="1.1" width="26.458326mm" height="26.45833mm" viewBox="0 0 75.000128 75.000082" id="svg165" xml:space="preserve" xmlns="http://www.w3.org/2000/svg" xmlns:svg="http://www.w3.org/2000/svg"><defs id="defs165" /><g id="layer1" style="opacity:1" transform="translate(-1102.5018,-393.69749)"><g id="g122"><path d="m 1102.5018,393.69749 v 75.00011 h 75.0001 v -75.00011 z" style="display:inline;opacity:1;fill:#80000000;fill-opacity:0.225;stroke:none;stroke-width:0.753376;stroke-linecap:round;stroke-linejoin:round;stroke-dasharray:none;stroke-opacity:1" id="path154-5-7-8-5-1-9-4" /><g id="g33" transform="matrix(1.4400023,0,0,1.4400023,1104.0018,395.19749)" style="display:inline;opacity:1;stroke:currentColor;stroke-opacity:1"><path fill="none" stroke="black" stroke-width="2" stroke-linecap="round" stroke-linejoin="round" stroke-miterlimit="10" d="m 47.619,30.098 c 0.351,-1.563 0.533,-3.186 0.533,-4.848 0,-12.464 -10.251,-22.572 -22.896,-22.572 -1.334,0 -2.642,0.114 -3.918,0.33 C 19.295,1.738 16.876,1 14.277,1 6.946,1 1,6.862 1,14.088 c 0,2.419 0.665,4.68 1.827,6.625 -0.303,1.468 -0.464,2.984 -0.464,4.536 0,12.472 10.248,22.576 22.893,22.576 1.433,0 2.832,-0.129 4.196,-0.378 C 31.315,48.438 33.457,49 35.726,49 43.058,49 49,43.142 49,35.912 49,33.823 48.507,31.849 47.619,30.098 Z M 36.998,36.04 c -1.06,1.479 -2.624,2.65 -4.652,3.479 -2.006,0.822 -4.415,1.24 -7.152,1.24 -3.289,0 -6.048,-0.569 -8.197,-1.696 -1.539,-0.819 -2.81,-1.931 -3.768,-3.3 -0.976,-1.38 -1.469,-2.753 -1.469,-4.078 0,-0.826 0.322,-1.545 0.954,-2.132 0.629,-0.58 1.433,-0.873 2.39,-0.873 0.786,0 1.465,0.231 2.017,0.69 0.53,0.44 0.979,1.094 1.341,1.934 0.406,0.918 0.848,1.688 1.319,2.301 0.446,0.583 1.093,1.079 1.919,1.461 0.83,0.389 1.948,0.584 3.326,0.584 1.893,0 3.443,-0.397 4.609,-1.182 1.14,-0.767 1.696,-1.692 1.696,-2.819 0,-0.892 -0.289,-1.593 -0.881,-2.14 -0.625,-0.576 -1.451,-1.024 -2.445,-1.329 -1.042,-0.319 -2.456,-0.664 -4.203,-1.028 -2.376,-0.503 -4.393,-1.097 -5.997,-1.769 -1.645,-0.69 -2.967,-1.644 -3.936,-2.837 -0.983,-1.215 -1.48,-2.734 -1.48,-4.525 0,-1.707 0.523,-3.245 1.557,-4.569 1.02,-1.314 2.518,-2.342 4.444,-3.043 1.897,-0.694 4.159,-1.042 6.714,-1.042 2.046,0 3.845,0.231 5.347,0.694 1.506,0.462 2.781,1.086 3.779,1.857 1.009,0.778 1.754,1.607 2.226,2.47 0.475,0.87 0.716,1.736 0.716,2.573 0,0.807 -0.314,1.541 -0.939,2.18 -0.625,0.642 -1.418,0.965 -2.35,0.965 -0.848,0 -1.513,-0.202 -1.974,-0.602 -0.428,-0.374 -0.873,-0.958 -1.367,-1.795 -0.57,-1.072 -1.261,-1.916 -2.054,-2.507 -0.768,-0.576 -2.058,-0.87 -3.823,-0.87 -1.641,0 -2.975,0.323 -3.965,0.965 -0.957,0.617 -1.422,1.325 -1.422,2.165 0,0.514 0.15,0.943 0.457,1.314 0.329,0.389 0.786,0.734 1.367,1.02 0.603,0.297 1.221,0.536 1.842,0.705 0.636,0.173 1.703,0.433 3.169,0.767 1.853,0.393 3.556,0.829 5.062,1.303 1.524,0.484 2.843,1.075 3.918,1.765 1.093,0.705 1.962,1.608 2.58,2.687 0.618,1.083 0.928,2.422 0.928,3.979 -0.002,1.86 -0.539,3.555 -1.603,5.038 z" id="path1-12" style="stroke:currentColor;stroke-opacity:1" /></g></g></g><style type="text/css" id="style1">.st0{fill:none;stroke:#000000;stroke-width:2;stroke-miterlimit:10;}.st1{fill:none;stroke:#000000;stroke-width:2;stroke-linecap:round;stroke-miterlimit:10;}.st2{fill:none;stroke:#000000;stroke-width:2;stroke-linecap:round;stroke-linejoin:round;stroke-miterlimit:10;}.st3{fill:none;stroke:#000000;stroke-linecap:round;stroke-miterlimit:10;}.st4{fill:none;stroke:#000000;stroke-width:3;stroke-linecap:round;stroke-miterlimit:10;}.st5{fill:#FFFFFF;}.st6{stroke:#000000;stroke-width:2;stroke-miterlimit:10;}.st7{fill:none;stroke:#000000;stroke-width:2;stroke-linejoin:round;stroke-miterlimit:10;}.st8{fill:none;}.st9{fill:none;stroke:#000000;stroke-width:0;stroke-linecap:round;stroke-linejoin:round;}</style><style type="text/css" id="style1-5">.st0{fill:none;stroke:#000000;stroke-width:2;stroke-miterlimit:10;}.st1{fill:none;stroke:#000000;stroke-width:2;stroke-linecap:round;stroke-miterlimit:10;}.st2{fill:none;stroke:#000000;stroke-width:2;stroke-linecap:round;stroke-linejoin:round;stroke-miterlimit:10;}.st3{fill:none;stroke:#000000;stroke-linecap:round;stroke-miterlimit:10;}.st4{fill:none;stroke:#000000;stroke-width:3;stroke-linecap:round;stroke-miterlimit:10;}.st5{fill:#FFFFFF;}.st6{stroke:#000000;stroke-width:2;stroke-miterlimit:10;}.st7{fill:none;stroke:#000000;stroke-width:2;stroke-linejoin:round;stroke-miterlimit:10;}.st8{fill:none;}.st9{fill:none;stroke:#000000;stroke-width:0;stroke-linecap:round;stroke-linejoin:round;}</style></svg>
