<?xml version="1.0" encoding="UTF-8" standalone="no"?>
<svg version="1.1" width="26.458326mm" height="26.458334mm" viewBox="0 0 75.000128 75.000093" id="svg165" xml:space="preserve" xmlns="http://www.w3.org/2000/svg" xmlns:svg="http://www.w3.org/2000/svg"><defs id="defs165" /><g id="layer1" style="opacity:1" transform="translate(-1181.2519,-393.75065)"><g id="g123"><path d="m 1181.2519,393.75065 v 75.00012 h 75.0001 v -75.00012 z" style="display:inline;opacity:1;fill:#80000000;fill-opacity:0.225;stroke:none;stroke-width:0.753376;stroke-linecap:round;stroke-linejoin:round;stroke-dasharray:none;stroke-opacity:1" id="path154-9-7-3-8-1-5" /><path style="display:inline;opacity:1;fill:none;stroke:currentColor;stroke-width:3;stroke-linecap:round;stroke-linejoin:round;stroke-miterlimit:10;stroke-opacity:1" d="m 1219.1691,462.22425 c -0.1695,0 -0.3375,-0.004 -0.504,-0.0135 v 0 c -0.1065,0.009 -0.2175,0.0135 -0.33,0.0135 -3.9105,0 -6.42,-1.7745 -8.847,-3.489 -1.6755,-1.1835 -3.2565,-2.3025 -5.1195,-2.6115 -0.909,-0.15001 -1.8135,-0.22651 -2.688,-0.22651 -1.5751,0 -2.8186,0.24301 -3.7261,0.42001 -0.552,0.108 -1.0275,0.201 -1.389,0.201 -0.378,0 -0.7875,-0.081 -0.9645,-0.69001 -0.1545,-0.5265 -0.267,-1.0365 -0.3735,-1.53 -0.2775,-1.269 -0.474,-2.0505 -1.0065,-2.1315 -6.201,-0.9585 -7.977,-2.2635 -8.3715,-3.19051 -0.056,-0.132 -0.089,-0.2655 -0.096,-0.3975 -0.02,-0.3555 0.2325,-0.6705 0.5835,-0.7275 9.5325,-1.5705 13.8075,-11.31302 13.986,-11.72702 0,-0.012 0.011,-0.0225 0.015,-0.0345 0.5835,-1.182 0.6975,-2.20949 0.3405,-3.0495 -0.654,-1.54199 -2.7885,-2.22 -4.2,-2.66701 -0.345,-0.1095 -0.6735,-0.213 -0.9315,-0.315 -2.8185,-1.1145 -3.0525,-2.2575 -2.9415,-2.841 0.189,-0.993 1.5165,-1.686 2.589,-1.686 0.294,0 0.5535,0.0525 0.771,0.1545 1.2675,0.594 2.4105,0.8955 3.396,0.8955 1.362,0 1.9575,-0.57299 2.0296,-0.648 -0.034,-0.645 -0.078,-1.31849 -0.1216,-2.0145 -0.2835,-4.5075 -0.636,-10.10702 0.7906,-13.30352 4.2735,-9.58202 13.3365,-10.32601 16.0125,-10.32601 0.069,0 1.173,-0.012 1.173,-0.012 h 0.159 c 2.682,0 11.7645,0.7455 16.041,10.33351 1.4265,3.19801 1.074,8.80351 0.789,13.30651 l -0.012,0.1965 c -0.039,0.62701 -0.078,1.23602 -0.1095,1.81951 0.067,0.069 0.615,0.5955 1.8495,0.6435 v 0 c 0.939,-0.036 2.0175,-0.33449 3.201,-0.8895 0.3465,-0.16199 0.732,-0.1965 0.9945,-0.1965 0.4005,0 0.807,0.078 1.1445,0.219 l 0.021,0.009 c 0.957,0.339 1.584,1.01101 1.5975,1.7115 0.012,0.66001 -0.492,1.65301 -2.964,2.6295 -0.2565,0.10051 -0.5835,0.2055 -0.9315,0.315 -1.4145,0.44851 -3.5475,1.12501 -4.2,2.66701 -0.357,0.8415 -0.243,1.866 0.3405,3.04951 0,0.012 0.011,0.0225 0.015,0.0345 0.177,0.41399 4.449,10.15352 13.986,11.72552 0.3525,0.0585 0.603,0.372 0.5835,0.729 -0.01,0.1335 -0.04,0.2685 -0.097,0.399 -0.393,0.91951 -2.1675,2.22451 -8.37,3.18301 -0.507,0.078 -0.7035,0.738 -1.005,2.1225 -0.1095,0.504 -0.222,0.999 -0.375,1.5195 -0.132,0.45151 -0.414,0.66301 -0.888,0.66301 h -0.076 c -0.3285,0 -0.7965,-0.0585 -1.3875,-0.1755 -1.05,-0.20551 -2.2275,-0.39452 -3.726,-0.39452 -0.8745,0 -1.7805,0.0765 -2.6895,0.22652 -1.8615,0.31049 -3.441,1.42649 -5.1135,2.60849 -2.4345,1.7175 -4.944,3.49201 -8.8545,3.49201 z" id="path1-14" /></g></g><style type="text/css" id="style1">.st0{fill:none;stroke:#000000;stroke-width:2;stroke-miterlimit:10;}.st1{fill:none;stroke:#000000;stroke-width:2;stroke-linecap:round;stroke-miterlimit:10;}.st2{fill:none;stroke:#000000;stroke-width:2;stroke-linecap:round;stroke-linejoin:round;stroke-miterlimit:10;}.st3{fill:none;stroke:#000000;stroke-linecap:round;stroke-miterlimit:10;}.st4{fill:none;stroke:#000000;stroke-width:3;stroke-linecap:round;stroke-miterlimit:10;}.st5{fill:#FFFFFF;}.st6{stroke:#000000;stroke-width:2;stroke-miterlimit:10;}.st7{fill:none;stroke:#000000;stroke-width:2;stroke-linejoin:round;stroke-miterlimit:10;}.st8{fill:none;}.st9{fill:none;stroke:#000000;stroke-width:0;stroke-linecap:round;stroke-linejoin:round;}</style><style type="text/css" id="style1-5">.st0{fill:none;stroke:#000000;stroke-width:2;stroke-miterlimit:10;}.st1{fill:none;stroke:#000000;stroke-width:2;stroke-linecap:round;stroke-miterlimit:10;}.st2{fill:none;stroke:#000000;stroke-width:2;stroke-linecap:round;stroke-linejoin:round;stroke-miterlimit:10;}.st3{fill:none;stroke:#000000;stroke-linecap:round;stroke-miterlimit:10;}.st4{fill:none;stroke:#000000;stroke-width:3;stroke-linecap:round;stroke-miterlimit:10;}.st5{fill:#FFFFFF;}.st6{stroke:#000000;stroke-width:2;stroke-miterlimit:10;}.st7{fill:none;stroke:#000000;stroke-width:2;stroke-linejoin:round;stroke-miterlimit:10;}.st8{fill:none;}.st9{fill:none;stroke:#000000;stroke-width:0;stroke-linecap:round;stroke-linejoin:round;}</style></svg>
