<?xml version="1.0" encoding="UTF-8" standalone="no"?>
<svg version="1.1" width="26.45834mm" height="26.458332mm" viewBox="0 0 75.000166 75.000088" id="svg165" xml:space="preserve" xmlns="http://www.w3.org/2000/svg" xmlns:svg="http://www.w3.org/2000/svg"><defs id="defs165" /><g id="layer3" style="display:inline;opacity:0.00700001;fill:maroon;fill-opacity:0.225" transform="translate(-236.25036,-472.50077)"><path d="M 236.25038,472.50078 V 547.5009 H 311.2505 V 472.50078 Z" style="fill:maroon;fill-opacity:0.225;stroke:none;stroke-width:0.753376;stroke-linecap:round;stroke-linejoin:round;stroke-dasharray:none;stroke-opacity:1" id="path154-9-8-4" /></g><g id="layer1" transform="translate(-236.25036,-472.50077)"><g id="g46" transform="matrix(1.5646144,0,0,1.5646144,234.63508,470.88548)"><path style="fill:none;stroke:currentColor;stroke-width:2.0178;stroke-linecap:round;stroke-linejoin:round;stroke-miterlimit:10" d="M 25,3 C 12.808,3 3,12.808 3,25 3,37.192 12.808,47 25,47 37.192,47 47,37.192 47,25 47,12.808 37.192,3 25,3 Z" id="path1-90" /><path style="fill:none;stroke:currentColor;stroke-width:2;stroke-miterlimit:10" d="M 38.998,23 C 38.654,23 38.306,22.911 37.987,22.725 32.761,19.657 26.407,19.006 21.997,19 c -0.021,0 -0.042,0 -0.063,0 -5.333,0 -9.44,0.938 -9.481,0.948 -1.078,0.247 -2.151,-0.419 -2.401,-1.495 -0.25,-1.075 0.417,-2.149 1.492,-2.4 C 11.729,16.01 16.117,15 21.934,15 c 0.023,0 0.046,0 0.069,0 4.905,0.007 12.011,0.753 18.01,4.275 0.953,0.56 1.271,1.785 0.712,2.737 C 40.352,22.647 39.684,23 38.998,23 Z" id="path2-53" /><path style="fill:none;stroke:currentColor;stroke-width:2;stroke-miterlimit:10" d="m 36.281,30.001 c -0.31,0 -0.624,-0.083 -0.906,-0.26 -4.484,-2.794 -9.092,-3.385 -13.062,-3.35 -4.482,0.04 -8.066,0.895 -8.127,0.913 -0.907,0.258 -1.861,-0.272 -2.12,-1.183 -0.259,-0.913 0.272,-1.862 1.184,-2.12 0.277,-0.079 3.854,-0.959 8.751,-1 4.465,-0.037 10.029,0.61 15.191,3.826 0.805,0.501 1.051,1.561 0.549,2.366 -0.326,0.522 -0.887,0.808 -1.46,0.808 z" id="path3-91" /><path style="fill:none;stroke:currentColor;stroke-width:2;stroke-miterlimit:10" d="m 33.499,36.001 c -0.286,0 -0.575,-0.081 -0.831,-0.252 C 30.194,34.1 27,33 22.5,33.001 c -3.714,0.001 -6.498,0.914 -6.526,0.923 -0.784,0.266 -1.635,-0.162 -1.897,-0.948 -0.262,-0.786 0.163,-1.636 0.949,-1.897 0.132,-0.044 3.279,-1.076 7.474,-1.077 4.5,-0.002 8.368,0.942 11.832,3.251 0.689,0.46 0.875,1.391 0.416,2.08 -0.289,0.434 -0.764,0.668 -1.249,0.668 z" id="path4-28" /></g></g><style type="text/css" id="style1">.st0{fill:none;stroke:currentColor;stroke-width:2;stroke-miterlimit:10;}.st1{fill:none;stroke:currentColor;stroke-width:2;stroke-linecap:round;stroke-miterlimit:10;}.st2{fill:none;stroke:currentColor;stroke-width:2;stroke-linecap:round;stroke-linejoin:round;stroke-miterlimit:10;}.st3{fill:none;stroke:currentColor;stroke-linecap:round;stroke-miterlimit:10;}.st4{fill:none;stroke:currentColor;stroke-width:3;stroke-linecap:round;stroke-miterlimit:10;}.st5{fill:#FFFFFF;}.st6{stroke:currentColor;stroke-width:2;stroke-miterlimit:10;}.st7{fill:none;stroke:currentColor;stroke-width:2;stroke-linejoin:round;stroke-miterlimit:10;}.st8{fill:none;}.st9{fill:none;stroke:currentColor;stroke-width:0;stroke-linecap:round;stroke-linejoin:round;}</style><style type="text/css" id="style1-5">.st0{fill:none;stroke:currentColor;stroke-width:2;stroke-miterlimit:10;}.st1{fill:none;stroke:currentColor;stroke-width:2;stroke-linecap:round;stroke-miterlimit:10;}.st2{fill:none;stroke:currentColor;stroke-width:2;stroke-linecap:round;stroke-linejoin:round;stroke-miterlimit:10;}.st3{fill:none;stroke:currentColor;stroke-linecap:round;stroke-miterlimit:10;}.st4{fill:none;stroke:currentColor;stroke-width:3;stroke-linecap:round;stroke-miterlimit:10;}.st5{fill:#FFFFFF;}.st6{stroke:currentColor;stroke-width:2;stroke-miterlimit:10;}.st7{fill:none;stroke:currentColor;stroke-width:2;stroke-linejoin:round;stroke-miterlimit:10;}.st8{fill:none;}.st9{fill:none;stroke:currentColor;stroke-width:0;stroke-linecap:round;stroke-linejoin:round;}</style></svg>
