<?xml version="1.0" encoding="UTF-8" standalone="no"?>
<svg version="1.1" width="26.458326mm" height="26.458334mm" viewBox="0 0 75.000128 75.000093" id="svg165" xml:space="preserve" xmlns="http://www.w3.org/2000/svg" xmlns:svg="http://www.w3.org/2000/svg"><defs id="defs165" /><g id="layer1" style="opacity:1" transform="translate(-1260.002,-393.75065)"><g id="g124"><path d="m 1260.002,393.75065 v 75.00012 h 75.0001 v -75.00012 z" style="display:inline;opacity:1;fill:#80000000;fill-opacity:0.225;stroke:none;stroke-width:0.753376;stroke-linecap:round;stroke-linejoin:round;stroke-dasharray:none;stroke-opacity:1" id="path154-5-7-8-14-1-3-4" /><g id="g34" transform="matrix(1.6374774,0,0,1.6374774,1256.5877,388.71399)" style="display:inline;opacity:1;stroke:currentColor;stroke-opacity:1"><path style="fill:none;stroke:currentColor;stroke-width:2;stroke-miterlimit:10;stroke-opacity:1" d="M 43.361,7.242 C 42.077,7.758 5.633,23.389 5.633,23.389 c 0,0 -1.765,0.614 -1.625,1.748 0.14,1.134 1.58,1.653 1.58,1.653 l 9.38,3.212 c 0,0 2.832,9.448 3.39,11.241 0.558,1.796 1.004,1.838 1.004,1.838 0.518,0.23 0.992,-0.137 0.992,-0.137 l 6.061,-5.622 9.448,7.369 c 2.554,1.134 3.483,-1.228 3.483,-1.228 L 45.855,9.538 C 46.431,6.913 44.717,6.699 43.361,7.242 Z" id="path1-95" /><polyline style="fill:none;stroke:currentColor;stroke-width:2;stroke-linecap:round;stroke-linejoin:round;stroke-miterlimit:10;stroke-opacity:1" points="  15,30 39,14 22,34 " id="polyline1-2" /><polyline style="fill:none;stroke:currentColor;stroke-width:2;stroke-linecap:round;stroke-linejoin:round;stroke-miterlimit:10;stroke-opacity:1" points="  20,43 22,34 26,37 " id="polyline2-3" /></g></g></g><style type="text/css" id="style1">.st0{fill:none;stroke:#000000;stroke-width:2;stroke-miterlimit:10;}.st1{fill:none;stroke:#000000;stroke-width:2;stroke-linecap:round;stroke-miterlimit:10;}.st2{fill:none;stroke:#000000;stroke-width:2;stroke-linecap:round;stroke-linejoin:round;stroke-miterlimit:10;}.st3{fill:none;stroke:#000000;stroke-linecap:round;stroke-miterlimit:10;}.st4{fill:none;stroke:#000000;stroke-width:3;stroke-linecap:round;stroke-miterlimit:10;}.st5{fill:#FFFFFF;}.st6{stroke:#000000;stroke-width:2;stroke-miterlimit:10;}.st7{fill:none;stroke:#000000;stroke-width:2;stroke-linejoin:round;stroke-miterlimit:10;}.st8{fill:none;}.st9{fill:none;stroke:#000000;stroke-width:0;stroke-linecap:round;stroke-linejoin:round;}</style><style type="text/css" id="style1-5">.st0{fill:none;stroke:#000000;stroke-width:2;stroke-miterlimit:10;}.st1{fill:none;stroke:#000000;stroke-width:2;stroke-linecap:round;stroke-miterlimit:10;}.st2{fill:none;stroke:#000000;stroke-width:2;stroke-linecap:round;stroke-linejoin:round;stroke-miterlimit:10;}.st3{fill:none;stroke:#000000;stroke-linecap:round;stroke-miterlimit:10;}.st4{fill:none;stroke:#000000;stroke-width:3;stroke-linecap:round;stroke-miterlimit:10;}.st5{fill:#FFFFFF;}.st6{stroke:#000000;stroke-width:2;stroke-miterlimit:10;}.st7{fill:none;stroke:#000000;stroke-width:2;stroke-linejoin:round;stroke-miterlimit:10;}.st8{fill:none;}.st9{fill:none;stroke:#000000;stroke-width:0;stroke-linecap:round;stroke-linejoin:round;}</style></svg>
