<?xml version="1.0" encoding="UTF-8" standalone="no"?>
<svg version="1.1" width="26.458363mm" height="26.458334mm" viewBox="0 0 75.000231 75.000093" id="svg165" xml:space="preserve" xmlns="http://www.w3.org/2000/svg" xmlns:svg="http://www.w3.org/2000/svg"><defs id="defs165" /><g id="layer1" style="opacity:1" transform="translate(-1338.7521,-393.75065)"><g id="g125"><path d="m 1338.7521,393.75065 v 75.00012 h 75.0002 v -75.00012 z" style="display:inline;opacity:1;fill:#80000000;fill-opacity:0.225;stroke:none;stroke-width:0.753376;stroke-linecap:round;stroke-linejoin:round;stroke-dasharray:none;stroke-opacity:1" id="path154-5-7-9-2-2-3-5-2" /><g id="g35" transform="matrix(1.5000023,0,0,1.5000023,1338.7521,393.75065)" style="display:inline;opacity:1;stroke:currentColor;stroke-opacity:1"><path style="fill:none;stroke:currentColor;stroke-width:2;stroke-miterlimit:10;stroke-opacity:1" d="M 19.102,15.022 C 18.623,13.885 18.136,14.039 17.773,14.021 17.429,14.005 17.036,14 16.642,14 16.248,14 15.609,14.146 15.067,14.73 14.525,15.314 13,16.724 13,19.594 c 0,2.87 2.116,5.641 2.411,6.031 0.296,0.389 4.164,6.278 10.087,8.804 1.409,0.6 2.509,0.959 3.366,1.228 1.414,0.444 2.702,0.381 3.72,0.231 1.134,-0.167 3.494,-1.411 3.986,-2.772 0.492,-1.362 0.492,-2.529 0.344,-2.772 -0.148,-0.243 -0.542,-0.389 -1.132,-0.681 -0.59,-0.292 -3.494,-1.703 -4.036,-1.896 -0.542,-0.195 -0.935,-0.292 -1.329,0.292 -0.394,0.584 -1.525,1.896 -1.869,2.286 -0.344,0.389 -0.689,0.438 -1.279,0.146 -0.59,-0.292 -2.494,-0.907 -4.748,-2.894 -1.756,-1.546 -2.941,-3.455 -3.285,-4.039 -0.344,-0.584 -0.037,-0.899 0.259,-1.19 0.266,-0.262 0.59,-0.681 0.886,-1.022 0.296,-0.341 0.394,-0.584 0.59,-0.973 0.196,-0.389 0.098,-0.73 -0.05,-1.022 -0.146,-0.292 -1.327,-3.161 -1.819,-4.329 z" id="path1-41" /><path style="fill:none;stroke:currentColor;stroke-width:2;stroke-linejoin:round;stroke-miterlimit:10;stroke-opacity:1" d="M 25,3 C 12.85,3 3,12.85 3,25 3,29.072 4.111,32.884 6.04,36.155 L 3,47 14.274,44.207 C 17.448,45.983 21.104,47 25,47 37.15,47 47,37.15 47,25 47,12.85 37.15,3 25,3 Z" id="path2-52" /></g></g></g><style type="text/css" id="style1">.st0{fill:none;stroke:#000000;stroke-width:2;stroke-miterlimit:10;}.st1{fill:none;stroke:#000000;stroke-width:2;stroke-linecap:round;stroke-miterlimit:10;}.st2{fill:none;stroke:#000000;stroke-width:2;stroke-linecap:round;stroke-linejoin:round;stroke-miterlimit:10;}.st3{fill:none;stroke:#000000;stroke-linecap:round;stroke-miterlimit:10;}.st4{fill:none;stroke:#000000;stroke-width:3;stroke-linecap:round;stroke-miterlimit:10;}.st5{fill:#FFFFFF;}.st6{stroke:#000000;stroke-width:2;stroke-miterlimit:10;}.st7{fill:none;stroke:#000000;stroke-width:2;stroke-linejoin:round;stroke-miterlimit:10;}.st8{fill:none;}.st9{fill:none;stroke:#000000;stroke-width:0;stroke-linecap:round;stroke-linejoin:round;}</style><style type="text/css" id="style1-5">.st0{fill:none;stroke:#000000;stroke-width:2;stroke-miterlimit:10;}.st1{fill:none;stroke:#000000;stroke-width:2;stroke-linecap:round;stroke-miterlimit:10;}.st2{fill:none;stroke:#000000;stroke-width:2;stroke-linecap:round;stroke-linejoin:round;stroke-miterlimit:10;}.st3{fill:none;stroke:#000000;stroke-linecap:round;stroke-miterlimit:10;}.st4{fill:none;stroke:#000000;stroke-width:3;stroke-linecap:round;stroke-miterlimit:10;}.st5{fill:#FFFFFF;}.st6{stroke:#000000;stroke-width:2;stroke-miterlimit:10;}.st7{fill:none;stroke:#000000;stroke-width:2;stroke-linejoin:round;stroke-miterlimit:10;}.st8{fill:none;}.st9{fill:none;stroke:#000000;stroke-width:0;stroke-linecap:round;stroke-linejoin:round;}</style></svg>
