<?xml version="1.0" encoding="UTF-8" standalone="no"?>
<svg version="1.1" width="26.4583mm" height="26.458332mm" viewBox="0 0 75.000053 75.000088" id="svg165" xml:space="preserve" xmlns="http://www.w3.org/2000/svg" xmlns:svg="http://www.w3.org/2000/svg"><defs id="defs165" /><g id="layer3" style="display:inline;opacity:0.00700001;fill:maroon;fill-opacity:0.225" transform="translate(-1495.5024,-394.46751)"><path d="m 1495.5024,394.46751 v 75.00012 h 75.0001 v -75.00012 z" style="display:inline;fill:maroon;fill-opacity:0.225;stroke:none;stroke-width:0.753376;stroke-linecap:round;stroke-linejoin:round;stroke-dasharray:none;stroke-opacity:1" id="path154-5-7-8-5-7-2-8" /></g><g id="layer1" transform="translate(-1495.5024,-394.46751)"><path style="fill:none;stroke:currentColor;stroke-width:3.27273;stroke-linejoin:round;stroke-miterlimit:10" d="m 1530.3466,426.3301 6.2133,-24.35406 c -14.058,-8.96404 -24.8302,-1.18965 -24.8302,-1.18965 l -5.2986,22.53771 c 5.868,-1.45474 14.765,-2.10765 23.9155,3.006 z m 11.9259,-20.27297 -6.1757,24.20517 c 10.3125,7.40948 20.7852,4.75855 25.156,3.0911 l 6.1134,-25.97899 c 0,0 -10.9063,7.90858 -25.0937,-1.31728 z m -37.5759,24.64208 -6.0578,25.76625 v 0.072 c 0,0 10.2747,-7.41111 23.85,0.59238 l 6.1675,-24.17408 c -9.9442,-6.3802 -19.7952,-3.8471 -23.9597,-2.25655 z m 29.6919,6.26238 -6.1724,24.19043 c 14.6536,10.23713 26.0592,1.97346 26.0592,1.97346 v -0.11454 l 5.2429,-22.2808 c -2.3678,0.58746 -5.2216,1.04401 -8.388,1.04401 -5.0433,0 -10.8672,-1.19128 -16.7417,-4.81256 z" id="path1-60" /></g><style type="text/css" id="style1">.st0{fill:none;stroke:currentColor;stroke-width:2;stroke-miterlimit:10;}.st1{fill:none;stroke:currentColor;stroke-width:2;stroke-linecap:round;stroke-miterlimit:10;}.st2{fill:none;stroke:currentColor;stroke-width:2;stroke-linecap:round;stroke-linejoin:round;stroke-miterlimit:10;}.st3{fill:none;stroke:currentColor;stroke-linecap:round;stroke-miterlimit:10;}.st4{fill:none;stroke:currentColor;stroke-width:3;stroke-linecap:round;stroke-miterlimit:10;}.st5{fill:#FFFFFF;}.st6{stroke:currentColor;stroke-width:2;stroke-miterlimit:10;}.st7{fill:none;stroke:currentColor;stroke-width:2;stroke-linejoin:round;stroke-miterlimit:10;}.st8{fill:none;}.st9{fill:none;stroke:currentColor;stroke-width:0;stroke-linecap:round;stroke-linejoin:round;}</style><style type="text/css" id="style1-5">.st0{fill:none;stroke:currentColor;stroke-width:2;stroke-miterlimit:10;}.st1{fill:none;stroke:currentColor;stroke-width:2;stroke-linecap:round;stroke-miterlimit:10;}.st2{fill:none;stroke:currentColor;stroke-width:2;stroke-linecap:round;stroke-linejoin:round;stroke-miterlimit:10;}.st3{fill:none;stroke:currentColor;stroke-linecap:round;stroke-miterlimit:10;}.st4{fill:none;stroke:currentColor;stroke-width:3;stroke-linecap:round;stroke-miterlimit:10;}.st5{fill:#FFFFFF;}.st6{stroke:currentColor;stroke-width:2;stroke-miterlimit:10;}.st7{fill:none;stroke:currentColor;stroke-width:2;stroke-linejoin:round;stroke-miterlimit:10;}.st8{fill:none;}.st9{fill:none;stroke:currentColor;stroke-width:0;stroke-linecap:round;stroke-linejoin:round;}</style></svg>
