<?xml version="1.0" encoding="UTF-8" standalone="no"?>
<svg version="1.1" width="26.458334mm" height="26.45833mm" viewBox="0 0 75.000149 75.000082" id="svg165" xml:space="preserve" xmlns="http://www.w3.org/2000/svg" xmlns:svg="http://www.w3.org/2000/svg"><defs id="defs165" /><g id="layer1" style="opacity:1" transform="translate(-472.50077,-472.50078)"><g id="g144"><path d="m 472.50077,472.50078 v 75.00011 h 75.00012 v -75.00011 z" style="display:inline;opacity:1;fill:#80000000;fill-opacity:0.225;stroke:none;stroke-width:0.753376;stroke-linecap:round;stroke-linejoin:round;stroke-dasharray:none;stroke-opacity:1" id="path154-5-7-6-3-9" /><g id="g49" transform="matrix(1.7142884,0,0,1.7142884,467.14362,467.14363)" style="display:inline;opacity:1"><path style="fill:none;stroke:currentColor;stroke-width:2;stroke-miterlimit:10;stroke-opacity:1" d="M 41,45 H 9 C 6.791,45 5,43.209 5,41 V 9 C 5,6.791 6.791,5 9,5 h 32 c 2.209,0 4,1.791 4,4 v 32 c 0,2.209 -1.791,4 -4,4 z" id="path1-54" /><path d="m 33,11 v 5.375 c -0.455,0.539 -0.979,1.018 -1.391,1.018 -0.273,0 -0.559,-0.126 -0.609,-0.393 0,-1.625 0,-6 0,-6 h -2 v 5.838 c 0,0.66 0.099,1.109 0.239,1.397 0.23,0.473 0.689,0.714 1.35,0.735 C 31.5,19 32.185,18.41 33,17.625 V 19 h 2 v -8 z" id="path2-44" style="fill:currentColor;fill-opacity:1" /><path d="M 23,8 H 20.6 L 19,12 17.4,8 H 15 c 0.414,1.013 2.402,5.381 3,6.994 V 19 h 2 v -4 z" id="path3-25" style="fill:currentColor;fill-opacity:1" /><path d="M 27.333,11.945 C 26.771,11.275 25.889,11 25,11 c -1.006,0 -1.772,0.275 -2.333,0.945 -0.433,0.495 -0.665,1.29 -0.665,2.337 L 22,15.727 c 0,1.041 0.206,1.761 0.639,2.252 C 23.201,18.646 24.111,19 25,19 25.889,19 26.815,18.646 27.378,17.977 27.804,17.487 28,16.768 28,15.727 v -1.452 c 0,-1.048 -0.241,-1.835 -0.667,-2.33 z M 26,16.448 c 0,0.563 -0.448,1.021 -1,1.021 -0.552,0 -1,-0.457 -1,-1.021 0,-0.162 0,-2.645 0,-2.807 0,-0.563 0.448,-1.021 1,-1.021 0.552,0 1,0.457 1,1.021 0,0.162 0,2.645 0,2.807 z" id="path4-04" style="fill:currentColor;fill-opacity:1" /><path d="m 28.22,30.75 c -0.31,0 -0.9,0.31 -1.22,0.63 v 4.37 c 0.32,0.32 0.91,0.53 1.22,0.53 0.54,0 0.78,-0.36 0.78,-1.41 v -2.74 c 0,-1.05 -0.24,-1.38 -0.78,-1.38 z m 0,0 c -0.31,0 -0.9,0.31 -1.22,0.63 v 4.37 c 0.32,0.32 0.91,0.53 1.22,0.53 0.54,0 0.78,-0.36 0.78,-1.41 v -2.74 c 0,-1.05 -0.24,-1.38 -0.78,-1.38 z m 12.46,-4 c 0,0 -0.31,-2.16 -1.27,-3.1 C 38.19,22.4 36.83,22.39 36.2,22.32 31.72,22 25.01,22 25.01,22 h -0.02 c 0,0 -6.71,0 -11.19,0.32 -0.63,0.07 -1.99,0.08 -3.21,1.33 -0.96,0.94 -1.27,3.1 -1.27,3.1 0,0 -0.32,1.53 -0.32,4.06 v 2.37 c 0,2.53 0.32,4.06 0.32,4.06 0,0 0.31,2.16 1.27,3.11 1.22,1.24 2.82,1.2 3.53,1.33 C 16.68,41.92 25,42 25,42 c 0,0 6.72,-0.01 11.2,-0.33 0.63,-0.07 1.99,-0.08 3.21,-1.33 0.96,-0.94 1.27,-3.1 1.27,-3.1 0,0 0.32,-1.53 0.32,-4.06 v -2.37 c 0,-2.53 -0.32,-4.06 -0.32,-4.06 z M 16,38 H 14 V 28 h -2 v -2 h 6 v 2 h -2 z m 8,0 H 22 V 36.63 C 21.21,37.49 20.27,38 19.54,38 18.9,38 18.45,37.72 18.23,37.21 18.1,36.89 18,36.41 18,35.69 V 29 h 2 v 6.89 c 0.05,0.29 0.26,0.4 0.52,0.4 0.4,0 1.04,-0.44 1.48,-1.02 V 29 h 2 z m 7,-2.87 C 30.99,36.01 30.9,36.4 30.78,36.82 30.53,37.6 29.88,38 29.12,38 28.45,38 27.63,37.53 27,36.75 V 38 H 25 V 26 h 2 v 4.38 c 0.75,-0.88 1.15,-1.39 2.12,-1.38 0.76,0.01 1.37,0.44 1.62,1.22 0.13,0.42 0.26,1.17 0.26,2.16 z M 38,34 h -4 v 1.8 c 0,0.46 0.45,0.84 1,0.84 0.55,0 1,-0.38 1,-0.84 V 35 h 2 c 0,0.51 -0.06,0.94 -0.07,1.1 -0.07,0.35 -0.23,0.67 -0.47,0.95 C 36.92,37.69 36.11,38 35.08,38 34.04,38 33.26,37.7 32.69,37.1 32.27,36.67 32,36.01 32,35.08 v -3.06 c 0,-0.94 0.24,-1.66 0.67,-2.1 0.57,-0.6 1.35,-0.92 2.36,-0.92 0.99,0 1.78,0.32 2.33,0.92 0.41,0.44 0.64,1.12 0.64,2.06 z m -3,-3.55 c -0.55,0 -1,0.37 -1,0.84 v 1.32 h 2 v -1.32 c 0,-0.47 -0.45,-0.84 -1,-0.84 z m -6.78,0.3 c -0.31,0 -0.9,0.31 -1.22,0.63 v 4.37 c 0.32,0.32 0.91,0.53 1.22,0.53 0.54,0 0.78,-0.36 0.78,-1.41 v -2.74 c 0,-1.05 -0.24,-1.38 -0.78,-1.38 z" id="path5-21" style="fill:currentColor;fill-opacity:1" /></g></g></g><style type="text/css" id="style1">.st0{fill:none;stroke:#000000;stroke-width:2;stroke-miterlimit:10;}.st1{fill:none;stroke:#000000;stroke-width:2;stroke-linecap:round;stroke-miterlimit:10;}.st2{fill:none;stroke:#000000;stroke-width:2;stroke-linecap:round;stroke-linejoin:round;stroke-miterlimit:10;}.st3{fill:none;stroke:#000000;stroke-linecap:round;stroke-miterlimit:10;}.st4{fill:none;stroke:#000000;stroke-width:3;stroke-linecap:round;stroke-miterlimit:10;}.st5{fill:#FFFFFF;}.st6{stroke:#000000;stroke-width:2;stroke-miterlimit:10;}.st7{fill:none;stroke:#000000;stroke-width:2;stroke-linejoin:round;stroke-miterlimit:10;}.st8{fill:none;}.st9{fill:none;stroke:#000000;stroke-width:0;stroke-linecap:round;stroke-linejoin:round;}</style><style type="text/css" id="style1-5">.st0{fill:none;stroke:#000000;stroke-width:2;stroke-miterlimit:10;}.st1{fill:none;stroke:#000000;stroke-width:2;stroke-linecap:round;stroke-miterlimit:10;}.st2{fill:none;stroke:#000000;stroke-width:2;stroke-linecap:round;stroke-linejoin:round;stroke-miterlimit:10;}.st3{fill:none;stroke:#000000;stroke-linecap:round;stroke-miterlimit:10;}.st4{fill:none;stroke:#000000;stroke-width:3;stroke-linecap:round;stroke-miterlimit:10;}.st5{fill:#FFFFFF;}.st6{stroke:#000000;stroke-width:2;stroke-miterlimit:10;}.st7{fill:none;stroke:#000000;stroke-width:2;stroke-linejoin:round;stroke-miterlimit:10;}.st8{fill:none;}.st9{fill:none;stroke:#000000;stroke-width:0;stroke-linecap:round;stroke-linejoin:round;}</style></svg>
