<?xml version="1.0" encoding="UTF-8" standalone="no"?>
<svg version="1.1" width="26.458334mm" height="26.458334mm" viewBox="0 0 75.000149 75.000093" id="svg165" xml:space="preserve" xmlns="http://www.w3.org/2000/svg" xmlns:svg="http://www.w3.org/2000/svg"><defs id="defs165" /><g id="layer1" style="opacity:1" transform="translate(2e-6,-393.75065)"><g id="g109"><path d="m -2e-6,393.75065 v 75.00012 h 75.000118 v -75.00012 z" style="display:inline;opacity:1;fill:#80000000;fill-opacity:0.225;stroke:none;stroke-width:0.753376;stroke-linecap:round;stroke-linejoin:round;stroke-dasharray:none;stroke-opacity:1" id="path154-9-7-3-8" /><g id="g57" style="clip-rule:evenodd;display:inline;opacity:1;fill:currentColor;fill-opacity:1;fill-rule:evenodd;image-rendering:optimizeQuality;shape-rendering:geometricPrecision;text-rendering:geometricPrecision" transform="matrix(0.05038919,0,0,0.05038919,1.6136317,395.25066)"><path fill="currentColor" fill-rule="nonzero" d="M 417.12,0 0,418.54 v 591.8 l 417.12,418.54 h 590.01 l 417.24,-418.54 -0.01,-591.8 L 1007.13,0 Z m 211.51,1121.97 c -2.25,1.93 -3.54,4.76 -3.54,7.73 0,0.03 0,0.04 0,0.06 v 65.59 c 0,3.13 1.12,5.91 3.55,8.04 4.9,4.42 28.3,4.42 33.2,0 2.25,-1.99 3.55,-4.85 3.55,-7.86 0,-0.08 0,-0.16 0,-0.24 v -65.59 c -0.01,-0.03 -0.01,-0.04 -0.01,-0.07 0,-2.97 -1.3,-5.8 -3.54,-7.74 -4.9,-4.43 -28.36,-4.43 -33.21,0 v 0.07 z M 643.9,594.06 c 43.82,10.97 97.21,11.62 136.57,3.01 -9.4,15.18 -22.66,28.93 -40.75,40.38 -7.74,5.71 -17.11,8.8 -26.72,8.8 -9.62,0 -18.98,-3.09 -26.72,-8.8 -33.09,-20.91 -42.37,-45.26 -42.37,-43.39 z m -18.71,-71.24 c 48.94,15.67 121.93,18.92 173.99,2.59 -0.48,14.02 -2.94,27.97 -7.23,41.33 -40.75,14.22 -113.3,13.14 -160.32,-3.2 -3.98,-13.26 -6.03,-27 -6.45,-40.75 l 0.01,0.02 z m 6.84,-63.71 c 46.28,13.2 110.89,15.97 160.8,2.29 2.83,12.24 4.95,25.19 5.9,38.33 -49.42,18.08 -127.34,14.29 -173.09,-2.41 1.09,-13.14 3.44,-26.04 6.39,-38.21 z m 140,-56.53 c 4.94,10.43 10.12,23.21 14.64,37.55 -44.77,12.47 -106.43,9.88 -148.99,-2.23 4.1,-12.66 8.68,-23.99 13.14,-33.51 18.37,2.99 36.96,4.54 55.55,4.54 22.02,0 43.99,-2.13 65.59,-6.35 z M 675.78,101.77 c 1.21,0.07 2.41,0.66 2.83,1.81 l 28.15,57.86 c 2.41,-0.39 4.85,-0.58 7.29,-0.58 2.44,0 4.89,0.19 7.29,0.58 l 28.15,-57.75 c 0.49,-1.14 1.6,-1.88 2.83,-1.93 l 50.5,-1.87 c 1.69,0 3.2,1.2 3.26,2.95 0,0.03 0,0.04 0,0.07 0,1.68 -1.33,3.07 -3.01,3.13 l -48.52,1.81 -16.87,58.34 c 21.45,9.88 36.4,32.72 36.4,59.43 0,9.34 -1.81,18.32 -5.18,26.34 1.14,0.9 2.36,1.8 3.2,2.71 0,0 5.9,8.68 11.09,20.37 98.9,27.84 343.42,63.28 315.7,139.83 -31.16,86.06 -201.3,59.72 -229.81,36.4 -38.58,-31.64 -71.36,-61.41 -92.16,-85.22 -1.19,2.97 -2.5,6.02 -3.87,8.93 -21.27,4.41 -42.98,6.65 -64.74,6.65 -18.07,0 -36.17,-1.55 -53.98,-4.61 -1.97,-3.6 -3.77,-7.33 -5.36,-11.1 -20.68,24.11 -54.12,54.55 -93.72,86.97 -28.45,23.33 -198.59,49.66 -229.75,-36.34 -28.15,-77.63 223.54,-112.88 319.73,-140.91 5.06,-12.3 10.92,-21.1 10.92,-21.1 0.9,-0.98 1.91,-1.87 3,-2.65 -3.38,-8.23 -5.12,-17.08 -5.12,-25.99 0,-0.09 0,-0.19 0,-0.28 0,-26.7 15.01,-49.54 36.41,-59.43 l -16.76,-58.28 -48.58,-1.87 c -1.71,-0.03 -3.08,-1.42 -3.08,-3.14 0,-0.02 0,-0.03 0,-0.06 0.06,-1.68 1.57,-3.01 3.26,-2.95 l 50.5,1.87 z m -64.06,615.12 h 45.43 c 2.64,0 4.81,2.16 4.81,4.8 v 232.08 c 0,2.64 -2.17,4.8 -4.81,4.8 h -45.43 c -2.65,0 -4.81,-2.16 -4.81,-4.8 V 721.69 c 0,-2.64 2.16,-4.8 4.81,-4.8 z m 155.51,0 h 45.43 c 2.65,0 4.81,2.16 4.81,4.8 v 232.08 c 0,2.64 -2.16,4.8 -4.81,4.8 h -45.43 c -2.64,0 -4.81,-2.16 -4.81,-4.8 V 721.69 c 0,-2.64 2.17,-4.8 4.81,-4.8 z M 416.52,1076.7 c 4,0 7.58,1 10.99,7.11 l 21.45,38.9 c 2.11,3.7 3.11,4.1 4.41,4.1 l 2.05,0.01 c 1.3,0 2.29,-0.35 4.35,-4.11 l 21.21,-38.89 c 2.94,-5.23 5.76,-7.11 11.04,-7.11 l 38.66,-0.01 c 4.58,0 8.64,1.18 8.64,8.58 v 154.68 c 0,5.94 -2.71,8.64 -8.64,8.64 h -36.83 c -5.94,0 -8.58,-2.7 -8.58,-8.64 v -84.07 l -14.04,26.03 c -2.11,4.66 -6.76,7.66 -11.88,7.66 -0.28,0 -0.55,-0.02 -0.82,-0.03 l -9.57,0.01 c -0.24,0.01 -0.49,0.02 -0.73,0.02 -5.11,0 -9.75,-2.99 -11.84,-7.65 l -14.1,-26.03 v 84.07 c 0,5.94 -2.7,8.64 -8.64,8.64 h -35.6 c -5.88,0 -8.58,-2.7 -8.58,-8.64 v -154.68 c 0,-7.4 4,-8.58 8.58,-8.58 h 38.47 z m 265.79,3.68 c 7.89,1.96 27.93,7.35 34.51,25.61 2.15,6.22 3.26,12.8 3.26,19.41 0,0.24 -0.01,0.51 -0.01,0.75 v 80.04 c 0,6.05 -0.77,11.62 -2.2,16.84 -5.63,20.27 -25.2,27.87 -45.53,30.59 v 13.22 c 0,5.93 -2.67,8.66 -8.71,8.66 h -37.05 c -7.48,0 -8.66,-4.03 -8.66,-8.66 v -13.22 c -18.61,-2.73 -31.24,-8.36 -37.76,-16.78 -6.32,-8.43 -9.74,-18.69 -9.74,-29.22 0,-0.49 0.01,-1 0.03,-1.5 v -80.04 c 0,-0.24 -0.01,-0.5 -0.01,-0.76 0,-6.59 1.1,-13.17 3.26,-19.41 6.52,-18.2 26.67,-23.59 34.62,-25.55 9.78,-2.37 22.11,-3.68 37.05,-3.68 14.94,0 27.21,1.24 36.94,3.68 v 0.01 z m 68.88,-3.68 h 141.22 v 39.75 l -43.45,0.56 -1.67,131.59 H 795 v -131.59 h -43.81 z m 162.52,0 h 141.21 v 39.75 l -43.45,0.56 -1.66,131.59 h -52.29 v -131.59 h -43.81 z" id="path1" style="fill:currentColor;fill-opacity:1" /></g></g></g><style type="text/css" id="style1">.st0{fill:none;stroke:#000000;stroke-width:2;stroke-miterlimit:10;}.st1{fill:none;stroke:#000000;stroke-width:2;stroke-linecap:round;stroke-miterlimit:10;}.st2{fill:none;stroke:#000000;stroke-width:2;stroke-linecap:round;stroke-linejoin:round;stroke-miterlimit:10;}.st3{fill:none;stroke:#000000;stroke-linecap:round;stroke-miterlimit:10;}.st4{fill:none;stroke:#000000;stroke-width:3;stroke-linecap:round;stroke-miterlimit:10;}.st5{fill:#FFFFFF;}.st6{stroke:#000000;stroke-width:2;stroke-miterlimit:10;}.st7{fill:none;stroke:#000000;stroke-width:2;stroke-linejoin:round;stroke-miterlimit:10;}.st8{fill:none;}.st9{fill:none;stroke:#000000;stroke-width:0;stroke-linecap:round;stroke-linejoin:round;}</style><style type="text/css" id="style1-5">.st0{fill:none;stroke:#000000;stroke-width:2;stroke-miterlimit:10;}.st1{fill:none;stroke:#000000;stroke-width:2;stroke-linecap:round;stroke-miterlimit:10;}.st2{fill:none;stroke:#000000;stroke-width:2;stroke-linecap:round;stroke-linejoin:round;stroke-miterlimit:10;}.st3{fill:none;stroke:#000000;stroke-linecap:round;stroke-miterlimit:10;}.st4{fill:none;stroke:#000000;stroke-width:3;stroke-linecap:round;stroke-miterlimit:10;}.st5{fill:#FFFFFF;}.st6{stroke:#000000;stroke-width:2;stroke-miterlimit:10;}.st7{fill:none;stroke:#000000;stroke-width:2;stroke-linejoin:round;stroke-miterlimit:10;}.st8{fill:none;}.st9{fill:none;stroke:#000000;stroke-width:0;stroke-linecap:round;stroke-linejoin:round;}</style></svg>
