<?xml version="1.0" encoding="UTF-8" standalone="no"?>
<!-- Created with Inkscape (http://www.inkscape.org/) -->

<svg
   width="50.910439mm"
   height="46.888191mm"
   viewBox="0 0 50.910439 46.888191"
   version="1.1"
   id="svg1"
   xml:space="preserve"
   xmlns="http://www.w3.org/2000/svg"
   xmlns:svg="http://www.w3.org/2000/svg"><defs
     id="defs1" /><g
     id="layer1"
     transform="translate(-33.346699,-42.978771)"><path
       id="path5"
       style="fill:#888888;fill-opacity:1;stroke-width:0.534665"
       d="m 52.915608,45.525112 c -0.214787,0 -0.03195,0.402238 0.24314,0.534908 0.08588,0.04142 0.170875,0.07457 0.251982,0.09974 0.100176,-0.100336 0.200443,-0.200542 0.300609,-0.300887 -0.261263,-0.159417 -0.645598,-0.333764 -0.795731,-0.333764 z m 11.732337,0 c -0.236829,0 -1.056278,0.433432 -1.056278,0.558669 0,0.01123 9.36e-4,0.02188 0.003,0.03177 0.03258,0.0322 0.06525,0.06449 0.09781,0.0967 0.129068,0.04051 0.3721,-0.008 0.670571,-0.14395 0.305673,-0.139283 0.517459,-0.543197 0.284858,-0.543197 z m 0.811204,2.447425 c 0.05394,0.05405 0.107991,0.108117 0.161907,0.162186 0.05943,-0.0189 0.09256,-0.04035 0.09256,-0.06327 0,-0.03901 -0.09597,-0.07366 -0.254468,-0.09891 z m -7.036142,1.125628 c -0.117642,0.0032 -0.234825,0.01481 -0.350344,0.03509 l 0.426325,0.434337 v 1.798407 c 0,1.703994 0.01484,1.798131 0.282929,1.798131 0.268118,0 0.282923,-0.09414 0.282923,-1.798131 V 49.567592 L 59.372635,49.25372 C 59.183204,49.18499 58.98588,49.138209 58.786338,49.114743 l -0.0044,0.0044 -0.0055,-0.0055 h -2.78e-4 c -0.117401,-0.01333 -0.235461,-0.01864 -0.353103,-0.01547 z m -2.351551,1.484813 c -0.136713,0.135792 -0.273368,0.271681 -0.410023,0.407536 0.02523,0.03204 0.05093,0.06436 0.07709,0.0967 l 0.779982,0.964271 v 1.542282 c 0.284681,0.112276 0.551686,0.268728 0.786061,0.466111 0.09096,0.0735 0.174371,0.152403 0.2506,0.235956 h 1.235319 1.258798 c 0.275603,-0.30361 0.617955,-0.548603 0.996048,-0.706488 v -1.687613 l 0.587126,-0.687423 c -0.13881,-0.139123 -0.277561,-0.278087 -0.416376,-0.417206 -0.599621,0.68123 -0.736602,1.09915 -0.736602,2.093491 v 0.839386 h -1.697562 -1.697562 l -8.28e-4,-0.884146 c -7.85e-4,-0.931342 -0.0682,-1.102228 -1.012071,-2.26286 z m 3.374118,4.798424 -0.600385,0.0152 c -0.252308,0.0064 -0.495057,0.0086 -0.713398,0.0072 0.102399,0.406682 0.123984,0.840852 0.08427,1.264605 0.166018,0.102401 0.388241,0.17379 0.565857,0.17379 0.183277,0 0.400565,-0.083 0.584917,-0.200867 -0.01081,-0.158925 -0.01022,-0.317849 0.0017,-0.474399 -0.01993,-0.269007 0.0085,-0.533276 0.07708,-0.785509 z m -0.663657,0.611995 c 0.258039,0 0.404826,0.05871 0.353659,0.141463 -0.04808,0.0778 -0.207231,0.141463 -0.353659,0.141463 -0.146424,0 -0.305593,-0.06366 -0.35366,-0.141463 -0.05115,-0.08276 0.09562,-0.141463 0.35366,-0.141463 z" /><path
       id="path11"
       style="fill:#888888;fill-opacity:1;stroke-width:0.534665"
       d="m 40.409643,76.295041 c -0.091,0 -6.316054,4.837003 -6.654025,5.170318 -0.161004,0.158785 -0.168745,0.240722 -0.03537,0.374105 0.132819,0.132875 0.208641,0.133131 0.340673,0.0011 0.09337,-0.09337 0.220682,-0.169644 0.282926,-0.169644 0.06224,0 0.113005,1.676158 0.113005,3.725019 0,2.048861 0.04263,3.767647 0.09449,3.819509 0.05187,0.05186 1.954121,0.09421 4.227322,0.09421 4.01412,0 4.135295,-0.0081 4.207152,-0.282923 0.07146,-0.273251 0.0044,-0.282928 -1.963909,-0.282928 H 38.983683 V 86.338933 83.93406 h 1.414632 c 1.328477,0 1.414633,0.01753 1.414633,0.287901 0,0.244063 0.04308,0.264851 0.282927,0.136489 0.18526,-0.09915 0.282927,-0.296199 0.282927,-0.570829 v -0.419418 h -1.980487 -1.980486 v 2.687807 2.687801 h -1.69756 -1.69756 V 84.934246 81.12496 l 2.652438,-2.061437 c 1.45884,-1.133713 2.722908,-2.035056 2.80882,-2.002869 0.08591,0.03216 1.309147,0.958937 2.718472,2.059506 l 2.562641,2.001212 0.03979,1.581516 c 0.03471,1.37513 0.0721,1.587815 0.287348,1.629037 0.221838,0.0425 0.247561,-0.09334 0.247561,-1.30688 0,-1.322589 0.06265,-1.51803 0.383774,-1.196911 0.166059,0.166062 0.465005,0.05963 0.465005,-0.1655 0,-0.07301 -0.509268,-0.530408 -1.131706,-1.016766 l -1.13171,-0.884426 V 78.73556 77.709672 h -0.83911 c -0.781579,0 -0.842463,0.02376 -0.884146,0.342886 -0.04221,0.323183 -0.12099,0.282838 -1.37678,-0.707318 -0.732461,-0.577529 -1.369364,-1.050199 -1.415463,-1.050199 z m 3.666719,1.980761 c 0.229036,0 0.282926,0.09431 0.282926,0.495121 0,0.561702 0.0129,0.549539 -0.318292,0.298123 -0.349203,-0.265086 -0.325657,-0.793244 0.03537,-0.793244 z m 0.293978,6.261686 c -1.001767,-0.05035 -2.011349,0.227286 -2.824293,0.816176 -0.490582,0.355375 -0.571177,0.473964 -0.434613,0.638517 0.143665,0.173103 0.224793,0.161351 0.565853,-0.0815 1.581965,-1.126479 3.393726,-1.114433 4.976912,0.03315 0.187822,0.136157 0.282174,0.138344 0.411404,0.0091 0.241347,-0.241348 -0.03105,-0.520325 -0.944654,-0.96731 -0.551438,-0.269792 -1.149549,-0.417936 -1.750609,-0.44815 z m -0.304754,1.448342 c -0.782527,3.1e-4 -1.025672,0.06339 -1.530677,0.397587 -0.477695,0.31612 -0.567633,0.437206 -0.43931,0.591825 0.134543,0.162116 0.271245,0.135345 0.823637,-0.161629 0.833008,-0.447835 1.919496,-0.413386 2.589994,0.08233 0.299009,0.221068 0.479585,0.275256 0.580497,0.174344 0.463084,-0.463084 -0.697852,-1.084984 -2.024141,-1.08446 z m 0.04144,1.353294 c -0.249301,0.009 -0.499992,0.0793 -0.754839,0.211091 -0.348244,0.180086 -0.396154,0.258665 -0.258613,0.42439 0.201731,0.243064 0.366012,0.259323 0.496227,0.04863 0.05354,-0.08651 0.291137,-0.123026 0.538776,-0.08234 0.243676,0.04002 0.56795,0.09387 0.720579,0.119637 0.427284,0.07216 0.430505,-0.370207 0.0041,-0.564472 -0.249211,-0.113547 -0.496974,-0.165955 -0.746275,-0.156935 z m 0.01243,1.438119 c -0.125813,-1.81e-4 -0.255335,0.05778 -0.373552,0.176001 -0.226844,0.226848 -0.174939,0.618709 0.108032,0.816176 0.414981,0.289596 0.974468,-0.274053 0.70179,-0.70704 -0.11868,-0.188453 -0.274511,-0.284907 -0.43627,-0.285137 z" /><path
       id="path10"
       style="fill:#888888;fill-opacity:1;stroke-width:0.534665"
       d="m 34.387506,62.116382 c -0.08892,0.0048 -0.175599,0.139889 -0.343435,0.468874 -0.929828,1.822614 -0.929828,4.163881 0,5.986495 0.25575,0.50131 0.323005,0.552576 0.497055,0.378525 0.174051,-0.17405 0.163341,-0.279753 -0.07874,-0.780811 -0.755847,-1.564423 -0.755847,-3.6175 0,-5.181923 0.242085,-0.501058 0.252795,-0.60676 0.07874,-0.780811 -0.05983,-0.05983 -0.10704,-0.09288 -0.15362,-0.09035 z m 12.009462,2.77e-4 c -0.04264,0.0033 -0.0868,0.03568 -0.141187,0.09007 -0.174051,0.174051 -0.163341,0.279753 0.07874,0.780811 0.75456,1.561799 0.755835,3.617737 0.003,5.175844 -0.217343,0.44985 -0.240962,0.616779 -0.109413,0.775285 0.218636,0.26344 0.424142,-0.0051 0.832755,-1.088328 0.604416,-1.602264 0.481308,-3.717693 -0.305859,-5.260667 -0.177199,-0.347338 -0.264269,-0.480357 -0.358079,-0.473017 z m -10.735739,0.803743 c -0.344782,-0.0015 -0.783351,1.101938 -0.879449,2.241033 -0.07526,0.892115 0.165152,2.150292 0.547618,2.865737 0.0753,0.140853 0.244024,0.232671 0.374933,0.203906 0.0799,-0.01756 0.136165,-0.02799 0.165777,-0.06189 -0.189879,-0.428844 -0.315677,-0.88687 -0.376867,-1.354124 -0.250527,-0.909363 -0.216808,-1.907245 0.101124,-2.792795 0.38126,-1.061941 0.379131,-1.037251 0.100019,-1.098275 -0.01091,-0.0024 -0.02203,-0.0035 -0.03316,-0.0036 z m 9.476108,0.04089 c -0.319516,0 -0.320969,-0.02118 0.0851,1.131706 0.362963,1.030501 0.311852,2.340212 -0.130688,3.350912 -0.208902,0.477104 -0.243281,0.682301 -0.122398,0.731079 0.0924,0.03726 0.231646,0.05313 0.309451,0.03536 0.251505,-0.05741 0.768101,-1.827534 0.768101,-2.631991 0,-1.084126 -0.532804,-2.617071 -0.909564,-2.617071 z m -2.09736,0.66228 c -0.132415,0.132581 -0.264871,0.265312 -0.397313,0.397866 0.197948,0.3873 0.242317,0.815622 0.298952,2.339394 0.06427,1.729169 0.105518,2.03187 0.413614,2.641662 0.40494,0.413916 0.812198,0.825888 1.22095,1.236422 0.04095,-0.08868 -0.10154,-0.447915 -0.321884,-0.808717 -0.624469,-1.022537 -0.643053,-1.102335 -0.736328,-3.14452 -0.06198,-1.356957 -0.170924,-2.12507 -0.477991,-2.662107 z m -6.431331,5.699977 c -0.02096,0.03499 -0.04242,0.07037 -0.06465,0.10665 -0.225422,0.367885 -0.369633,0.733921 -0.320503,0.813414 0.05039,0.08153 0.659065,0.144503 1.396398,0.144503 h 0.04697 c -0.18699,-0.188534 -0.373776,-0.37715 -0.560607,-0.565851 h -0.0909 l 0.02929,-0.06189 c -0.03092,-0.03123 -0.06165,-0.06243 -0.09256,-0.09366 -0.121769,-0.108239 -0.236363,-0.222877 -0.343436,-0.343159 z" /><path
       id="path9"
       style="fill:#888888;fill-opacity:1;stroke-width:0.534665"
       d="m 58.192027,76.796514 c 0.01931,0.255703 -0.0055,0.50769 -0.06742,0.749316 0.362851,0.576336 0.306197,0.730475 -0.187881,0.50175 -0.08324,0.166613 -0.184579,0.324953 -0.300607,0.471917 0.27535,0.160404 0.5081,0.395528 0.648187,0.690738 0.298578,0.62907 0.281651,0.809012 -0.05912,0.626638 -0.150492,-0.08054 -0.44327,-0.14644 -0.650677,-0.14644 -0.501556,0 -1.377451,0.862243 -1.314062,1.293616 0.07141,0.48594 0.387653,0.479802 0.558669,-0.01077 0.398853,-1.14415 1.679877,-0.82788 1.679877,0.414718 0,0.471547 0.04716,0.565857 0.282929,0.565857 0.235771,0 0.282923,-0.09431 0.282923,-0.565857 0,-1.242598 1.280746,-1.558868 1.6796,-0.414718 0.171012,0.490566 0.487267,0.496704 0.558671,0.01077 0.06339,-0.431373 -0.812508,-1.293616 -1.314061,-1.293616 -0.207407,0 -0.500179,0.0659 -0.650676,0.14644 -0.340768,0.182374 -0.357707,0.0026 -0.05913,-0.626638 0.134538,-0.283506 0.35444,-0.511679 0.615586,-0.671399 -0.118289,-0.14606 -0.220351,-0.304519 -0.302817,-0.473569 -0.452551,0.212497 -0.508402,0.05608 -0.173515,-0.486283 -0.0212,-0.09089 -0.0368,-0.183839 -0.04669,-0.278779 -0.0018,-0.166174 -0.0036,-0.332262 -0.0053,-0.498441 l -0.584639,0.584645 z m -5.233869,1.43011 c -0.01093,0.07839 -0.01808,0.157693 -0.02155,0.23761 -0.0022,0.05178 -0.0031,0.100335 -0.0025,0.145332 0.107922,0.108168 0.215898,0.216208 0.323819,0.324371 0.03304,-0.04992 0.06646,-0.114007 0.09919,-0.192025 -0.154111,-0.154898 -0.289037,-0.327605 -0.39897,-0.515288 z m 9.964323,1.256867 c -0.09128,0.02525 -0.184074,0.04545 -0.277956,0.06023 -0.09118,0.0191 -0.183315,0.03291 -0.275742,0.04172 0.01096,0.03344 0.02201,0.06802 0.03315,0.103891 0.06312,0.203076 0.138265,0.343565 0.212198,0.422454 0.108125,-0.107761 0.216277,-0.215469 0.32437,-0.323263 0.0018,-0.04027 0.0019,-0.08355 5.51e-4,-0.129859 -0.0017,-0.05766 -0.0072,-0.116103 -0.01657,-0.175173 z m -8.284999,0.0061 c -0.006,0.05016 -0.01,0.101008 -0.0116,0.152513 -0.02242,0.705211 0.321766,0.735677 0.535737,0.04725 0.01072,-0.03448 0.02124,-0.0678 0.03177,-0.10002 -0.187726,-0.0145 -0.374076,-0.04831 -0.555907,-0.09974 z m 4.065139,2.747202 c -0.863836,0 -1.56984,1.02e-4 -2.147095,0.0022 l 0.0011,0.0011 c 0.168689,0.228077 0.379689,0.42022 0.616968,0.572203 0.472514,-0.0063 1.011605,-0.0097 1.608318,-0.0097 0.395004,0 0.762073,0.0013 1.099933,0.0039 0.03273,-0.0239 0.06485,-0.04907 0.09643,-0.07515 0.164307,-0.162784 0.328423,-0.3256 0.492634,-0.488491 -0.52126,-0.0042 -1.110386,-0.0061 -1.76829,-0.0061 z m 4.042475,4.809756 c -0.19388,0.193442 -0.387707,0.386798 -0.581598,0.580218 1.882731,0.02097 2.701339,0.06582 2.701339,0.140638 0,0.338459 -0.640084,1.023776 -1.188623,1.272892 -0.524886,0.238369 -0.988632,0.263312 -4.894297,0.263312 -3.905665,0 -4.369691,-0.02494 -4.894577,-0.263312 -0.548537,-0.249116 -1.188347,-0.934433 -1.188347,-1.272892 0,-0.06807 0.678055,-0.111531 2.219205,-0.134559 -0.200601,-0.194858 -0.400813,-0.390096 -0.600666,-0.585746 -1.381255,0.0071 -2.489535,0.06243 -2.530867,0.129308 -0.235542,0.381115 1.406949,2.264187 2.193786,2.515116 0.712132,0.227093 8.766639,0.236722 9.518933,0.01133 0.856383,-0.25658 2.532011,-2.115095 2.277783,-2.526445 -0.04428,-0.07165 -1.313446,-0.129859 -2.830647,-0.129859 z" /><path
       id="path4"
       style="fill:#888888;fill-opacity:1;stroke-width:0.534665"
       d="m 36.861733,42.978772 c -0.607242,0 -0.84878,0.205089 -0.84878,0.720303 0,0.374833 -0.01611,0.381499 -1.067883,0.434612 -0.742286,0.03748 -1.108338,0.117719 -1.200227,0.263033 -0.209037,0.330572 -0.177313,12.348269 0.03316,12.558738 0.148302,0.148302 4.903692,0.206602 8.674022,0.174895 0.189767,-0.190351 0.379358,-0.380794 0.569169,-0.571103 H 40.398315 34.17393 v -4.597557 -4.597558 h 6.224385 6.224386 v 4.597558 0.990519 c 0.18676,-0.186892 0.373554,-0.373726 0.560328,-0.560604 0.03206,-3.512074 -0.0073,-7.799289 -0.130965,-7.994888 -0.09189,-0.145314 -0.457941,-0.225547 -1.200227,-0.263033 -1.051774,-0.05311 -1.068159,-0.05978 -1.068159,-0.434612 0,-0.515214 -0.241538,-0.720303 -0.84878,-0.720303 -0.612088,0 -0.84878,0.205299 -0.84878,0.735775 v 0.395932 h -2.687803 -2.687802 v -0.395932 c 0,-0.530476 -0.236692,-0.735775 -0.84878,-0.735775 z m 0,0.565853 c 0.25391,0 0.282926,0.09431 0.282926,0.919512 0,0.825203 -0.02902,0.919511 -0.282926,0.919511 -0.253911,0 -0.282927,-0.09431 -0.282927,-0.919511 0,-0.825203 0.02902,-0.919512 0.282927,-0.919512 z m 7.073165,0 c 0.25391,0 0.282927,0.09431 0.282927,0.919512 0,0.825203 -0.02902,0.919511 -0.282927,0.919511 -0.25391,0 -0.282926,-0.09431 -0.282926,-0.919511 0,-0.825203 0.02902,-0.919512 0.282926,-0.919512 z m -9.690237,1.202439 h 0.84878 c 0.838139,0 0.849575,0.0053 0.896856,0.42439 0.06797,0.602436 0.264513,0.778048 0.871436,0.778048 0.606923,0 0.80374,-0.175612 0.871712,-0.778048 l 0.0478,-0.42439 h 2.617071 2.617072 l 0.04808,0.42439 c 0.06797,0.602436 0.264513,0.778048 0.871436,0.778048 0.606923,0 0.803741,-0.175612 0.871713,-0.778048 0.04728,-0.419044 0.05844,-0.42439 0.896579,-0.42439 h 0.84878 l 0.04172,1.025609 0.04145,1.025608 h -6.23682 -6.236542 l 0.04144,-1.025608 z m 1.768292,3.89024 v 3.324389 3.324387 h 4.385362 3.893281 c 0.164027,-0.164316 0.328031,-0.328617 0.492082,-0.492911 v -2.831476 -3.324389 h -4.385363 z m 0.565853,0.565854 h 0.707317 0.707316 v 0.707316 0.707317 h -0.707316 -0.707317 v -0.707317 z m 1.980487,0 h 0.778048 0.778048 v 0.707316 0.707317 h -0.778048 -0.778048 v -0.707317 z m 2.121949,0 h 0.778048 0.778048 v 0.707316 0.707317 H 41.45929 40.681242 v -0.707317 z m 2.12195,0 h 0.707316 0.707317 v 0.707316 0.707317 h -0.707317 -0.707316 v -0.707317 z m -2.687803,1.965843 v 0.785508 0.785232 h -0.711738 c -0.801002,0 -0.887437,-0.09925 -0.818387,-0.939958 l 0.04476,-0.545407 0.742683,-0.04255 z m -3.536583,0.01464 h 0.707317 0.707316 v 0.778049 0.778048 H 37.286123 36.578806 V 51.96169 Z m 6.224386,0 h 0.707316 0.707317 v 0.778049 0.778048 H 43.510508 42.803192 V 51.96169 Z m -6.224386,2.12195 h 0.707317 0.707316 v 0.707316 0.707317 H 37.286123 36.578806 V 54.01291 Z m 1.980487,0 h 0.778048 0.778048 v 0.707316 0.707317 H 39.337341 38.559293 V 54.01291 Z m 2.121949,0 h 0.778048 0.778048 v 0.707316 0.707317 H 41.45929 40.681242 V 54.01291 Z m 2.12195,0 h 0.707316 0.707317 v 0.707316 0.707317 H 43.510508 42.803192 V 54.01291 Z" /><path
       id="path6"
       style="fill:#888888;fill-opacity:1;stroke-width:0.534665"
       d="m 81.115985,42.979601 c -0.38121,-0.0058 -0.41417,0.05556 -0.41417,0.265796 0,0.265338 0.0812,0.299228 0.71368,0.299228 0.56919,0 0.78407,0.0704 1.06097,0.347304 l 0.3473,0.347303 v 5.812706 5.812981 l -0.3473,0.347304 -0.3473,0.347027 h -4.893197 -3.203367 c 0.173632,0.173504 0.347206,0.347017 0.520817,0.520541 0.837578,0.0077 1.821067,0.0095 2.856343,0.0036 l 5.125004,-0.02901 0.39207,-0.392064 0.39206,-0.392339 v -6.218031 -6.217755 l -0.38543,-0.385432 c -0.32253,-0.322525 -0.53572,-0.394797 -1.30854,-0.444007 -0.2161,-0.01376 -0.38187,-0.02322 -0.50894,-0.02514 z m -5.880945,0.02238 c -0.0835,-9.78e-4 -0.160875,0.03101 -0.227671,0.09781 -0.116856,0.116855 -0.07739,0.244699 0.150861,0.487661 0.170141,0.181106 0.309448,0.36681 0.309448,0.412786 0,0.04598 -0.222806,0.350153 -0.495121,0.676095 -0.567584,0.679348 -0.617826,1.079088 -0.201975,1.607764 0.284779,0.362034 0.697096,0.505729 0.697096,0.242863 0,-0.0715 -0.108419,-0.318933 -0.240931,-0.549828 -0.238262,-0.415146 -0.235819,-0.425548 0.210262,-0.933602 0.581999,-0.662863 0.694519,-1.116166 0.391787,-1.578201 -0.196474,-0.299851 -0.410051,-0.461195 -0.593756,-0.463347 z m 1.839021,0 c -0.0835,-9.78e-4 -0.16087,0.03101 -0.227665,0.09781 -0.116856,0.116855 -0.07205,0.250212 0.17075,0.50866 0.326247,0.347273 0.3266,0.353512 0.06161,0.726933 -0.885121,1.247297 -0.916934,1.379446 -0.469147,1.948713 0.294942,0.37496 0.614468,0.479709 0.757603,0.248113 0.04244,-0.06866 -0.04936,-0.285658 -0.20391,-0.482136 -0.360588,-0.458416 -0.359006,-0.469144 0.141467,-1.039147 0.554046,-0.631025 0.661765,-1.089708 0.363053,-1.545598 -0.196473,-0.299851 -0.41005,-0.461195 -0.593761,-0.463347 z m 1.824104,0.0097 c -0.03354,-0.0017 -0.0652,0.0026 -0.0945,0.01382 -0.226639,0.08697 -0.223084,0.122141 0.04836,0.467216 0.36941,0.469411 0.36885,0.64766 -0.0036,0.984717 -0.338721,0.306537 -0.692952,0.937202 -0.692952,1.233936 0,0.110078 0.131896,0.367756 0.293151,0.572761 h -2.78e-4 c 0.16126,0.205004 0.380366,0.372722 0.486834,0.372722 0.347585,0 0.387705,-0.296974 0.08372,-0.62056 -0.163762,-0.174315 -0.297845,-0.354652 -0.297845,-0.400628 0,-0.04598 0.2228,-0.35043 0.49512,-0.676371 0.27232,-0.325943 0.49512,-0.74195 0.49512,-0.924762 0,-0.423325 -0.4889,-1.006483 -0.813133,-1.022846 z m -5.867691,0.03785 c -1.006362,0 -1.124544,0.03131 -1.485362,0.392339 l -0.392064,0.39234 v 6.20615 c 0,2.734775 0.002,4.267886 0.02984,5.155399 0.155069,-0.155084 0.310111,-0.310029 0.465281,-0.465006 v -4.656685 c 0,-6.825893 -0.09564,-6.412177 1.508022,-6.529416 0.73426,-0.05368 0.967587,-0.121887 0.967587,-0.282926 0,-0.170315 -0.215742,-0.212195 -1.093304,-0.212195 z m 8.196861,1.508573 c -0.37221,0.012 -0.69154,0.515277 -0.50921,0.855964 0.17812,0.332823 0.80526,0.292758 1.02975,-0.06576 0.19737,-0.315218 -0.0348,-0.724591 -0.44567,-0.786061 -0.0251,-0.0038 -0.0501,-0.0049 -0.0749,-0.0041 z m -4.222903,3.118548 c -0.84731,0.05117 -1.698217,0.401287 -2.402109,1.105182 -1.983102,1.983098 -1.209667,5.173176 1.501942,6.195375 0.233419,0.08799 0.806344,0.143069 1.27317,0.122399 2.15529,-0.09543 3.77991,-1.920662 3.56476,-4.005181 -0.22666,-2.196127 -2.073677,-3.530347 -3.937763,-3.417775 z m 0.231536,0.608403 c 1.006763,0 2.013597,0.48458 2.628127,1.453591 0.22738,0.358536 0.41333,0.696907 0.41333,0.752076 0,0.05517 -0.25359,0.06618 -0.56363,0.02459 -0.39613,-0.05313 -0.771942,0.01403 -1.264058,0.225734 -0.876288,0.376948 -1.59869,0.377946 -2.416208,0.0033 -0.443531,-0.20325 -0.818913,-0.272025 -1.237801,-0.226562 -0.330674,0.03589 -0.60122,0.02207 -0.60122,-0.03095 0,-0.05301 0.185962,-0.389672 0.413338,-0.748208 0.614528,-0.969011 1.621365,-1.453591 2.628122,-1.453591 z m 2.234407,2.78644 c 0.14733,-0.0057 0.26998,0.03849 0.45699,0.129307 0.36344,0.176508 0.41483,0.27105 0.37687,0.694883 -0.0654,0.73001 -0.72095,1.700551 -1.445303,2.140185 -0.69531,0.422004 -1.651975,0.58764 -2.36758,0.409746 -1.14199,-0.28389 -2.239335,-1.487257 -2.327512,-2.552694 -0.03416,-0.412825 0.02071,-0.514517 0.369405,-0.685213 0.429319,-0.210166 0.385594,-0.217665 1.960871,0.338462 0.71899,0.253828 1.011901,0.216242 2.372274,-0.304478 0.284665,-0.108961 0.456655,-0.164531 0.603985,-0.170198 z" /><path
       id="path12"
       style="fill:#888888;fill-opacity:1;stroke-width:0.534665"
       d="m 58.671118,60.00134 c -0.02628,0.0013 -0.04754,0.0084 -0.06382,0.02128 -0.04271,0.03367 -0.353659,0.275987 -0.836622,0.651781 0.105485,0.155612 0.193597,0.322729 0.260826,0.499542 0.44753,-0.338997 0.730694,-0.546534 0.749311,-0.546513 0.02513,2.9e-5 0.315206,0.208874 0.730801,0.523028 0.07116,-0.174888 0.162024,-0.342046 0.26939,-0.498437 -0.62336,-0.46313 -0.956488,-0.658111 -1.109883,-0.650676 z m 0.110799,4.445318 c -0.227757,0 -0.429571,0.06468 -0.596526,0.172409 0.0034,0.646338 0.0058,1.292607 0.0072,1.939042 l 0.151963,0.151962 h -0.151699 c 3.53e-4,0.188615 6.1e-4,0.377233 8.29e-4,0.565854 h 0.588233 0.562258 c 3.16e-4,-0.188618 7.86e-4,-0.377236 0.0011,-0.565854 h -0.126266 l 0.126544,-0.126267 v -2.76e-4 c 0.0011,-0.661069 0.0022,-1.32221 0.003,-1.983249 -0.16095,-0.09656 -0.352307,-0.153621 -0.56668,-0.153621 z m 6.124089,0.213577 c 0.0013,0.245983 0.0026,0.491987 0.0036,0.737985 0.02912,0.0039 0.06267,0.02085 0.101678,0.04172 0.288783,0.154552 0.560879,0.08303 0.560879,-0.147266 0,-0.05162 -0.274481,-0.308846 -0.66615,-0.63244 z m -12.277469,0.06355 c -0.399673,0.331754 -0.636861,0.542166 -0.636861,0.570274 0,0.229782 0.272671,0.299782 0.562814,0.144502 0.02673,-0.01431 0.05098,-0.02694 0.07294,-0.03509 3.49e-4,-0.226558 8.1e-4,-0.453134 0.0011,-0.679687 z m 6.174376,0.299228 c 0.392112,0.01351 0.704752,0.545808 0.397587,0.91592 -0.218507,0.263283 -0.618944,0.263283 -0.83745,0 -0.219918,-0.264986 -0.142986,-0.641735 0.171306,-0.839663 0.07659,-0.04823 0.154599,-0.07203 0.23043,-0.07598 0.01279,-6.67e-4 0.02548,-7.11e-4 0.03813,-2.76e-4 z m -0.294531,3.396225 c -0.108622,-4.27e-4 -0.215715,0.0062 -0.314147,0.01934 -2.2e-5,0.163464 -1.82e-4,0.326959 -2.78e-4,0.490425 0.05981,0.0066 0.126095,0.01246 0.198932,0.01713 0.369571,0.02372 0.671951,0.103287 0.671951,0.176829 0,0.06809 -0.382221,0.124605 -0.871156,0.132622 -1.6e-4,0.18894 -3.21e-4,0.37774 -5.56e-4,0.566683 h 0.310282 l -0.310555,0.286792 c -0.0013,0.931741 -0.0033,1.86356 -0.0052,2.795282 0.215229,-9.63e-4 0.433479,-0.0022 0.654542,-0.0036 l 0.501477,-0.0033 c -0.0024,-0.938714 -0.0032,-1.877477 -0.0028,-2.816281 l -0.280437,-0.258888 h 0.280715 c 2.41e-4,-0.401956 5.83e-4,-0.803794 0.0011,-1.205754 -0.167612,-0.132212 -0.50799,-0.195997 -0.833858,-0.197275 z m 0.273535,1.403029 c 0.0778,0 0.141461,0.06366 0.141461,0.141463 0,0.0778 -0.06366,0.141463 -0.141461,0.141463 -0.0778,0 -0.141467,-0.06366 -0.141467,-0.141463 0,-0.0778 0.06366,-0.141463 0.141467,-0.141463 z m 0,0.576075 c 0.06192,0 0.123662,0.05321 0.229873,0.159423 0.184588,0.184581 0.210492,0.386102 0.131244,1.020359 -0.08,0.640291 -0.148439,0.790482 -0.361117,0.790482 -0.381767,0 -0.568899,-1.472099 -0.230157,-1.810841 0.106216,-0.106213 0.168237,-0.159423 0.230157,-0.159423 z" /><path
       id="path8"
       style="fill:#888888;fill-opacity:1;stroke-width:0.534665"
       d="m 77.165238,59.424711 c -0.09868,0 -0.186818,7.84e-4 -0.266071,0.0025 0.167094,0.16746 0.334176,0.334768 0.5012,0.502305 0.566333,0.05026 0.820876,0.303322 0.881656,0.885251 0.193613,0.194571 0.387295,0.389375 0.580774,0.584089 v -0.282651 c 0,-0.647878 -0.06423,-0.839143 -0.412782,-1.229239 -0.381579,-0.427063 -0.478707,-0.462242 -1.284777,-0.462242 z m 2.221967,2.502132 c 0.13926,0.14034 0.27832,0.280646 0.41748,0.421075 0.0798,-0.04172 0.11909,-0.09648 0.11909,-0.164672 0,-0.143089 -0.17277,-0.226246 -0.53049,-0.25585 z m -3.919527,3.573054 v 1.260461 c 0.10643,-0.41376 0.111809,-0.85196 0,-1.260461 z m -0.226008,1.841786 -0.2774,0.243693 c -0.277732,0.24385 -0.510434,0.529887 -0.693503,0.849332 0.09909,-0.09918 0.19819,-0.198412 0.297295,-0.29757 0.281303,-0.211166 0.508701,-0.486232 0.673608,-0.795455 z m 5.184405,1.977447 c -0.15226,0.169891 -0.31321,0.333373 -0.4766,0.494846 0.0609,0.542 -0.021,1.096696 -0.27188,1.564385 -0.18777,0.350121 -0.597179,0.816963 -0.909845,1.037213 -0.542759,0.382333 -1.235797,0.549831 -1.892899,0.489596 -0.165549,0.166349 -0.331198,0.332667 -0.496779,0.498989 1.594295,0.38183 3.339873,-0.567917 3.972303,-2.223902 0.2221,-0.581564 0.23758,-1.237337 0.0757,-1.861127 z" /><path
       id="path7"
       style="fill:#888888;fill-opacity:1;stroke-width:0.534665"
       d="m 73.285771,76.507511 c -0.216283,0.216818 -0.432688,0.433619 -0.649019,0.650398 0.326787,-0.127014 1.635069,-0.155277 4.528486,-0.155277 4.599407,0 5.206937,0.07207 4.187817,0.497885 -0.71909,0.300439 -7.712283,0.295637 -8.406299,-0.0058 -0.240139,-0.104302 -0.3836,-0.187218 -0.393994,-0.252811 -0.193869,0.194265 -0.387701,0.388749 -0.581603,0.582982 0.01023,0.0033 0.0204,0.0066 0.03067,0.0099 l 1.131708,0.370234 0.04006,1.52073 0.04033,1.520731 -0.747653,-0.01879 c -0.411104,-0.01024 -0.970186,-0.05798 -1.242502,-0.106098 l -0.49512,-0.08731 -0.04006,-1.685957 c -0.0019,-0.07935 -0.0033,-0.15771 -0.0044,-0.234852 -0.194549,0.194747 -0.389236,0.389375 -0.583811,0.584089 -0.06746,3.581739 -0.0091,9.196352 0.174894,9.266955 0.10072,0.03865 0.458742,-0.02699 0.79573,-0.145889 0.781397,-0.275716 0.86011,-0.271812 0.86011,0.0431 0,0.142643 0.04332,0.302764 0.09615,0.355589 0.05283,0.05285 2.392276,0.07928 5.198778,0.05886 l 5.102622,-0.03702 0.0453,-0.318292 c 0.0536,-0.377494 0.0923,-0.382087 0.88552,-0.102233 0.33699,0.118904 0.69501,0.184545 0.79573,0.145889 0.26923,-0.103313 0.26923,-12.079381 0,-12.182699 -0.10072,-0.03865 -0.45874,0.02699 -0.79573,0.145883 -0.79318,0.279854 -0.83191,0.275539 -0.88552,-0.101955 l -0.0453,-0.318292 h -5.163408 z m 10.272674,1.025888 c 0.0209,3.7e-5 0.0344,0.0023 0.0395,0.0075 0.13409,0.134088 0.0782,3.403593 -0.0597,3.488782 -0.0738,0.04562 -0.64674,0.122416 -1.27317,0.17075 l -1.1389,0.08786 v -1.551676 -1.551399 l 1.19858,-0.35946 c 0.57681,-0.172953 1.0875,-0.29259 1.23366,-0.292317 z m -9.788327,0.742403 h 3.39512 3.395117 v 4.597559 4.597558 h -3.395117 -3.39512 v -4.597558 z m -3.112191,3.374674 0.813412,0.08675 c 0.447375,0.04777 1.021712,0.119139 1.276212,0.158597 l 0.462517,0.07184 -0.03813,2.774283 -0.03841,2.774005 -1.156854,0.388749 c -0.636192,0.213711 -1.19321,0.351831 -1.237801,0.30724 -0.04458,-0.0446 -0.08095,-1.539203 -0.08095,-3.321347 z m 13.014618,0 v 3.255588 c 0,1.790517 -0.0477,3.279691 -0.10609,3.309472 -0.0584,0.02976 -0.63128,-0.107687 -1.27317,-0.30531 l -1.16708,-0.359182 v -2.792243 -2.792242 l 0.45976,-0.07129 c 0.25287,-0.03916 0.82579,-0.110242 1.27317,-0.158041 z m -6.507307,6.366678 c 1.911404,0 3.822727,0.07623 4.187817,0.228772 0.27541,0.115076 0.46076,0.274224 0.41168,0.353659 -0.12264,0.198441 -9.076339,0.198441 -9.198986,0 -0.04909,-0.07944 0.136259,-0.238583 0.411676,-0.353659 0.36509,-0.152545 2.276408,-0.228772 4.187813,-0.228772 z" /></g><g
     id="layer2"
     style="display:inline"
     transform="translate(-33.346699,-42.978771)"><path
       style="display:inline;fill:#666666;fill-opacity:1;fill-rule:evenodd;stroke:none;stroke-width:0.0809199"
       d="m 64.061595,76.855984 c 0,0.57539 -0.195661,1.098747 -0.66646,1.450711 -0.369918,0.278512 -0.804033,0.42848 -1.268721,0.42848 -0.476921,0 -0.914094,-0.140788 -1.290124,-0.434597 -0.461629,-0.351969 -0.645062,-0.878384 -0.645062,-1.444594 V 62.140755 c 0,-0.560085 0.192602,-1.068142 0.645062,-1.413984 0.37603,-0.290755 0.813203,-0.431542 1.290124,-0.431542 0.464688,0 0.898803,0.146907 1.268721,0.425419 0.46163,0.345846 0.66646,0.85084 0.66646,1.420107 z m 0.03058,-20.322198 c 0,0.578448 -0.195661,1.104867 -0.660343,1.444589 -0.369918,0.284635 -0.804034,0.434603 -1.274838,0.434603 -0.476921,0 -0.923264,-0.143848 -1.290124,-0.434603 -0.458571,-0.351965 -0.642004,-0.875323 -0.642004,-1.444589 v -0.449905 c 0,-0.560085 0.192602,-1.068138 0.632834,-1.404803 0.37603,-0.299936 0.822373,-0.443781 1.299294,-0.443781 0.470804,0 0.90492,0.149968 1.265663,0.42848 0.467746,0.342784 0.669518,0.850837 0.669518,1.420104 z"
       id="path2-8" /><path
       style="display:inline;fill:#666666;fill-opacity:1;fill-rule:evenodd;stroke:none;stroke-width:0.0809199"
       d="m 57.341857,76.855984 c 0,0.57539 -0.195661,1.098747 -0.666463,1.450711 -0.369915,0.278512 -0.804032,0.42848 -1.26872,0.42848 -0.476919,0 -0.914091,-0.140788 -1.290123,-0.434597 -0.46163,-0.351969 -0.645059,-0.878384 -0.645059,-1.444594 V 62.140755 c 0,-0.560085 0.192601,-1.068142 0.645059,-1.413984 0.376032,-0.290755 0.813204,-0.431542 1.290123,-0.431542 0.464688,0 0.898805,0.146907 1.26872,0.425419 0.461633,0.345846 0.666463,0.85084 0.666463,1.420107 z m 0.03058,-20.322198 c 0,0.578448 -0.19566,1.104867 -0.660345,1.444589 -0.369918,0.284635 -0.804035,0.434603 -1.274837,0.434603 -0.476919,0 -0.923263,-0.143848 -1.290123,-0.434603 -0.458575,-0.351965 -0.642005,-0.875323 -0.642005,-1.444589 v -0.449905 c 0,-0.560085 0.192603,-1.068138 0.632833,-1.404803 0.376032,-0.299936 0.822376,-0.443781 1.299295,-0.443781 0.470802,0 0.904919,0.149968 1.265665,0.42848 0.467743,0.342784 0.669517,0.850837 0.669517,1.420104 z"
       id="path2-5-5" /><path
       style="display:inline;fill:#9fdb58;fill-opacity:1;fill-rule:evenodd;stroke:none;stroke-width:0.0809199"
       d="m 61.597102,45.327495 7.679583,7.688156 -2.332612,2.335217 -5.897264,-5.909963 c -1.247319,-1.248715 -3.283389,-1.248715 -4.527651,0 L 41.832559,64.159197 c -1.244266,1.248712 -1.244266,3.290115 0,4.538827 l 5.885031,5.89772 -2.335669,2.33828 -7.676528,-7.688157 c -1.54998,-1.548648 -1.54998,-4.085865 0,-5.637575 L 55.965807,45.327495 c 1.549983,-1.55171 4.084366,-1.55171 5.631295,0 z m 10.583886,10.595702 7.679587,7.685095 c 1.54692,1.55171 1.54692,4.088927 0,5.637575 L 61.60016,87.526663 c -1.549987,1.551709 -4.08437,1.551709 -5.634353,0.0032 l -7.676527,-7.68816 2.332615,-2.335216 5.897263,5.909962 c 1.244262,1.245656 3.280332,1.248714 4.527651,0 L 75.730353,68.698172 c 1.247319,-1.248713 1.247319,-3.290116 0,-4.538828 l -5.885036,-5.897872 z"
       id="path1-4" /></g></svg>
