<?xml version="1.0" encoding="UTF-8" standalone="no"?>
<svg version="1.1" width="26.458338mm" height="26.458334mm" viewBox="0 0 75.00016 75.000093" id="svg165" xml:space="preserve" xmlns="http://www.w3.org/2000/svg" xmlns:svg="http://www.w3.org/2000/svg"><defs id="defs165" /><g id="layer1" style="opacity:1" transform="translate(-393.75064,-866.25143)"><g id="g213-8-9-7" transform="translate(78.750137,78.75013)"><path d="m 315.0005,787.5013 v 75.00012 h 75.00013 V 787.5013 Z" style="display:inline;opacity:1;fill:#80000000;fill-opacity:0.225;stroke:none;stroke-width:0.753376;stroke-linecap:round;stroke-linejoin:round;stroke-dasharray:none;stroke-opacity:1" id="path154-5-7-8-5-7-8-0-6-9" /><path style="fill:none;stroke:currentColor;stroke-width:2.25;stroke-linecap:butt;stroke-linejoin:miter;stroke-dasharray:none;stroke-opacity:1" d="m 245.62539,802.50133 c 27.18639,-2e-5 36.28839,0 52.50009,0 3.10661,0 5.62501,2.5184 5.62501,5.62501 v 7.50001 a 1.8749994,1.8749994 45 0 0 1.875,1.875 h 3.75001 a 1.8750044,1.8750044 45 0 1 1.875,1.875 v 7.50002 c 0,1.03553 -0.83947,1.875 -1.875,1.875 -1.8736,-10e-6 -3.0343,-10e-6 -3.75001,-10e-6 -1.03553,0 -1.875,0.8643 -1.875,1.93046 v 7.44456 a 5.6250051,5.6250051 135 0 1 -5.62501,5.62501 H 245.6254 a 5.6250065,5.6250065 44.999993 0 1 -5.62501,-5.62501 l -1e-5,-30.00004 c 0,-3.10661 2.5184,-5.62501 5.62501,-5.62501 z" id="path211-0-8-5-9" transform="rotate(-90,315.00051,785.6263)" /><rect style="display:inline;opacity:1;vector-effect:non-scaling-stroke;fill:currentColor;fill-opacity:0.25;fill-rule:evenodd;stroke:none;stroke-width:1.85769;stroke-linecap:round;stroke-linejoin:round;stroke-dasharray:none;stroke-opacity:0.25;-inkscape-stroke:hairline" id="rect212-7-1-7" width="39.000061" height="6.9000144" x="333.00055" y="852.60138" /><rect style="display:inline;opacity:1;vector-effect:non-scaling-stroke;fill:currentColor;fill-opacity:0.25;fill-rule:evenodd;stroke:none;stroke-width:1.85769;stroke-linecap:round;stroke-linejoin:round;stroke-dasharray:none;stroke-opacity:0.25;-inkscape-stroke:hairline" id="rect212-5-7-0-6" width="39.000061" height="6.9000144" x="333.00055" y="845.70135" /></g></g><style type="text/css" id="style1">.st0{fill:none;stroke:#000000;stroke-width:2;stroke-miterlimit:10;}.st1{fill:none;stroke:#000000;stroke-width:2;stroke-linecap:round;stroke-miterlimit:10;}.st2{fill:none;stroke:#000000;stroke-width:2;stroke-linecap:round;stroke-linejoin:round;stroke-miterlimit:10;}.st3{fill:none;stroke:#000000;stroke-linecap:round;stroke-miterlimit:10;}.st4{fill:none;stroke:#000000;stroke-width:3;stroke-linecap:round;stroke-miterlimit:10;}.st5{fill:#FFFFFF;}.st6{stroke:#000000;stroke-width:2;stroke-miterlimit:10;}.st7{fill:none;stroke:#000000;stroke-width:2;stroke-linejoin:round;stroke-miterlimit:10;}.st8{fill:none;}.st9{fill:none;stroke:#000000;stroke-width:0;stroke-linecap:round;stroke-linejoin:round;}</style><style type="text/css" id="style1-5">.st0{fill:none;stroke:#000000;stroke-width:2;stroke-miterlimit:10;}.st1{fill:none;stroke:#000000;stroke-width:2;stroke-linecap:round;stroke-miterlimit:10;}.st2{fill:none;stroke:#000000;stroke-width:2;stroke-linecap:round;stroke-linejoin:round;stroke-miterlimit:10;}.st3{fill:none;stroke:#000000;stroke-linecap:round;stroke-miterlimit:10;}.st4{fill:none;stroke:#000000;stroke-width:3;stroke-linecap:round;stroke-miterlimit:10;}.st5{fill:#FFFFFF;}.st6{stroke:#000000;stroke-width:2;stroke-miterlimit:10;}.st7{fill:none;stroke:#000000;stroke-width:2;stroke-linejoin:round;stroke-miterlimit:10;}.st8{fill:none;}.st9{fill:none;stroke:#000000;stroke-width:0;stroke-linecap:round;stroke-linejoin:round;}</style></svg>
