<?xml version="1.0" encoding="UTF-8" standalone="no"?>
<svg version="1.1" width="26.458328mm" height="26.458332mm" viewBox="0 0 75.000134 75.000088" id="svg165" xml:space="preserve" xmlns="http://www.w3.org/2000/svg" xmlns:svg="http://www.w3.org/2000/svg"><defs id="defs165" /><g id="layer3" style="display:inline;opacity:0;fill:maroon;fill-opacity:0.225" transform="translate(-157.5003,-1417.7593)"><path d="m 157.5003,1417.7595 v 75.0001 h 75.0001 v -75.0001 z" style="display:inline;fill:maroon;fill-opacity:0.225;stroke:none;stroke-width:0.753376;stroke-linecap:round;stroke-linejoin:round;stroke-dasharray:none;stroke-opacity:1" id="path154-5-7-9-2-2-2-6" /></g><g id="layer1" transform="translate(-157.5003,-1417.7593)"><g id="g10" transform="translate(3.687129,-85.938865)"><g id="Layer1016-1-9-3-3-2" transform="matrix(1.5108281,0,0,1.4705331,-370.1325,1410.9731)" style="fill:currentColor;fill-opacity:0.2;stroke-width:1.50952;stroke-dasharray:none"><path d="m 380.7719,105.6817 2.8875,3.8513" style="fill:currentColor;fill-opacity:0.2;stroke:currentColor;stroke-width:1.50952;stroke-linecap:round;stroke-linejoin:round;stroke-dasharray:none" id="path162-1-27-2-4-7" /><path d="m 365.6744,109.5329 2.8875,-3.8513" style="fill:currentColor;fill-opacity:0.2;stroke:currentColor;stroke-width:1.50952;stroke-linecap:round;stroke-linejoin:round;stroke-dasharray:none" id="path163-5-9-2-1-6" /><path d="m 374.6666,111.6952 v -4.8135" style="fill:currentColor;fill-opacity:0.2;stroke:currentColor;stroke-width:1.50952;stroke-linecap:round;stroke-linejoin:round;stroke-dasharray:none" id="path164-2-5-1-1-1" /></g><path style="fill:none;fill-opacity:0.2;stroke:currentColor;stroke-width:2.25;stroke-linecap:round;stroke-linejoin:round;stroke-dasharray:none;stroke-opacity:1" d="m 166.98237,1557.1548 h 57.88481 v -5.4227 l -20.16094,-15.2569 h -17.51609 l -20.20778,15.2569 z" id="path25-7-6-3-2" /><path d="m 187.14293,1527.6998 v 8.7754 h 17.56368 v -8.7754 q 0,-1.0588 -1.08779,-1.0588 h -15.38809 q -1.0878,0 -1.0878,1.0588 z" style="fill:none;fill-opacity:0.2;stroke:currentColor;stroke-width:2.25;stroke-linecap:round;stroke-linejoin:round;stroke-dasharray:none" id="path155-9-6-1-1-3" /><path d="m 201.72515,1557.1548 c 0.24883,0.5724 0.38465,1.1917 0.38465,1.8382 0,2.9189 -2.7692,5.2848 -6.18503,5.2848 -3.41583,0 -6.18502,-2.3659 -6.18502,-5.2848 0,-0.6465 0.13582,-1.2658 0.3845,-1.8382 z" style="fill:currentColor;fill-opacity:0.25;stroke:currentColor;stroke-width:2.25;stroke-linecap:round;stroke-linejoin:round;stroke-dasharray:none" id="path161-2-1-4-2-2" /><path id="path71" style="fill:currentColor;stroke-width:0.895131" d="m 185.4522,1506.7567 c -0.86047,-0.039 -1.74674,0.015 -2.65524,0.1626 -3.97071,0.6444 -6.80745,2.9392 -9.65197,7.8097 -1.88202,3.2225 -3.33588,4.8767 -4.96562,5.6501 -1.27449,0.6048 -2.17857,1.0291 -2.8257,1.0909 v 2.532 l 1.39646,-0.3737 c 3.69621,-0.9886 6.57892,-3.5089 8.93341,-7.8083 2.25892,-4.1249 4.52212,-5.8236 8.27648,-6.2113 3.79929,-0.3924 7.12342,1.3864 9.12878,4.8843 1.16906,2.0391 1.50159,3.6884 1.51054,7.4832 0.01,4.416 -0.0862,5.0332 1.13204,5.0332 1.22059,0 1.56415,-0.6086 1.55073,-5.0332 -0.0177,-5.8274 -1.39831,-9.318 -4.90137,-12.3938 -2.00007,-1.756 -4.34711,-2.708 -6.92854,-2.8257 z" /><rect style="fill:none;stroke:currentColor;stroke-width:2.25;stroke-linecap:round;stroke-linejoin:round;stroke-dasharray:none;stroke-opacity:1" id="rect71" width="7.5943966" height="32.126022" x="157.75926" y="1506.673" ry="1.0579114" /></g></g><style type="text/css" id="style1">.st0{fill:none;stroke:currentColor;stroke-width:2;stroke-miterlimit:10;}.st1{fill:none;stroke:currentColor;stroke-width:2;stroke-linecap:round;stroke-miterlimit:10;}.st2{fill:none;stroke:currentColor;stroke-width:2;stroke-linecap:round;stroke-linejoin:round;stroke-miterlimit:10;}.st3{fill:none;stroke:currentColor;stroke-linecap:round;stroke-miterlimit:10;}.st4{fill:none;stroke:currentColor;stroke-width:3;stroke-linecap:round;stroke-miterlimit:10;}.st5{fill:#FFFFFF;}.st6{stroke:currentColor;stroke-width:2;stroke-miterlimit:10;}.st7{fill:none;stroke:currentColor;stroke-width:2;stroke-linejoin:round;stroke-miterlimit:10;}.st8{fill:none;}.st9{fill:none;stroke:currentColor;stroke-width:0;stroke-linecap:round;stroke-linejoin:round;}</style><style type="text/css" id="style1-5">.st0{fill:none;stroke:currentColor;stroke-width:2;stroke-miterlimit:10;}.st1{fill:none;stroke:currentColor;stroke-width:2;stroke-linecap:round;stroke-miterlimit:10;}.st2{fill:none;stroke:currentColor;stroke-width:2;stroke-linecap:round;stroke-linejoin:round;stroke-miterlimit:10;}.st3{fill:none;stroke:currentColor;stroke-linecap:round;stroke-miterlimit:10;}.st4{fill:none;stroke:currentColor;stroke-width:3;stroke-linecap:round;stroke-miterlimit:10;}.st5{fill:#FFFFFF;}.st6{stroke:currentColor;stroke-width:2;stroke-miterlimit:10;}.st7{fill:none;stroke:currentColor;stroke-width:2;stroke-linejoin:round;stroke-miterlimit:10;}.st8{fill:none;}.st9{fill:none;stroke:currentColor;stroke-width:0;stroke-linecap:round;stroke-linejoin:round;}</style></svg>
