<?xml version="1.0" encoding="UTF-8" standalone="no"?>
<svg version="1.1" width="1.0416667in" height="1.0416667in" viewBox="0 0 75.000155 75.000097" id="svg165" xml:space="preserve" xmlns="http://www.w3.org/2000/svg" xmlns:svg="http://www.w3.org/2000/svg"><defs id="defs165" /><g id="g70" style="display:inline;fill:none;stroke:none;stroke-width:0;stroke-dasharray:none" transform="translate(-157.50024,-157.50027)"><path d="m 157.50025,157.50026 v 75.00012 h 75.00013 v -75.00012 z" style="fill:none;fill-opacity:0;stroke:none;stroke-width:0;stroke-linecap:round;stroke-linejoin:round;stroke-dasharray:none;stroke-opacity:1" id="path18" /></g><g id="layer1" transform="translate(-157.50024,-157.50027)"><g id="g7-0-9" style="stroke-width:1.50539;stroke-dasharray:none" transform="matrix(0.7473144,0,0,0.7473144,-104.36544,152.27575)"><g id="g6-6-4" style="stroke-width:1.50539;stroke-dasharray:none"><path d="m 359.9088,33.5848 -3.8512,2.8875" style="fill:none;stroke:black;stroke-width:1.50539;stroke-linecap:round;stroke-linejoin:round;stroke-dasharray:none" id="path148-1-8" /><path d="m 356.0577,18.4873 3.8512,2.8875" style="fill:none;stroke:black;stroke-width:1.50539;stroke-linecap:round;stroke-linejoin:round;stroke-dasharray:none" id="path149-3-8" /><path d="m 353.8953,27.4795 h 4.8135" style="fill:none;stroke:black;stroke-width:1.50539;stroke-linecap:round;stroke-linejoin:round;stroke-dasharray:none" id="path151-8-2" /></g><g id="g5-9-4" style="stroke-width:1.50539;stroke-dasharray:none"><path d="m 389.4367,33.5848 3.8512,2.8875" style="fill:none;stroke:black;stroke-width:1.50539;stroke-linecap:round;stroke-linejoin:round;stroke-dasharray:none" id="path147-3-5" /><path d="m 393.2878,18.4873 -3.8512,2.8875" style="fill:none;stroke:black;stroke-width:1.50539;stroke-linecap:round;stroke-linejoin:round;stroke-dasharray:none" id="path150-4-5" /><path d="m 390.637,27.4795 h 4.8135" style="fill:none;stroke:black;stroke-width:1.50539;stroke-linecap:round;stroke-linejoin:round;stroke-dasharray:none" id="path152-4-1" /></g></g><path fill="none" stroke="black" stroke-width="2" stroke-linecap="round" stroke-miterlimit="10" d="m 171.23096,186.32952 v 2.51546 c 0,0.69175 0.56597,1.25773 1.25772,1.25773 h 6.28865 c 0.69175,0 1.25773,-0.56598 1.25773,-1.25773 v -2.51546 z" id="path1-3-2-1" style="fill:none;fill-opacity:0.3;stroke-width:1.125;stroke-dasharray:none" /><path fill="none" stroke="black" stroke-width="2" stroke-linejoin="round" stroke-miterlimit="10" d="m 180.03506,186.32952 c 0,-0.62887 0,-2.52867 0,-3.77319 0,-3.38644 4.40206,-3.50152 4.40206,-9.43298 0,-4.86301 -3.94173,-8.80411 -8.80411,-8.80411 -4.86238,0 -8.80411,3.9411 -8.80411,8.80411 0,6.05786 4.40206,6.72383 4.40206,9.43298 0,0.82067 0,3.77319 0,3.77319" id="path2-2-7-1" style="fill:black;fill-opacity:0.25;stroke-width:1.125;stroke-dasharray:none" /><path fill="none" stroke="black" stroke-width="2" stroke-linecap="round" stroke-miterlimit="10" d="m 177.51961,190.10271 c 0,1.0414 -0.8452,1.88659 -1.8866,1.88659 -1.0414,0 -1.8866,-0.84519 -1.8866,-1.88659" id="path3-2-9-5" style="fill:none;fill-opacity:0.3;stroke-width:1.125;stroke-dasharray:none" /><line fill="none" stroke="black" stroke-width="2" stroke-miterlimit="10" x1="175.63301" y1="176.26767" x2="175.63301" y2="184.44292" id="line3-5-2" style="fill:none;fill-opacity:0.3;stroke-width:1.125;stroke-dasharray:none" /><polyline fill="none" stroke="black" stroke-width="2" stroke-linecap="round" stroke-miterlimit="10" points="21,19 25,23 29,19 " id="polyline3-4-7" style="fill:none;fill-opacity:0.3;stroke-width:1.78894;stroke-dasharray:none" transform="matrix(0.62886495,0,0,0.62886495,159.91139,161.80378)" /><g id="g7-0-9-4" style="stroke-width:1.50539;stroke-dasharray:none" transform="matrix(0.7473144,0,0,0.7473144,-65.630833,152.27575)"><g id="g6-6-4-2" style="stroke-width:1.50539;stroke-dasharray:none"><path d="m 359.9088,33.5848 -3.8512,2.8875" style="fill:none;stroke:black;stroke-width:1.50539;stroke-linecap:round;stroke-linejoin:round;stroke-dasharray:none" id="path148-1-8-3" /><path d="m 356.0577,18.4873 3.8512,2.8875" style="fill:none;stroke:black;stroke-width:1.50539;stroke-linecap:round;stroke-linejoin:round;stroke-dasharray:none" id="path149-3-8-2" /><path d="m 353.8953,27.4795 h 4.8135" style="fill:none;stroke:black;stroke-width:1.50539;stroke-linecap:round;stroke-linejoin:round;stroke-dasharray:none" id="path151-8-2-2" /></g><g id="g5-9-4-1" style="stroke-width:1.50539;stroke-dasharray:none"><path d="m 389.4367,33.5848 3.8512,2.8875" style="fill:none;stroke:black;stroke-width:1.50539;stroke-linecap:round;stroke-linejoin:round;stroke-dasharray:none" id="path147-3-5-6" /><path d="m 393.2878,18.4873 -3.8512,2.8875" style="fill:none;stroke:black;stroke-width:1.50539;stroke-linecap:round;stroke-linejoin:round;stroke-dasharray:none" id="path150-4-5-8" /><path d="m 390.637,27.4795 h 4.8135" style="fill:none;stroke:black;stroke-width:1.50539;stroke-linecap:round;stroke-linejoin:round;stroke-dasharray:none" id="path152-4-1-5" /></g></g><path fill="none" stroke="black" stroke-width="2" stroke-linecap="round" stroke-miterlimit="10" d="m 209.96556,186.32952 v 2.51546 c 0,0.69175 0.56598,1.25773 1.25773,1.25773 h 6.28865 c 0.69175,0 1.25773,-0.56598 1.25773,-1.25773 v -2.51546 z" id="path1-3-2-1-6" style="fill:none;fill-opacity:1;stroke-width:1.125;stroke-dasharray:none" /><path fill="none" stroke="black" stroke-width="2" stroke-linejoin="round" stroke-miterlimit="10" d="m 218.76967,186.32952 c 0,-0.62887 0,-2.52867 0,-3.77319 0,-3.38644 4.40205,-3.50152 4.40205,-9.43298 0,-4.86301 -3.94172,-8.80411 -8.8041,-8.80411 -4.86238,0 -8.80411,3.9411 -8.80411,8.80411 0,6.05786 4.40205,6.72383 4.40205,9.43298 0,0.82067 0,3.77319 0,3.77319" id="path2-2-7-1-1" style="fill:black;fill-opacity:0.25;stroke-width:1.125;stroke-dasharray:none" /><path fill="none" stroke="black" stroke-width="2" stroke-linecap="round" stroke-miterlimit="10" d="m 216.25421,190.10271 c 0,1.0414 -0.84519,1.88659 -1.88659,1.88659 -1.0414,0 -1.8866,-0.84519 -1.8866,-1.88659" id="path3-2-9-5-8" style="fill:none;fill-opacity:1;stroke-width:1.125;stroke-dasharray:none" /><line fill="none" stroke="black" stroke-width="2" stroke-miterlimit="10" x1="214.36761" y1="176.26767" x2="214.36761" y2="184.44292" id="line3-5-2-9" style="fill:none;fill-opacity:1;stroke-width:1.125;stroke-dasharray:none" /><polyline fill="none" stroke="black" stroke-width="2" stroke-linecap="round" stroke-miterlimit="10" points="21,19 25,23 29,19 " id="polyline3-4-7-2" style="fill:none;fill-opacity:1;stroke-width:1.78894;stroke-dasharray:none" transform="matrix(0.62886495,0,0,0.62886495,198.64599,161.80378)" /><g id="g7-0-9-3" style="stroke-width:1.50539;stroke-dasharray:none" transform="matrix(0.7473144,0,0,0.7473144,-104.36544,185.96784)"><g id="g6-6-4-1" style="stroke-width:1.50539;stroke-dasharray:none"><path d="m 359.9088,33.5848 -3.8512,2.8875" style="fill:none;stroke:black;stroke-width:1.50539;stroke-linecap:round;stroke-linejoin:round;stroke-dasharray:none" id="path148-1-8-2" /><path d="m 356.0577,18.4873 3.8512,2.8875" style="fill:none;stroke:black;stroke-width:1.50539;stroke-linecap:round;stroke-linejoin:round;stroke-dasharray:none" id="path149-3-8-3" /><path d="m 353.8953,27.4795 h 4.8135" style="fill:none;stroke:black;stroke-width:1.50539;stroke-linecap:round;stroke-linejoin:round;stroke-dasharray:none" id="path151-8-2-3" /></g><g id="g5-9-4-4" style="stroke-width:1.50539;stroke-dasharray:none"><path d="m 389.4367,33.5848 3.8512,2.8875" style="fill:none;stroke:black;stroke-width:1.50539;stroke-linecap:round;stroke-linejoin:round;stroke-dasharray:none" id="path147-3-5-1" /><path d="m 393.2878,18.4873 -3.8512,2.8875" style="fill:none;stroke:black;stroke-width:1.50539;stroke-linecap:round;stroke-linejoin:round;stroke-dasharray:none" id="path150-4-5-1" /><path d="m 390.637,27.4795 h 4.8135" style="fill:none;stroke:black;stroke-width:1.50539;stroke-linecap:round;stroke-linejoin:round;stroke-dasharray:none" id="path152-4-1-3" /></g></g><path fill="none" stroke="black" stroke-width="2" stroke-linecap="round" stroke-miterlimit="10" d="m 171.23095,220.02162 v 2.51546 c 0,0.69175 0.56598,1.25773 1.25773,1.25773 h 6.28865 c 0.69175,0 1.25773,-0.56598 1.25773,-1.25773 v -2.51546 z" id="path1-3-2-1-7" style="fill:none;fill-opacity:0.3;stroke-width:1.125;stroke-dasharray:none" /><path fill="none" stroke="black" stroke-width="2" stroke-linejoin="round" stroke-miterlimit="10" d="m 180.03506,220.02162 c 0,-0.62887 0,-2.52867 0,-3.77319 0,-3.38644 4.40206,-3.50152 4.40206,-9.43298 0,-4.86301 -3.94173,-8.80411 -8.80411,-8.80411 -4.86238,0 -8.80411,3.9411 -8.80411,8.80411 0,6.05786 4.40205,6.72383 4.40205,9.43298 0,0.82067 0,3.77319 0,3.77319" id="path2-2-7-1-4" style="fill:black;fill-opacity:0.25;stroke-width:1.125;stroke-dasharray:none" /><path fill="none" stroke="black" stroke-width="2" stroke-linecap="round" stroke-miterlimit="10" d="m 177.5196,223.79481 c 0,1.0414 -0.84519,1.88659 -1.88659,1.88659 -1.0414,0 -1.8866,-0.84519 -1.8866,-1.88659" id="path3-2-9-5-2" style="fill:none;fill-opacity:0.3;stroke-width:1.125;stroke-dasharray:none" /><line fill="none" stroke="black" stroke-width="2" stroke-miterlimit="10" x1="175.63301" y1="209.95978" x2="175.63301" y2="218.13503" id="line3-5-2-7" style="fill:none;fill-opacity:0.3;stroke-width:1.125;stroke-dasharray:none" /><polyline fill="none" stroke="black" stroke-width="2" stroke-linecap="round" stroke-miterlimit="10" points="21,19 25,23 29,19 " id="polyline3-4-7-7" style="fill:none;fill-opacity:0.3;stroke-width:1.78894;stroke-dasharray:none" transform="matrix(0.62886495,0,0,0.62886495,159.91138,195.49588)" /><g id="g7-0-9-4-3" style="stroke-width:1.50539;stroke-dasharray:none" transform="matrix(0.7473144,0,0,0.7473144,-65.630833,185.96784)"><g id="g6-6-4-2-1" style="stroke-width:1.50539;stroke-dasharray:none"><path d="m 359.9088,33.5848 -3.8512,2.8875" style="fill:none;stroke:black;stroke-width:1.50539;stroke-linecap:round;stroke-linejoin:round;stroke-dasharray:none" id="path148-1-8-3-9" /><path d="m 356.0577,18.4873 3.8512,2.8875" style="fill:none;stroke:black;stroke-width:1.50539;stroke-linecap:round;stroke-linejoin:round;stroke-dasharray:none" id="path149-3-8-2-8" /><path d="m 353.8953,27.4795 h 4.8135" style="fill:none;stroke:black;stroke-width:1.50539;stroke-linecap:round;stroke-linejoin:round;stroke-dasharray:none" id="path151-8-2-2-6" /></g><g id="g5-9-4-1-5" style="stroke-width:1.50539;stroke-dasharray:none"><path d="m 389.4367,33.5848 3.8512,2.8875" style="fill:none;stroke:black;stroke-width:1.50539;stroke-linecap:round;stroke-linejoin:round;stroke-dasharray:none" id="path147-3-5-6-0" /><path d="m 393.2878,18.4873 -3.8512,2.8875" style="fill:none;stroke:black;stroke-width:1.50539;stroke-linecap:round;stroke-linejoin:round;stroke-dasharray:none" id="path150-4-5-8-2" /><path d="m 390.637,27.4795 h 4.8135" style="fill:none;stroke:black;stroke-width:1.50539;stroke-linecap:round;stroke-linejoin:round;stroke-dasharray:none" id="path152-4-1-5-8" /></g></g><path fill="none" stroke="black" stroke-width="2" stroke-linecap="round" stroke-miterlimit="10" d="m 209.96556,220.02162 v 2.51546 c 0,0.69175 0.56598,1.25773 1.25773,1.25773 h 6.28865 c 0.69175,0 1.25773,-0.56598 1.25773,-1.25773 v -2.51546 z" id="path1-3-2-1-6-0" style="fill:none;fill-opacity:0.3;stroke-width:1.125;stroke-dasharray:none" /><path fill="none" stroke="black" stroke-width="2" stroke-linejoin="round" stroke-miterlimit="10" d="m 218.76967,220.02162 c 0,-0.62887 0,-2.52867 0,-3.77319 0,-3.38644 4.40205,-3.50152 4.40205,-9.43298 0,-4.86301 -3.94172,-8.80411 -8.8041,-8.80411 -4.86238,0 -8.80411,3.9411 -8.80411,8.80411 0,6.05786 4.40205,6.72383 4.40205,9.43298 0,0.82067 0,3.77319 0,3.77319" id="path2-2-7-1-1-2" style="fill:black;fill-opacity:0.25;stroke-width:1.125;stroke-dasharray:none" /><path fill="none" stroke="black" stroke-width="2" stroke-linecap="round" stroke-miterlimit="10" d="m 216.25421,223.79481 c 0,1.0414 -0.84519,1.88659 -1.88659,1.88659 -1.0414,0 -1.8866,-0.84519 -1.8866,-1.88659" id="path3-2-9-5-8-4" style="fill:none;fill-opacity:0.3;stroke-width:1.125;stroke-dasharray:none" /><line fill="none" stroke="black" stroke-width="2" stroke-miterlimit="10" x1="214.36761" y1="209.95978" x2="214.36761" y2="218.13503" id="line3-5-2-9-8" style="fill:none;fill-opacity:0.3;stroke-width:1.125;stroke-dasharray:none" /><polyline fill="none" stroke="black" stroke-width="2" stroke-linecap="round" stroke-miterlimit="10" points="21,19 25,23 29,19 " id="polyline3-4-7-2-6" style="fill:none;fill-opacity:0.3;stroke-width:1.78894;stroke-dasharray:none" transform="matrix(0.62886495,0,0,0.62886495,198.64599,195.49588)" /></g></svg>
