<?xml version="1.0" encoding="UTF-8" standalone="no"?>
<svg version="1.1" width="1.0416667in" height="1.0416667in" viewBox="0 0 75.000155 75.000097" id="svg165" xml:space="preserve" xmlns="http://www.w3.org/2000/svg" xmlns:svg="http://www.w3.org/2000/svg"><defs id="defs165" /><g id="g70" style="display:inline;fill:none;stroke:none;stroke-width:0;stroke-dasharray:none" transform="translate(-157.50024,-236.25041)"><path d="m 157.50025,236.25039 v 75.00012 h 75.00013 v -75.00012 z" style="fill:none;fill-opacity:0;stroke:none;stroke-width:0;stroke-linecap:round;stroke-linejoin:round;stroke-dasharray:none;stroke-opacity:1" id="path16" /></g><g id="layer1" transform="translate(-157.50024,-236.25041)"><g id="Layer1016-1-9-3-3-2" transform="matrix(1.5108281,0,0,1.4705331,-366.4454,143.7823)" style="fill:black;fill-opacity:0.2;stroke-width:1.50952;stroke-dasharray:none"><path d="m 380.7719,105.6817 2.8875,3.8513" style="fill:black;fill-opacity:0.2;stroke:black;stroke-width:1.50952;stroke-linecap:round;stroke-linejoin:round;stroke-dasharray:none" id="path162-1-27-2-4-7" /><path d="m 365.6744,109.5329 2.8875,-3.8513" style="fill:black;fill-opacity:0.2;stroke:black;stroke-width:1.50952;stroke-linecap:round;stroke-linejoin:round;stroke-dasharray:none" id="path163-5-9-2-1-6" /><path d="m 374.6666,111.6952 v -4.8135" style="fill:black;fill-opacity:0.2;stroke:black;stroke-width:1.50952;stroke-linecap:round;stroke-linejoin:round;stroke-dasharray:none" id="path164-2-5-1-1-1" /></g><path style="fill:none;fill-opacity:0.2;stroke:black;stroke-width:2.25;stroke-linecap:round;stroke-linejoin:round;stroke-dasharray:none;stroke-opacity:1" d="m 170.66947,289.96404 h 57.88481 v -5.42273 l -20.16094,-15.25693 h -17.51609 l -20.20778,15.25693 z" id="path25-7-6-3-2" /><path d="m 190.83003,260.50897 v 8.77541 h 17.56368 v -8.77541 q 0,-1.05879 -1.08779,-1.05879 h -15.38809 q -1.0878,0 -1.0878,1.05879 z" style="fill:none;fill-opacity:0.2;stroke:black;stroke-width:2.25;stroke-linecap:round;stroke-linejoin:round;stroke-dasharray:none" id="path155-9-6-1-1-3" /><path d="m 205.41225,289.96404 c 0.24883,0.57234 0.38465,1.19171 0.38465,1.83816 0,2.91887 -2.7692,5.28481 -6.18503,5.28481 -3.41583,0 -6.18502,-2.36594 -6.18502,-5.28481 0,-0.64645 0.13582,-1.26582 0.3845,-1.83816 z" style="fill:black;fill-opacity:0.25;stroke:black;stroke-width:2.25;stroke-linecap:round;stroke-linejoin:round;stroke-dasharray:none" id="path161-2-1-4-2-2" /><path id="path71" style="fill:black;stroke-width:0.895131" d="m 189.1393,239.56594 c -0.86047,-0.0392 -1.74674,0.0152 -2.65524,0.16259 -3.97071,0.64436 -6.80745,2.93918 -9.65197,7.80969 -1.88202,3.22246 -3.33588,4.87672 -4.96562,5.65009 -1.27449,0.60478 -2.17857,1.02905 -2.8257,1.09094 v 2.53198 l 1.39646,-0.3737 c 3.69621,-0.98858 6.57892,-3.50893 8.93341,-7.80837 2.25892,-4.1249 4.52212,-5.82354 8.27648,-6.2113 3.79929,-0.39239 7.12342,1.38647 9.12878,4.88433 1.16906,2.03916 1.50159,3.68846 1.51054,7.48319 0.01,4.41604 -0.0862,5.03319 1.13204,5.03319 1.22059,0 1.56415,-0.60855 1.55073,-5.03319 -0.0177,-5.82736 -1.39831,-9.31801 -4.90137,-12.39374 -2.00007,-1.75608 -4.34711,-2.70804 -6.92854,-2.8257 z" /><rect style="fill:none;stroke:black;stroke-width:2.25;stroke-linecap:round;stroke-linejoin:round;stroke-dasharray:none;stroke-opacity:1" id="rect71" width="7.5943966" height="32.126022" x="161.44635" y="239.48221" ry="1.0579114" /></g></svg>
