<?xml version="1.0" encoding="UTF-8" standalone="no"?>
<svg version="1.1" width="1.0416667in" height="1.0416667in" viewBox="0 0 75.000155 75.000097" id="svg165" xml:space="preserve" xmlns="http://www.w3.org/2000/svg" xmlns:svg="http://www.w3.org/2000/svg"><defs id="defs165" /><g id="g70" style="display:inline;fill:none;stroke:none;stroke-width:0;stroke-dasharray:none" transform="translate(-157.50024)"><path d="m 157.50025,0 v 75.000125 h 75.00013 V 0 Z" style="fill:none;fill-opacity:0;stroke:none;stroke-width:0;stroke-linecap:round;stroke-linejoin:round;stroke-dasharray:none;stroke-opacity:1" id="path6" /></g><g id="layer1" transform="translate(-157.50024)"><g id="Layer1016-1-9-3-3" transform="matrix(1.6412499,0,0,1.5974765,-419.9217,-107.94284)" style="fill:currentColor;fill-opacity:0.2;stroke-width:1.38956;stroke-dasharray:none"><path d="m 380.7719,105.6817 2.8875,3.8513" style="fill:currentColor;fill-opacity:0.2;stroke:currentColor;stroke-width:1.38956;stroke-linecap:round;stroke-linejoin:round;stroke-dasharray:none" id="path162-1-27-2-4" /><path d="m 365.6744,109.5329 2.8875,-3.8513" style="fill:currentColor;fill-opacity:0.2;stroke:currentColor;stroke-width:1.38956;stroke-linecap:round;stroke-linejoin:round;stroke-dasharray:none" id="path163-5-9-2-1" /><path d="m 374.6666,111.6952 v -4.8135" style="fill:currentColor;fill-opacity:0.2;stroke:currentColor;stroke-width:1.38956;stroke-linecap:round;stroke-linejoin:round;stroke-dasharray:none" id="path164-2-5-1-1" /></g><path style="fill:none;fill-opacity:0.2;stroke:currentColor;stroke-width:2.25;stroke-linecap:round;stroke-linejoin:round;stroke-dasharray:none;stroke-opacity:1" d="m 163.55946,50.85802 h 62.8817 V 44.96717 L 204.53983,28.39319 h -19.02816 l -21.95221,16.57398 z" id="path25-7-6-3" /><path d="m 185.46038,18.86025 v 9.53294 h 19.07986 v -9.53294 q 0,-1.15019 -1.1817,-1.15019 h -16.71646 q -1.1817,0 -1.1817,1.15019 z" style="fill:none;fill-opacity:0.2;stroke:currentColor;stroke-width:2.25;stroke-linecap:round;stroke-linejoin:round;stroke-dasharray:none" id="path155-9-6-1-1" /><path d="m 201.3014,50.85802 c 0.27031,0.62174 0.41786,1.29458 0.41786,1.99683 0,3.17085 -3.00825,5.74103 -6.71895,5.74103 -3.7107,0 -6.71895,-2.57018 -6.71895,-5.74103 0,-0.70225 0.14755,-1.37509 0.4177,-1.99683 z" style="fill:currentColor;fill-opacity:0.25;stroke:currentColor;stroke-width:2.25;stroke-linecap:round;stroke-linejoin:round;stroke-dasharray:none" id="path161-2-1-4-2" /><path d="m 194.97405,5.625 0.0525,11.48186" style="fill:currentColor;fill-opacity:0.2;stroke:currentColor;stroke-width:2.25;stroke-linecap:round;stroke-linejoin:round;stroke-dasharray:none" id="path160-5-8-2-3" /></g></svg>
