<?xml version="1.0" encoding="UTF-8" standalone="no"?>
<svg version="1.1" width="26.458334mm" height="26.458326mm" viewBox="0 0 75.000149 75.000071" id="svg165" xml:space="preserve" xmlns="http://www.w3.org/2000/svg" xmlns:svg="http://www.w3.org/2000/svg"><defs id="defs165" /><g id="layer1" style="opacity:1" transform="translate(-78.75013,-1023.7518)"><g id="g162"><path d="m 78.75013,1023.7518 v 75.0001 h 75.00012 v -75.0001 z" style="display:inline;opacity:1;fill:#80000000;fill-opacity:0.225;stroke:none;stroke-width:0.753376;stroke-linecap:round;stroke-linejoin:round;stroke-dasharray:none;stroke-opacity:1" id="path154-5-7-2-61-3" /><g id="g80" transform="translate(0.4016656)" style="display:inline;opacity:1;stroke:currentColor;stroke-opacity:1"><path d="m 133.57019,1064.6865 a 14.3081,14.307056 0 0 1 14.3081,14.3071 14.3081,14.307056 0 1 1 -14.3081,-14.3071 z" style="display:inline;fill:currentColor;fill-opacity:0.25;stroke:currentColor;stroke-width:2.25;stroke-linecap:butt;stroke-linejoin:miter;stroke-dasharray:none;stroke-opacity:1" id="path23-99-3-2-65-1-53" /><g id="g2-2-7-8-3-1-4" transform="translate(78.118491,1020.3887)" style="display:inline;stroke:currentColor;stroke-width:2.25;stroke-dasharray:none;stroke-opacity:1"><path d="m 65.662896,29.440853 0.0015,19.144877" style="fill:none;stroke:currentColor;stroke-width:2.25;stroke-linecap:round;stroke-linejoin:round;stroke-dasharray:none;stroke-opacity:1" id="path21-5-4-9-9-9-3" /><path d="m 9.6522507,29.649495 0.071832,37.805703 34.4616133,-0.02906" style="fill:none;stroke:currentColor;stroke-width:2.25;stroke-linecap:round;stroke-linejoin:round;stroke-dasharray:none;stroke-opacity:1" id="path22-5-3-0-2-7-2" /><path d="M 5.7002658,32.692843 37.778885,7.9906272 69.746327,32.581369" style="fill:none;stroke:currentColor;stroke-width:2.25;stroke-linecap:round;stroke-linejoin:round;stroke-dasharray:none;stroke-opacity:1" id="path24-3-8-7-4-6-1" /></g><path style="display:inline;fill:currentColor;fill-opacity:1;fill-rule:nonzero;stroke:currentColor;stroke-width:0.0577214;stroke-opacity:1" d="m 126.65159,1083.288 1.9583,-2.6089 c 0.1309,-0.1746 0.1527,-0.4104 0.055,-0.6069 -0.098,-0.1943 -0.2966,-0.3187 -0.5168,-0.3187 h -0.7131 l 2.1546,-2.8709 c 0.133,-0.1746 0.1526,-0.4082 0.055,-0.6047 -0.098,-0.1965 -0.2966,-0.3187 -0.5147,-0.3187 h -0.519 l 2.2243,-2.9626 2.2222,2.9626 h -0.5168 c -0.2203,0 -0.4187,0.1222 -0.5169,0.3187 -0.098,0.1965 -0.076,0.4301 0.054,0.6047 l 2.1524,2.8709 h -0.7131 c -0.2181,0 -0.4187,0.1244 -0.5147,0.3187 -0.098,0.1965 -0.076,0.4323 0.055,0.6069 l 1.9582,2.6089 z m 8.0208,-2.3774 h 0.713 c 0.2181,0 0.4187,-0.1245 0.5169,-0.321 0.098,-0.1943 0.076,-0.43 -0.054,-0.6047 l -2.1546,-2.8708 h 0.5168 c 0.2203,0 0.4187,-0.1245 0.5169,-0.3188 0.098,-0.1965 0.076,-0.4323 -0.055,-0.6069 l -3.378,-4.5017 c -0.109,-0.1441 -0.2791,-0.2292 -0.4601,-0.2292 -0.1832,0 -0.3533,0.085 -0.4623,0.2292 l -3.378,4.5017 c -0.1308,0.1746 -0.1504,0.4104 -0.055,0.6069 0.098,0.1943 0.2966,0.3188 0.5169,0.3188 h 0.5168 l -2.1524,2.8708 c -0.1308,0.1747 -0.1548,0.4104 -0.057,0.6047 0.098,0.1965 0.2988,0.321 0.5168,0.321 h 0.7132 l -1.9583,2.6088 c -0.1309,0.1747 -0.1527,0.4083 -0.055,0.6048 0.098,0.1965 0.2965,0.3187 0.5168,0.3187 h 4.7583 v 4.1873 c 0,0.3187 0.2574,0.5785 0.5779,0.5785 0.3184,0 0.5757,-0.2598 0.5757,-0.5785 v -4.1873 h 4.7606 c 0.218,0 0.4187,-0.1222 0.5146,-0.3187 0.098,-0.1965 0.076,-0.4301 -0.054,-0.6048 z m 5.7004,1.5653 c 1.1165,-1.3667 1.8274,-3.5717 1.8274,-6.1063 0,-4.2463 -1.9954,-7.5712 -4.5424,-7.5712 -1.7381,0 -3.2929,1.5828 -4.0584,4.1305 -0.094,0.3057 0.079,0.6288 0.386,0.7205 0.3031,0.092 0.6259,-0.081 0.7175,-0.3865 0.604,-2.0106 1.7642,-3.3096 2.9549,-3.3096 1.8361,0 3.3888,2.9385 3.3888,6.4163 0,2.3753 -0.724,4.4973 -1.7686,5.6042 -0.01,0.01 -0.017,0.017 -0.024,0.028 -0.3162,0.3274 -0.6585,0.561 -1.0205,0.6833 v -2.4037 l 1.0685,-0.4257 c 0.1985,-0.079 0.2944,-0.3034 0.2159,-0.4999 -0.079,-0.1987 -0.3009,-0.2948 -0.4994,-0.2162 l -0.785,0.3122 v -1.2291 l 1.1274,-0.679 c 0.181,-0.1091 0.2399,-0.3471 0.1286,-0.5283 -0.109,-0.1834 -0.3445,-0.2401 -0.5277,-0.131 l -0.7283,0.4388 v -1.8425 c 0,-0.3188 -0.2596,-0.5764 -0.5758,-0.5764 -0.3205,0 -0.5779,0.2576 -0.5779,0.5764 v 1.1985 l -0.5342,-0.2314 c -0.1963,-0.085 -0.4209,0.01 -0.5038,0.2009 -0.085,0.1964 0.01,0.4213 0.1985,0.5064 l 0.8395,0.3624 v 1.334 l -0.3663,-0.1572 c -0.1963,-0.085 -0.4231,0.01 -0.506,0.203 -0.083,0.1943 0.01,0.4213 0.2029,0.5043 l 0.6694,0.2882 v 8.94 c 0,0.3188 0.2574,0.5786 0.5779,0.5786 0.3162,0 0.5758,-0.2598 0.5758,-0.5786 v -4.7505 c 0.447,-0.089 0.8722,-0.2838 1.2648,-0.5677 0.3489,-0.275 0.6019,-0.537 0.8744,-0.8361 z" id="path1-1-5" /></g></g></g><style type="text/css" id="style1">.st0{fill:none;stroke:#000000;stroke-width:2;stroke-miterlimit:10;}.st1{fill:none;stroke:#000000;stroke-width:2;stroke-linecap:round;stroke-miterlimit:10;}.st2{fill:none;stroke:#000000;stroke-width:2;stroke-linecap:round;stroke-linejoin:round;stroke-miterlimit:10;}.st3{fill:none;stroke:#000000;stroke-linecap:round;stroke-miterlimit:10;}.st4{fill:none;stroke:#000000;stroke-width:3;stroke-linecap:round;stroke-miterlimit:10;}.st5{fill:#FFFFFF;}.st6{stroke:#000000;stroke-width:2;stroke-miterlimit:10;}.st7{fill:none;stroke:#000000;stroke-width:2;stroke-linejoin:round;stroke-miterlimit:10;}.st8{fill:none;}.st9{fill:none;stroke:#000000;stroke-width:0;stroke-linecap:round;stroke-linejoin:round;}</style><style type="text/css" id="style1-5">.st0{fill:none;stroke:#000000;stroke-width:2;stroke-miterlimit:10;}.st1{fill:none;stroke:#000000;stroke-width:2;stroke-linecap:round;stroke-miterlimit:10;}.st2{fill:none;stroke:#000000;stroke-width:2;stroke-linecap:round;stroke-linejoin:round;stroke-miterlimit:10;}.st3{fill:none;stroke:#000000;stroke-linecap:round;stroke-miterlimit:10;}.st4{fill:none;stroke:#000000;stroke-width:3;stroke-linecap:round;stroke-miterlimit:10;}.st5{fill:#FFFFFF;}.st6{stroke:#000000;stroke-width:2;stroke-miterlimit:10;}.st7{fill:none;stroke:#000000;stroke-width:2;stroke-linejoin:round;stroke-miterlimit:10;}.st8{fill:none;}.st9{fill:none;stroke:#000000;stroke-width:0;stroke-linecap:round;stroke-linejoin:round;}</style></svg>
