<?xml version="1.0" encoding="UTF-8" standalone="no"?>
<svg version="1.1" width="1.0416667in" height="1.0416667in" viewBox="0 0 75.000155 75.000097" id="svg165" xmlns="http://www.w3.org/2000/svg" xmlns:svg="http://www.w3.org/2000/svg">
  <defs id="defs165" />
  <g id="g74" style="fill:none;stroke:none;stroke-opacity:1" transform="translate(-78.750132,-472.50082)">
    <path d="m 78.75013,472.50077 v 75.00012 h 75.00012 v -75.00012 z" style="display:inline;fill:none;fill-opacity:0;stroke:none;stroke-width:0.753376;stroke-linecap:round;stroke-linejoin:round;stroke-dasharray:none;stroke-opacity:1" id="path47" />
  </g>
  <g id="layer2" style="display:inline" transform="translate(-78.750132,-472.50082)">
    <g id="g1" transform="translate(-0.2299509,3.931357)">
      <path d="m 134.20178,509.87906 a 14.3081,14.307056 0 0 1 14.3081,14.30706 14.3081,14.307056 0 1 1 -14.3081,-14.30706 z" style="display:inline;fill:black;fill-opacity:0.25;stroke:black;stroke-width:2.25;stroke-linecap:butt;stroke-linejoin:miter;stroke-dasharray:none;stroke-opacity:1" id="path23-99-3-2-65-1-53" />
      <g id="g2-2-7-8-3-1-4" transform="translate(78.750136,465.58123)" style="display:inline;stroke:black;stroke-width:2.25;stroke-dasharray:none;stroke-opacity:1">
        <path d="m 65.662896,29.440853 0.0015,19.144877" style="fill:none;stroke:black;stroke-width:2.25;stroke-linecap:round;stroke-linejoin:round;stroke-dasharray:none;stroke-opacity:1" id="path21-5-4-9-9-9-3" />
        <path d="m 9.6522507,29.649495 0.071832,37.805703 34.4616133,-0.02906" style="fill:none;stroke:black;stroke-width:2.25;stroke-linecap:round;stroke-linejoin:round;stroke-dasharray:none;stroke-opacity:1" id="path22-5-3-0-2-7-2" />
        <path d="M 5.7002658,32.692843 37.778885,7.9906272 69.746327,32.581369" style="fill:none;stroke:black;stroke-width:2.25;stroke-linecap:round;stroke-linejoin:round;stroke-dasharray:none;stroke-opacity:1" id="path24-3-8-7-4-6-1" />
      </g>
      <path style="fill:black;fill-opacity:1;fill-rule:nonzero;stroke:none;stroke-width:0.0602127" d="m 126.98637,528.66414 2.04281,-2.72147 c 0.13649,-0.1822 0.15924,-0.42815 0.0569,-0.63311 -0.10237,-0.20269 -0.30938,-0.33251 -0.53914,-0.33251 h -0.74387 l 2.24754,-2.99475 c 0.13877,-0.18218 0.15924,-0.42587 0.0569,-0.63083 -0.10237,-0.20497 -0.30938,-0.3325 -0.53686,-0.3325 h -0.54141 l 2.32034,-3.09041 2.31806,3.09041 h -0.53914 c -0.22975,0 -0.43676,0.12753 -0.53913,0.3325 -0.10237,0.20496 -0.0796,0.44865 0.0569,0.63083 l 2.24527,2.99475 h -0.74388 c -0.22748,0 -0.43676,0.12982 -0.53686,0.33251 -0.10237,0.20496 -0.0796,0.45091 0.0569,0.63311 l 2.04281,2.72147 z m 8.36688,-2.48006 h 0.74387 c 0.22748,0 0.43677,-0.12982 0.53914,-0.33478 0.10237,-0.20269 0.0796,-0.44864 -0.0569,-0.63084 l -2.24755,-2.99475 h 0.53914 c 0.22976,0 0.43677,-0.12982 0.53914,-0.3325 0.10237,-0.20496 0.0796,-0.45092 -0.0569,-0.63312 l -3.52374,-4.69597 c -0.11374,-0.1503 -0.29118,-0.23912 -0.47999,-0.23912 -0.19108,0 -0.36852,0.0889 -0.48227,0.23912 l -3.52373,4.69597 c -0.13649,0.1822 -0.15696,0.42816 -0.0569,0.63312 0.10237,0.20268 0.30938,0.3325 0.53914,0.3325 h 0.53914 l -2.24527,2.99475 c -0.1365,0.1822 -0.16152,0.42815 -0.0591,0.63084 0.10237,0.20496 0.31165,0.33478 0.53913,0.33478 h 0.74388 l -2.04281,2.72147 c -0.13649,0.18219 -0.15924,0.42586 -0.0569,0.63084 0.10237,0.20496 0.30938,0.33248 0.53914,0.33248 h 4.96371 v 4.36803 c 0,0.33249 0.26843,0.6035 0.60283,0.6035 0.33213,0 0.60056,-0.27101 0.60056,-0.6035 v -4.36803 h 4.96599 c 0.22748,0 0.43677,-0.12752 0.53686,-0.33248 0.10237,-0.20498 0.0796,-0.44865 -0.0569,-0.63084 z m 5.94644,1.63288 c 1.16472,-1.42565 1.90632,-3.7258 1.90632,-6.36985 0,-4.42951 -2.08148,-7.89796 -4.7385,-7.89796 -1.81305,0 -3.43502,1.65111 -4.23349,4.30881 -0.0978,0.31883 0.0819,0.65588 0.40265,0.75154 0.3162,0.0957 0.65288,-0.0843 0.74842,-0.40311 0.63014,-2.09746 1.84035,-3.4525 3.08242,-3.4525 1.91542,0 3.53511,3.06535 3.53511,6.69322 0,2.4778 -0.75525,4.69141 -1.8449,5.84605 -0.009,0.01 -0.0182,0.0183 -0.025,0.0296 -0.32985,0.34161 -0.687,0.58529 -1.06463,0.71282 v -2.5074 l 1.11467,-0.44409 c 0.20702,-0.082 0.30711,-0.31655 0.22521,-0.52153 -0.0819,-0.20723 -0.31392,-0.30743 -0.52094,-0.22545 l -0.81894,0.32567 v -1.28217 l 1.1761,-0.70827 c 0.18881,-0.11387 0.25023,-0.3621 0.13421,-0.55112 -0.11374,-0.19131 -0.35942,-0.25051 -0.55051,-0.13664 l -0.7598,0.45775 v -1.92212 c 0,-0.3325 -0.27071,-0.60122 -0.60056,-0.60122 -0.3344,0 -0.60283,0.26872 -0.60283,0.60122 v 1.25028 l -0.55734,-0.24139 c -0.20473,-0.0889 -0.43904,0.006 -0.52549,0.20952 -0.0887,0.20496 0.005,0.43953 0.20701,0.52835 l 0.87582,0.37805 v 1.39148 l -0.38218,-0.16398 c -0.20473,-0.0888 -0.44132,0.006 -0.52776,0.2118 -0.0864,0.20269 0.007,0.43953 0.21156,0.52608 l 0.69838,0.30061 v 9.32589 c 0,0.3325 0.26843,0.6035 0.60283,0.6035 0.32985,0 0.60056,-0.271 0.60056,-0.6035 v -4.95558 c 0.46634,-0.0933 0.90994,-0.29607 1.31941,-0.59213 0.36398,-0.28695 0.62786,-0.56023 0.91221,-0.87224 z" id="path1-1-5" />
    </g>
  </g>
</svg>
