<?xml version="1.0" encoding="UTF-8" standalone="no"?>
<svg version="1.1" width="26.458334mm" height="26.458334mm" viewBox="0 0 75.000149 75.000093" id="svg165" xml:space="preserve" xmlns="http://www.w3.org/2000/svg" xmlns:svg="http://www.w3.org/2000/svg"><defs id="defs165" /><g id="layer1" style="opacity:1" transform="translate(-78.75013,-866.25142)"><g id="g166"><path d="m 78.75013,866.25142 v 75.00012 h 75.00012 v -75.00012 z" style="display:inline;opacity:1;fill:#80000000;fill-opacity:0.225;stroke:none;stroke-width:0.753376;stroke-linecap:round;stroke-linejoin:round;stroke-dasharray:none;stroke-opacity:1" id="path154-5-7-2-6-1" /><g id="g78" transform="translate(0.4016656)" style="display:inline;opacity:1;stroke:currentColor;stroke-opacity:1"><path d="m 133.57019,907.00494 a 14.3081,14.307056 0 0 1 14.3081,14.30706 14.3081,14.307056 0 1 1 -14.3081,-14.30706 z" style="display:inline;fill:currentColor;fill-opacity:0.25;stroke:currentColor;stroke-width:2.25;stroke-linecap:butt;stroke-linejoin:miter;stroke-dasharray:none;stroke-opacity:1" id="path23-99-3-2-6-8" /><g id="g2-2-7-8-1-7" transform="translate(78.118491,862.70711)" style="display:inline;stroke:currentColor;stroke-width:2.25;stroke-dasharray:none;stroke-opacity:1"><path d="m 65.662896,29.440853 0.0015,19.144877" style="fill:none;stroke:currentColor;stroke-width:2.25;stroke-linecap:round;stroke-linejoin:round;stroke-dasharray:none;stroke-opacity:1" id="path21-5-4-9-2-3" /><path d="m 9.6522507,29.649495 0.071832,37.805703 34.4616133,-0.02906" style="fill:none;stroke:currentColor;stroke-width:2.25;stroke-linecap:round;stroke-linejoin:round;stroke-dasharray:none;stroke-opacity:1" id="path22-5-3-0-4-0" /><path d="M 5.7002658,32.692843 37.778885,7.9906272 69.746327,32.581369" style="fill:none;stroke:currentColor;stroke-width:2.25;stroke-linecap:round;stroke-linejoin:round;stroke-dasharray:none;stroke-opacity:1" id="path24-3-8-7-2-3" /></g><path style="font-size:15.6926px;line-height:1.25;font-family:'Arial Rounded MT Bold';-inkscape-font-specification:'Arial Rounded MT Bold, ';display:inline;fill:currentColor;fill-opacity:1;stroke:none;stroke-width:0.32303;stroke-opacity:1" d="m 125.70839,916.69737 h 2.4417 q 0.9527,0 1.6341,0.17666 0.6813,0.17666 1.2365,0.66246 1.4448,1.2366 1.4448,3.76027 0,0.83281 -0.1451,1.52051 -0.1451,0.6877 -0.4479,1.24291 -0.3029,0.5489 -0.776,0.98422 -0.3723,0.33439 -0.8139,0.53629 -0.4417,0.20189 -0.9527,0.2839 -0.5048,0.082 -1.142,0.082 h -2.4416 q -0.5111,0 -0.7697,-0.15142 -0.2587,-0.15773 -0.3407,-0.43533 -0.076,-0.28392 -0.076,-0.73187 v -6.78236 q 0,-0.60568 0.2712,-0.87697 0.2713,-0.2713 0.877,-0.2713 z m 0.7256,1.48266 v 6.27762 h 1.4195 q 0.4669,0 0.7319,-0.0253 0.265,-0.0252 0.5489,-0.12619 0.2839,-0.10095 0.4921,-0.28391 0.9401,-0.79496 0.9401,-2.73818 0,-1.36909 -0.4164,-2.05048 -0.4101,-0.68139 -1.0158,-0.86436 -0.6057,-0.18927 -1.4637,-0.18927 z m 16.1262,4.00632 v 1.77288 q 0,0.35331 -0.069,0.56783 -0.069,0.20819 -0.2586,0.37854 -0.183,0.17035 -0.4732,0.32808 -0.8392,0.45426 -1.6152,0.66247 -0.776,0.2082 -1.6908,0.2082 -1.0663,0 -1.9433,-0.32808 -0.8769,-0.32807 -1.4953,-0.95268 -0.6182,-0.62461 -0.9526,-1.51421 -0.3281,-0.88959 -0.3281,-1.98739 0,-1.07887 0.3218,-1.97477 0.3217,-0.8959 0.9463,-1.52051 0.6246,-0.6246 1.5205,-0.95268 0.8959,-0.33439 2.0316,-0.33439 0.9338,0 1.653,0.25237 0.7193,0.24605 1.1672,0.62461 0.448,0.37855 0.6751,0.80126 0.2271,0.42271 0.2271,0.7508 0,0.3533 -0.265,0.60568 -0.2586,0.24605 -0.6246,0.24605 -0.2019,0 -0.3912,-0.0946 -0.1829,-0.0946 -0.3091,-0.26499 -0.347,-0.54259 -0.5868,-0.8202 -0.2397,-0.27759 -0.6498,-0.46687 -0.4038,-0.18928 -1.0347,-0.18928 -0.6499,0 -1.1609,0.22713 -0.511,0.22082 -0.877,0.64985 -0.3596,0.42271 -0.5552,1.04101 -0.1892,0.6183 -0.1892,1.3691 0,1.62776 0.7444,2.50473 0.7508,0.87697 2.0884,0.87697 0.6498,0 1.2176,-0.17034 0.5742,-0.17035 1.1609,-0.48581 v -1.50158 h -1.4511 q -0.5236,0 -0.7949,-0.15773 -0.265,-0.15773 -0.265,-0.53628 0,-0.30915 0.2208,-0.51104 0.2271,-0.20189 0.612,-0.20189 h 2.1262 q 0.3912,0 0.6624,0.0694 0.2713,0.0694 0.4354,0.30915 0.1703,0.23975 0.1703,0.71924 z" id="text3-8-8-5-8" aria-label="DG" /></g></g></g><style type="text/css" id="style1">.st0{fill:none;stroke:#000000;stroke-width:2;stroke-miterlimit:10;}.st1{fill:none;stroke:#000000;stroke-width:2;stroke-linecap:round;stroke-miterlimit:10;}.st2{fill:none;stroke:#000000;stroke-width:2;stroke-linecap:round;stroke-linejoin:round;stroke-miterlimit:10;}.st3{fill:none;stroke:#000000;stroke-linecap:round;stroke-miterlimit:10;}.st4{fill:none;stroke:#000000;stroke-width:3;stroke-linecap:round;stroke-miterlimit:10;}.st5{fill:#FFFFFF;}.st6{stroke:#000000;stroke-width:2;stroke-miterlimit:10;}.st7{fill:none;stroke:#000000;stroke-width:2;stroke-linejoin:round;stroke-miterlimit:10;}.st8{fill:none;}.st9{fill:none;stroke:#000000;stroke-width:0;stroke-linecap:round;stroke-linejoin:round;}</style><style type="text/css" id="style1-5">.st0{fill:none;stroke:#000000;stroke-width:2;stroke-miterlimit:10;}.st1{fill:none;stroke:#000000;stroke-width:2;stroke-linecap:round;stroke-miterlimit:10;}.st2{fill:none;stroke:#000000;stroke-width:2;stroke-linecap:round;stroke-linejoin:round;stroke-miterlimit:10;}.st3{fill:none;stroke:#000000;stroke-linecap:round;stroke-miterlimit:10;}.st4{fill:none;stroke:#000000;stroke-width:3;stroke-linecap:round;stroke-miterlimit:10;}.st5{fill:#FFFFFF;}.st6{stroke:#000000;stroke-width:2;stroke-miterlimit:10;}.st7{fill:none;stroke:#000000;stroke-width:2;stroke-linejoin:round;stroke-miterlimit:10;}.st8{fill:none;}.st9{fill:none;stroke:#000000;stroke-width:0;stroke-linecap:round;stroke-linejoin:round;}</style></svg>
