<?xml version="1.0" encoding="UTF-8" standalone="no"?>
<svg version="1.1" width="26.458336mm" height="26.458334mm" viewBox="0 0 75.000155 75.000093" id="svg165" xml:space="preserve" xmlns="http://www.w3.org/2000/svg" xmlns:svg="http://www.w3.org/2000/svg"><defs id="defs165" /><g id="layer1" style="opacity:1" transform="translate(-78.750128,-708.75116)"><g id="g170"><path d="m 78.750128,708.75116 v 75.00012 h 75.000122 v -75.00012 z" style="display:inline;opacity:1;fill:#80000000;fill-opacity:0.225;stroke:none;stroke-width:0.753376;stroke-linecap:round;stroke-linejoin:round;stroke-dasharray:none;stroke-opacity:1" id="path154-5-7-8-14-8" /><g id="g76" transform="translate(0.4016656)" style="display:inline;opacity:1;stroke:currentColor;stroke-opacity:1"><path d="m 133.57019,749.50468 a 14.3081,14.307056 0 0 1 14.3081,14.30706 14.3081,14.307056 0 1 1 -14.3081,-14.30706 z" style="display:inline;fill:currentColor;fill-opacity:0.25;stroke:currentColor;stroke-width:2.25;stroke-linecap:butt;stroke-linejoin:miter;stroke-dasharray:none;stroke-opacity:1" id="path23-99-3-1" /><g id="g2-2-7-2" transform="translate(78.118491,705.20685)" style="display:inline;stroke:currentColor;stroke-width:2.25;stroke-dasharray:none;stroke-opacity:1"><path d="m 65.662896,29.440853 0.0015,19.144877" style="fill:none;stroke:currentColor;stroke-width:2.25;stroke-linecap:round;stroke-linejoin:round;stroke-dasharray:none;stroke-opacity:1" id="path21-5-4-5" /><path d="m 9.6522507,29.649495 0.071832,37.805703 34.4616133,-0.02906" style="fill:none;stroke:currentColor;stroke-width:2.25;stroke-linecap:round;stroke-linejoin:round;stroke-dasharray:none;stroke-opacity:1" id="path22-5-3-7" /><path d="M 5.7002658,32.692843 37.778885,7.9906272 69.746327,32.581369" style="fill:none;stroke:currentColor;stroke-width:2.25;stroke-linecap:round;stroke-linejoin:round;stroke-dasharray:none;stroke-opacity:1" id="path24-3-8-4" /></g><path style="font-size:15.6926px;line-height:1.25;font-family:'Arial Rounded MT Bold';-inkscape-font-specification:'Arial Rounded MT Bold, ';display:inline;fill:currentColor;fill-opacity:1;stroke:none;stroke-width:0.340704;stroke-opacity:1" d="m 130.98829,760.46795 h -4.4518 v 2.39556 h 4.0991 q 0.4525,0 0.6721,0.20629 0.2262,0.19963 0.2262,0.53235 0,0.33271 -0.2196,0.54565 -0.2196,0.20629 -0.6787,0.20629 h -4.0991 v 2.77486 h 4.6048 q 0.4658,0 0.6987,0.21959 0.2396,0.21295 0.2396,0.57228 0,0.34603 -0.2396,0.56562 -0.2329,0.21294 -0.6987,0.21294 h -5.37 q -0.6455,0 -0.9317,-0.28613 -0.2794,-0.28615 -0.2794,-0.92496 v -7.3331 q 0,-0.42588 0.1264,-0.69205 0.1264,-0.27283 0.3926,-0.3926 0.2728,-0.12644 0.6921,-0.12644 h 5.217 q 0.4724,0 0.6987,0.21294 0.2329,0.20628 0.2329,0.54565 0,0.34603 -0.2329,0.55897 -0.2263,0.20629 -0.6987,0.20629 z m 11.5719,4.26544 v 1.86987 q 0,0.37264 -0.073,0.59889 -0.073,0.2196 -0.2728,0.39927 -0.193,0.17966 -0.4991,0.34602 -0.885,0.47911 -1.7035,0.6987 -0.8185,0.2196 -1.7834,0.2196 -1.1246,0 -2.0495,-0.34602 -0.925,-0.34603 -1.5771,-1.00482 -0.6521,-0.65877 -1.0048,-1.59704 -0.3461,-0.93826 -0.3461,-2.09612 0,-1.13789 0.3394,-2.08281 0.3394,-0.94492 0.9982,-1.6037 0.6588,-0.65878 1.6037,-1.00481 0.9449,-0.35268 2.1427,-0.35268 0.9848,0 1.7434,0.26618 0.7586,0.25951 1.2311,0.65877 0.4724,0.39927 0.712,0.84511 0.2395,0.44584 0.2395,0.79186 0,0.37265 -0.2794,0.63883 -0.2729,0.25951 -0.6588,0.25951 -0.213,0 -0.4126,-0.0998 -0.193,-0.0998 -0.3261,-0.27949 -0.3659,-0.57226 -0.6188,-0.86506 -0.2529,-0.2928 -0.6854,-0.49242 -0.4259,-0.19963 -1.0913,-0.19963 -0.6854,0 -1.2244,0.23956 -0.539,0.2329 -0.925,0.68539 -0.3793,0.44584 -0.5856,1.09797 -0.1996,0.65213 -0.1996,1.44399 0,1.71683 0.7852,2.64179 0.7919,0.92495 2.2026,0.92495 0.6854,0 1.2843,-0.17967 0.6056,-0.17967 1.2244,-0.51238 v -1.58374 h -1.5305 q -0.5523,0 -0.8384,-0.16636 -0.2795,-0.16636 -0.2795,-0.56562 0,-0.32606 0.2329,-0.539 0.2395,-0.21294 0.6454,-0.21294 h 2.2426 q 0.4125,0 0.6987,0.0732 0.2861,0.0732 0.4591,0.32606 0.1797,0.25287 0.1797,0.7586 z" id="text3-8-4" aria-label="EG" /></g></g></g><style type="text/css" id="style1">.st0{fill:none;stroke:#000000;stroke-width:2;stroke-miterlimit:10;}.st1{fill:none;stroke:#000000;stroke-width:2;stroke-linecap:round;stroke-miterlimit:10;}.st2{fill:none;stroke:#000000;stroke-width:2;stroke-linecap:round;stroke-linejoin:round;stroke-miterlimit:10;}.st3{fill:none;stroke:#000000;stroke-linecap:round;stroke-miterlimit:10;}.st4{fill:none;stroke:#000000;stroke-width:3;stroke-linecap:round;stroke-miterlimit:10;}.st5{fill:#FFFFFF;}.st6{stroke:#000000;stroke-width:2;stroke-miterlimit:10;}.st7{fill:none;stroke:#000000;stroke-width:2;stroke-linejoin:round;stroke-miterlimit:10;}.st8{fill:none;}.st9{fill:none;stroke:#000000;stroke-width:0;stroke-linecap:round;stroke-linejoin:round;}</style><style type="text/css" id="style1-5">.st0{fill:none;stroke:#000000;stroke-width:2;stroke-miterlimit:10;}.st1{fill:none;stroke:#000000;stroke-width:2;stroke-linecap:round;stroke-miterlimit:10;}.st2{fill:none;stroke:#000000;stroke-width:2;stroke-linecap:round;stroke-linejoin:round;stroke-miterlimit:10;}.st3{fill:none;stroke:#000000;stroke-linecap:round;stroke-miterlimit:10;}.st4{fill:none;stroke:#000000;stroke-width:3;stroke-linecap:round;stroke-miterlimit:10;}.st5{fill:#FFFFFF;}.st6{stroke:#000000;stroke-width:2;stroke-miterlimit:10;}.st7{fill:none;stroke:#000000;stroke-width:2;stroke-linejoin:round;stroke-miterlimit:10;}.st8{fill:none;}.st9{fill:none;stroke:#000000;stroke-width:0;stroke-linecap:round;stroke-linejoin:round;}</style></svg>
