<?xml version="1.0" encoding="UTF-8" standalone="no"?>
<svg version="1.1" width="26.458328mm" height="26.458332mm" viewBox="0 0 75.000134 75.000088" id="svg165" xml:space="preserve" xmlns="http://www.w3.org/2000/svg" xmlns:svg="http://www.w3.org/2000/svg"><defs id="defs165" /><g id="layer3" style="display:inline;opacity:0;fill:maroon;fill-opacity:0.225" transform="translate(-78.750126,-787.50129)"><path d="m 78.750132,787.5013 v 75.00012 H 153.75024 V 787.5013 Z" style="display:inline;fill:maroon;fill-opacity:0.225;stroke:none;stroke-width:0.753376;stroke-linecap:round;stroke-linejoin:round;stroke-dasharray:none;stroke-opacity:1" id="path154-5-7-8-14-1-4" /></g><g id="layer1" transform="translate(-78.750126,-787.50129)"><g id="g77"><path d="m 133.57019,828.25482 a 14.3081,14.307056 0 0 1 14.3081,14.30706 14.3081,14.307056 0 1 1 -14.3081,-14.30706 z" style="display:inline;fill:currentColor;fill-opacity:0.25;stroke:currentColor;stroke-width:2.25;stroke-linecap:butt;stroke-linejoin:miter;stroke-dasharray:none;stroke-opacity:1" id="path23-99-3-2-4" /><g id="g2-2-7-8-4" transform="translate(78.118491,783.95699)" style="display:inline;stroke:currentColor;stroke-width:2.25;stroke-dasharray:none;stroke-opacity:1"><path d="m 65.662896,29.440853 0.0015,19.144877" style="fill:none;stroke:currentColor;stroke-width:2.25;stroke-linecap:round;stroke-linejoin:round;stroke-dasharray:none;stroke-opacity:1" id="path21-5-4-9-29" /><path d="m 9.6522507,29.649495 0.071832,37.805703 34.4616133,-0.02906" style="fill:none;stroke:currentColor;stroke-width:2.25;stroke-linecap:round;stroke-linejoin:round;stroke-dasharray:none;stroke-opacity:1" id="path22-5-3-0-3" /><path d="M 5.7002658,32.692843 37.778885,7.9906272 69.746327,32.581369" style="fill:none;stroke:currentColor;stroke-width:2.25;stroke-linecap:round;stroke-linejoin:round;stroke-dasharray:none;stroke-opacity:1" id="path24-3-8-7-0" /></g><path style="font-size:15.6926px;line-height:1.25;font-family:'Arial Rounded MT Bold';-inkscape-font-specification:'Arial Rounded MT Bold, ';display:inline;stroke-width:0.30426" d="m 128.79719,838.06741 q 1.3549,0 2.3235,0.55266 0.9746,0.54672 1.4738,1.5629 0.4992,1.01023 0.4992,2.37702 0,1.01024 -0.2734,1.83625 -0.2733,0.82602 -0.8201,1.43216 -0.5467,0.60614 -1.343,0.92704 -0.7963,0.3209 -1.8243,0.3209 -1.0222,0 -1.8304,-0.32684 -0.8081,-0.33278 -1.3489,-0.93299 -0.5408,-0.6002 -0.8201,-1.44404 -0.2733,-0.84384 -0.2733,-1.82437 0,-1.00429 0.2852,-1.84219 0.2912,-0.8379 0.8379,-1.42622 0.5467,-0.58831 1.3311,-0.89732 0.7844,-0.31496 1.7828,-0.31496 z m 2.5078,4.48069 q 0,-0.95675 -0.309,-1.65797 -0.3091,-0.70122 -0.8855,-1.05777 -0.5705,-0.3625 -1.3133,-0.3625 -0.5289,0 -0.9805,0.20204 -0.4457,0.19611 -0.7725,0.57643 -0.3209,0.38033 -0.5111,0.97458 -0.1842,0.58832 -0.1842,1.32519 0,0.74282 0.1842,1.34303 0.1902,0.60019 0.5289,0.99835 0.3446,0.39221 0.7844,0.58831 0.4457,0.19611 0.9746,0.19611 0.6774,0 1.242,-0.33873 0.5705,-0.33873 0.9032,-1.04589 0.3388,-0.70717 0.3388,-1.74118 z m 11.2552,0.8379 v 1.66987 q 0,0.33278 -0.065,0.53483 -0.065,0.1961 -0.2437,0.35655 -0.1723,0.16045 -0.4457,0.30901 -0.7903,0.42787 -1.5212,0.62397 -0.731,0.19611 -1.5926,0.19611 -1.0043,0 -1.8304,-0.30901 -0.826,-0.30902 -1.4084,-0.89733 -0.5823,-0.58831 -0.8973,-1.42622 -0.309,-0.8379 -0.309,-1.87191 0,-1.01617 0.3031,-1.86002 0.303,-0.84384 0.8914,-1.43216 0.5883,-0.58831 1.4321,-0.89732 0.8439,-0.31496 1.9135,-0.31496 0.8795,0 1.557,0.23771 0.6774,0.23175 1.0993,0.58831 0.422,0.35655 0.6359,0.7547 0.2139,0.39815 0.2139,0.70717 0,0.33278 -0.2495,0.57049 -0.2437,0.23175 -0.5884,0.23175 -0.1901,0 -0.3684,-0.0891 -0.1723,-0.0891 -0.2912,-0.24958 -0.3268,-0.51106 -0.5526,-0.77254 -0.2259,-0.26146 -0.6121,-0.43975 -0.3804,-0.17827 -0.9746,-0.17827 -0.6121,0 -1.0934,0.21393 -0.4814,0.20799 -0.8261,0.61209 -0.3387,0.39815 -0.5229,0.98052 -0.1783,0.58237 -0.1783,1.28953 0,1.53318 0.7012,2.3592 0.7072,0.82602 1.967,0.82602 0.6121,0 1.1469,-0.16045 0.5408,-0.16045 1.0935,-0.45758 v -1.41433 h -1.3668 q -0.4932,0 -0.7488,-0.14856 -0.2496,-0.14857 -0.2496,-0.50512 0,-0.29118 0.208,-0.48135 0.214,-0.19016 0.5765,-0.19016 h 2.0026 q 0.3684,0 0.624,0.0654 0.2555,0.0654 0.41,0.29118 0.1604,0.22582 0.1604,0.67745 z" id="text3-8-8-7" aria-label="OG" /></g></g><style type="text/css" id="style1">.st0{fill:none;stroke:currentColor;stroke-width:2;stroke-miterlimit:10;}.st1{fill:none;stroke:currentColor;stroke-width:2;stroke-linecap:round;stroke-miterlimit:10;}.st2{fill:none;stroke:currentColor;stroke-width:2;stroke-linecap:round;stroke-linejoin:round;stroke-miterlimit:10;}.st3{fill:none;stroke:currentColor;stroke-linecap:round;stroke-miterlimit:10;}.st4{fill:none;stroke:currentColor;stroke-width:3;stroke-linecap:round;stroke-miterlimit:10;}.st5{fill:#FFFFFF;}.st6{stroke:currentColor;stroke-width:2;stroke-miterlimit:10;}.st7{fill:none;stroke:currentColor;stroke-width:2;stroke-linejoin:round;stroke-miterlimit:10;}.st8{fill:none;}.st9{fill:none;stroke:currentColor;stroke-width:0;stroke-linecap:round;stroke-linejoin:round;}</style><style type="text/css" id="style1-5">.st0{fill:none;stroke:currentColor;stroke-width:2;stroke-miterlimit:10;}.st1{fill:none;stroke:currentColor;stroke-width:2;stroke-linecap:round;stroke-miterlimit:10;}.st2{fill:none;stroke:currentColor;stroke-width:2;stroke-linecap:round;stroke-linejoin:round;stroke-miterlimit:10;}.st3{fill:none;stroke:currentColor;stroke-linecap:round;stroke-miterlimit:10;}.st4{fill:none;stroke:currentColor;stroke-width:3;stroke-linecap:round;stroke-miterlimit:10;}.st5{fill:#FFFFFF;}.st6{stroke:currentColor;stroke-width:2;stroke-miterlimit:10;}.st7{fill:none;stroke:currentColor;stroke-width:2;stroke-linejoin:round;stroke-miterlimit:10;}.st8{fill:none;}.st9{fill:none;stroke:currentColor;stroke-width:0;stroke-linecap:round;stroke-linejoin:round;}</style></svg>
