<?xml version="1.0" encoding="UTF-8" standalone="no"?>
<svg version="1.1" width="26.458334mm" height="26.458332mm" viewBox="0 0 75.00015 75.000088" id="svg165" xml:space="preserve" xmlns="http://www.w3.org/2000/svg" xmlns:svg="http://www.w3.org/2000/svg"><defs id="defs165" /><g id="layer3" style="display:inline;opacity:0;fill:maroon;fill-opacity:0.225" transform="translate(-78.750127,-630.001)"><path d="m 78.750128,630.00103 v 75.00012 h 75.000122 v -75.00012 z" style="fill:maroon;fill-opacity:0.225;stroke:none;stroke-width:0.753376;stroke-linecap:round;stroke-linejoin:round;stroke-dasharray:none;stroke-opacity:1" id="path154-5-7-2-61" /></g><g id="layer1" transform="translate(-78.750127,-630.001)"><g id="g75"><path d="m 133.57019,670.96418 a 14.3081,14.307056 0 0 1 14.3081,14.30705 14.3081,14.307056 0 1 1 -14.3081,-14.30705 z" style="display:inline;fill:currentColor;fill-opacity:0.25;stroke:currentColor;stroke-width:2.25;stroke-linecap:butt;stroke-linejoin:miter;stroke-dasharray:none;stroke-opacity:1" id="path23-9-6" /><g id="g2-6-8" transform="translate(78.118491,626.66635)" style="display:inline;stroke:currentColor;stroke-width:2.25;stroke-dasharray:none;stroke-opacity:1"><path d="m 65.662896,29.440853 0.0015,19.144877" style="fill:none;stroke:currentColor;stroke-width:2.25;stroke-linecap:round;stroke-linejoin:round;stroke-dasharray:none;stroke-opacity:1" id="path21-8-1" /><path d="m 9.6522507,29.649495 0.071832,37.805703 34.4616133,-0.02906" style="fill:none;stroke:currentColor;stroke-width:2.25;stroke-linecap:round;stroke-linejoin:round;stroke-dasharray:none;stroke-opacity:1" id="path22-3-9" /><path d="M 5.7002658,32.692843 37.778885,7.9906272 69.746327,32.581369" style="fill:none;stroke:currentColor;stroke-width:2.25;stroke-linecap:round;stroke-linejoin:round;stroke-dasharray:none;stroke-opacity:1" id="path24-4-8" /></g><path style="font-size:15.6926px;line-height:1.25;font-family:'Arial Rounded MT Bold';-inkscape-font-specification:'Arial Rounded MT Bold, ';display:inline;stroke-width:0.335007" d="m 126.50349,681.49934 v 3.36314 l 3.8146,-3.97819 q 0.2748,-0.2879 0.4645,-0.42531 0.1963,-0.1374 0.5169,-0.1374 0.4188,0 0.674,0.24864 0.2617,0.24209 0.2617,0.59542 0,0.4253 -0.4384,0.84405 l -2.362,2.23774 2.7219,3.89968 q 0.2879,0.40566 0.4318,0.71319 0.144,0.30098 0.144,0.58887 0,0.32062 -0.2552,0.55617 -0.2486,0.23555 -0.6805,0.23555 -0.4057,0 -0.6608,-0.17012 -0.2552,-0.17666 -0.4319,-0.46456 -0.1766,-0.28789 -0.314,-0.52344 l -2.2967,-3.53327 -1.5899,1.52454 v 1.98255 q 0,0.60197 -0.2748,0.89641 -0.2749,0.28789 -0.7067,0.28789 -0.2486,0 -0.4776,-0.13086 -0.2291,-0.13086 -0.3534,-0.35332 -0.092,-0.18321 -0.1112,-0.42531 -0.02,-0.24209 -0.02,-0.70011 v -7.13195 q 0,-0.58888 0.2552,-0.88332 0.2617,-0.29444 0.7066,-0.29444 0.4384,0 0.7067,0.29444 0.2748,0.2879 0.2748,0.88332 z m 16.0567,4.6783 v 1.83861 q 0,0.3664 -0.072,0.58887 -0.072,0.21592 -0.2683,0.39259 -0.1897,0.17666 -0.4907,0.34023 -0.8702,0.47111 -1.675,0.68703 -0.8048,0.21592 -1.7536,0.21592 -1.1058,0 -2.0153,-0.34024 -0.9094,-0.34024 -1.5507,-0.988 -0.6412,-0.64777 -0.988,-1.57034 -0.3402,-0.92258 -0.3402,-2.06108 0,-1.11886 0.3337,-2.04798 0.3337,-0.92912 0.9815,-1.57688 0.6477,-0.64777 1.5768,-0.988 0.9292,-0.34679 2.1069,-0.34679 0.9684,0 1.7143,0.26173 0.7459,0.25517 1.2105,0.64776 0.4645,0.39258 0.7001,0.83097 0.2355,0.43839 0.2355,0.77863 0,0.36641 -0.2748,0.62813 -0.2683,0.25518 -0.6478,0.25518 -0.2093,0 -0.4056,-0.0981 -0.1898,-0.0981 -0.3206,-0.27482 -0.3599,-0.5627 -0.6085,-0.85059 -0.2487,-0.2879 -0.674,-0.48419 -0.4187,-0.19629 -1.073,-0.19629 -0.674,0 -1.204,0.23555 -0.53,0.229 -0.9095,0.67394 -0.3729,0.43838 -0.5757,1.0796 -0.1963,0.64123 -0.1963,1.41985 0,1.68811 0.772,2.59761 0.7787,0.90948 2.1658,0.90948 0.6739,0 1.2628,-0.17666 0.5954,-0.17667 1.2039,-0.50382 v -1.55725 h -1.5049 q -0.543,0 -0.8244,-0.16358 -0.2748,-0.16358 -0.2748,-0.55616 0,-0.32061 0.229,-0.52999 0.2356,-0.20938 0.6347,-0.20938 h 2.205 q 0.4057,0 0.687,0.072 0.2814,0.072 0.4515,0.32062 0.1767,0.24863 0.1767,0.7459 z" id="text3-7" aria-label="KG" /></g></g><style type="text/css" id="style1">.st0{fill:none;stroke:currentColor;stroke-width:2;stroke-miterlimit:10;}.st1{fill:none;stroke:currentColor;stroke-width:2;stroke-linecap:round;stroke-miterlimit:10;}.st2{fill:none;stroke:currentColor;stroke-width:2;stroke-linecap:round;stroke-linejoin:round;stroke-miterlimit:10;}.st3{fill:none;stroke:currentColor;stroke-linecap:round;stroke-miterlimit:10;}.st4{fill:none;stroke:currentColor;stroke-width:3;stroke-linecap:round;stroke-miterlimit:10;}.st5{fill:#FFFFFF;}.st6{stroke:currentColor;stroke-width:2;stroke-miterlimit:10;}.st7{fill:none;stroke:currentColor;stroke-width:2;stroke-linejoin:round;stroke-miterlimit:10;}.st8{fill:none;}.st9{fill:none;stroke:currentColor;stroke-width:0;stroke-linecap:round;stroke-linejoin:round;}</style><style type="text/css" id="style1-5">.st0{fill:none;stroke:currentColor;stroke-width:2;stroke-miterlimit:10;}.st1{fill:none;stroke:currentColor;stroke-width:2;stroke-linecap:round;stroke-miterlimit:10;}.st2{fill:none;stroke:currentColor;stroke-width:2;stroke-linecap:round;stroke-linejoin:round;stroke-miterlimit:10;}.st3{fill:none;stroke:currentColor;stroke-linecap:round;stroke-miterlimit:10;}.st4{fill:none;stroke:currentColor;stroke-width:3;stroke-linecap:round;stroke-miterlimit:10;}.st5{fill:#FFFFFF;}.st6{stroke:currentColor;stroke-width:2;stroke-miterlimit:10;}.st7{fill:none;stroke:currentColor;stroke-width:2;stroke-linejoin:round;stroke-miterlimit:10;}.st8{fill:none;}.st9{fill:none;stroke:currentColor;stroke-width:0;stroke-linecap:round;stroke-linejoin:round;}</style></svg>
